<?xml version="1.0" encoding="us-ascii" standalone="no"?><svg xmlns="http://www.w3.org/2000/svg" xmlns:xlink="http://www.w3.org/1999/xlink" contentStyleType="text/css" height="1235px" preserveAspectRatio="none" style="width:2328px;height:1235px;background:#FFFFFF;" version="1.1" viewBox="0 0 2328 1235" width="2328px" zoomAndPan="magnify"><defs/><g><!--class Persona--><g id="elem_Persona"><rect codeLine="2" fill="#F1F1F1" height="234.2109" id="Persona" rx="2.5" ry="2.5" style="stroke:#181818;stroke-width:0.5;" width="218" x="246.5" y="320"/><ellipse cx="324.75" cy="336" fill="#ADD1B2" rx="11" ry="11" style="stroke:#181818;stroke-width:1.0;"/><path d="M327.5156,331.875 Q327.6719,331.6563 327.8594,331.5469 Q328.0469,331.4375 328.2656,331.4375 Q328.6406,331.4375 328.875,331.7031 Q329.1094,331.9531 329.1094,332.5625 L329.1094,334.0156 Q329.1094,334.625 328.875,334.8906 Q328.6406,335.1563 328.2656,335.1563 Q327.9219,335.1563 327.7188,334.9531 Q327.5156,334.7656 327.4063,334.25 Q327.3594,333.8906 327.1719,333.7031 Q326.8438,333.3281 326.2344,333.1094 Q325.625,332.8906 325,332.8906 Q324.2344,332.8906 323.5938,333.2188 Q322.9688,333.5469 322.4688,334.2969 Q321.9844,335.0469 321.9844,336.0781 L321.9844,337.1719 Q321.9844,338.4063 322.875,339.2344 Q323.7656,340.0469 325.3594,340.0469 Q326.2969,340.0469 326.9531,339.7969 Q327.3438,339.6406 327.7656,339.2031 Q328.0313,338.9375 328.1719,338.8594 Q328.3281,338.7813 328.5313,338.7813 Q328.8594,338.7813 329.1094,339.0469 Q329.375,339.2969 329.375,339.6406 Q329.375,339.9844 329.0313,340.3906 Q328.5313,340.9688 327.7344,341.2969 Q326.6563,341.75 325.3594,341.75 Q323.8438,341.75 322.6406,341.125 Q321.6563,340.625 320.9688,339.5625 Q320.2813,338.4844 320.2813,337.2031 L320.2813,336.0469 Q320.2813,334.7188 320.8906,333.5781 Q321.5156,332.4219 322.6094,331.8125 Q323.7031,331.1875 324.9375,331.1875 Q325.6719,331.1875 326.3125,331.3594 Q326.9688,331.5156 327.5156,331.875 Z " fill="#000000"/><text fill="#000000" font-family="sans-serif" font-size="14" lengthAdjust="spacing" textLength="53" x="345.25" y="341.7969">Persona</text><line style="stroke:#181818;stroke-width:0.5;" x1="247.5" x2="463.5" y1="352" y2="352"/><ellipse cx="257.5" cy="366.8105" fill="none" rx="3" ry="3" style="stroke:#038048;stroke-width:1.0;"/><text fill="#000000" font-family="sans-serif" font-size="14" lengthAdjust="spacing" textLength="93" x="266.5" y="371.1074">nombre: String</text><ellipse cx="257.5" cy="385.4316" fill="none" rx="3" ry="3" style="stroke:#038048;stroke-width:1.0;"/><text fill="#000000" font-family="sans-serif" font-size="14" lengthAdjust="spacing" textLength="94" x="266.5" y="389.7285">apellido: String</text><rect fill="none" height="6" style="stroke:#C82930;stroke-width:1.0;" width="6" x="254.5" y="401.0527"/><text fill="#000000" font-family="sans-serif" font-size="14" lengthAdjust="spacing" textLength="124" x="266.5" y="408.3496">direccion: Direccion</text><rect fill="none" height="6" style="stroke:#C82930;stroke-width:1.0;" width="6" x="254.5" y="419.6738"/><text fill="#000000" font-family="sans-serif" font-size="14" lengthAdjust="spacing" textLength="55" x="266.5" y="426.9707">edad: int</text><rect fill="none" height="6" style="stroke:#C82930;stroke-width:1.0;" width="6" x="254.5" y="438.2949"/><text fill="#000000" font-family="sans-serif" font-size="14" lengthAdjust="spacing" textLength="68" x="266.5" y="445.5918">sexo: Sexo</text><rect fill="none" height="6" style="stroke:#C82930;stroke-width:1.0;" width="6" x="254.5" y="456.916"/><text fill="#000000" font-family="sans-serif" font-size="14" lengthAdjust="spacing" textLength="103" x="266.5" y="464.2129">usuario: Usuario</text><rect fill="none" height="6" style="stroke:#C82930;stroke-width:1.0;" width="6" x="254.5" y="475.5371"/><text fill="#000000" font-family="sans-serif" font-size="14" lengthAdjust="spacing" textLength="74" x="266.5" y="482.834">inbox: Inbox</text><line style="stroke:#181818;stroke-width:0.5;" x1="247.5" x2="463.5" y1="490.3477" y2="490.3477"/><ellipse cx="257.5" cy="505.1582" fill="#84BE84" rx="3" ry="3" style="stroke:#038048;stroke-width:1.0;"/><text fill="#000000" font-family="sans-serif" font-size="14" lengthAdjust="spacing" textLength="192" x="266.5" y="509.4551">notificar(mensaje: String): void</text><ellipse cx="257.5" cy="523.7793" fill="#84BE84" rx="3" ry="3" style="stroke:#038048;stroke-width:1.0;"/><text fill="#000000" font-family="sans-serif" font-size="14" lengthAdjust="spacing" textLength="129" x="266.5" y="528.0762">silenciarInbox(): void</text><ellipse cx="257.5" cy="542.4004" fill="#84BE84" rx="3" ry="3" style="stroke:#038048;stroke-width:1.0;"/><text fill="#000000" font-family="sans-serif" font-size="14" lengthAdjust="spacing" textLength="119" x="266.5" y="546.6973">activarInbox(): void</text></g><!--class Direccion--><g id="elem_Direccion"><rect codeLine="36" fill="#F1F1F1" height="159.7266" id="Direccion" rx="2.5" ry="2.5" style="stroke:#181818;stroke-width:0.5;" width="152" x="500.5" y="614"/><ellipse cx="542.95" cy="630" fill="#ADD1B2" rx="11" ry="11" style="stroke:#181818;stroke-width:1.0;"/><path d="M545.7156,625.875 Q545.8719,625.6563 546.0594,625.5469 Q546.2469,625.4375 546.4656,625.4375 Q546.8406,625.4375 547.075,625.7031 Q547.3094,625.9531 547.3094,626.5625 L547.3094,628.0156 Q547.3094,628.625 547.075,628.8906 Q546.8406,629.1563 546.4656,629.1563 Q546.1219,629.1563 545.9188,628.9531 Q545.7156,628.7656 545.6063,628.25 Q545.5594,627.8906 545.3719,627.7031 Q545.0438,627.3281 544.4344,627.1094 Q543.825,626.8906 543.2,626.8906 Q542.4344,626.8906 541.7938,627.2188 Q541.1688,627.5469 540.6688,628.2969 Q540.1844,629.0469 540.1844,630.0781 L540.1844,631.1719 Q540.1844,632.4063 541.075,633.2344 Q541.9656,634.0469 543.5594,634.0469 Q544.4969,634.0469 545.1531,633.7969 Q545.5438,633.6406 545.9656,633.2031 Q546.2313,632.9375 546.3719,632.8594 Q546.5281,632.7813 546.7313,632.7813 Q547.0594,632.7813 547.3094,633.0469 Q547.575,633.2969 547.575,633.6406 Q547.575,633.9844 547.2313,634.3906 Q546.7313,634.9688 545.9344,635.2969 Q544.8563,635.75 543.5594,635.75 Q542.0438,635.75 540.8406,635.125 Q539.8563,634.625 539.1688,633.5625 Q538.4813,632.4844 538.4813,631.2031 L538.4813,630.0469 Q538.4813,628.7188 539.0906,627.5781 Q539.7156,626.4219 540.8094,625.8125 Q541.9031,625.1875 543.1375,625.1875 Q543.8719,625.1875 544.5125,625.3594 Q545.1688,625.5156 545.7156,625.875 Z " fill="#000000"/><text fill="#000000" font-family="sans-serif" font-size="14" lengthAdjust="spacing" textLength="59" x="563.05" y="635.7969">Direccion</text><line style="stroke:#181818;stroke-width:0.5;" x1="501.5" x2="651.5" y1="646" y2="646"/><ellipse cx="511.5" cy="660.8105" fill="none" rx="3" ry="3" style="stroke:#038048;stroke-width:1.0;"/><text fill="#000000" font-family="sans-serif" font-size="14" lengthAdjust="spacing" textLength="74" x="520.5" y="665.1074">calle: String</text><ellipse cx="511.5" cy="679.4316" fill="none" rx="3" ry="3" style="stroke:#038048;stroke-width:1.0;"/><text fill="#000000" font-family="sans-serif" font-size="14" lengthAdjust="spacing" textLength="59" x="520.5" y="683.7285">altura: Int</text><ellipse cx="511.5" cy="698.0527" fill="none" rx="3" ry="3" style="stroke:#038048;stroke-width:1.0;"/><text fill="#000000" font-family="sans-serif" font-size="14" lengthAdjust="spacing" textLength="101" x="520.5" y="702.3496">localidad: String</text><ellipse cx="511.5" cy="716.6738" fill="none" rx="3" ry="3" style="stroke:#038048;stroke-width:1.0;"/><text fill="#000000" font-family="sans-serif" font-size="14" lengthAdjust="spacing" textLength="89" x="520.5" y="720.9707">partido: String</text><ellipse cx="511.5" cy="735.2949" fill="none" rx="3" ry="3" style="stroke:#038048;stroke-width:1.0;"/><text fill="#000000" font-family="sans-serif" font-size="14" lengthAdjust="spacing" textLength="102" x="520.5" y="739.5918">provincia: String</text><ellipse cx="511.5" cy="753.916" fill="none" rx="3" ry="3" style="stroke:#038048;stroke-width:1.0;"/><text fill="#000000" font-family="sans-serif" font-size="14" lengthAdjust="spacing" textLength="126" x="520.5" y="758.2129">codigoPostal: String</text><line style="stroke:#181818;stroke-width:0.5;" x1="501.5" x2="651.5" y1="765.7266" y2="765.7266"/></g><!--class Usuario--><g id="elem_Usuario"><rect codeLine="24" fill="#F1F1F1" height="103.8633" id="Usuario" rx="2.5" ry="2.5" style="stroke:#181818;stroke-width:0.5;" width="193" x="7" y="642"/><ellipse cx="75.25" cy="658" fill="#ADD1B2" rx="11" ry="11" style="stroke:#181818;stroke-width:1.0;"/><path d="M78.0156,653.875 Q78.1719,653.6563 78.3594,653.5469 Q78.5469,653.4375 78.7656,653.4375 Q79.1406,653.4375 79.375,653.7031 Q79.6094,653.9531 79.6094,654.5625 L79.6094,656.0156 Q79.6094,656.625 79.375,656.8906 Q79.1406,657.1563 78.7656,657.1563 Q78.4219,657.1563 78.2188,656.9531 Q78.0156,656.7656 77.9063,656.25 Q77.8594,655.8906 77.6719,655.7031 Q77.3438,655.3281 76.7344,655.1094 Q76.125,654.8906 75.5,654.8906 Q74.7344,654.8906 74.0938,655.2188 Q73.4688,655.5469 72.9688,656.2969 Q72.4844,657.0469 72.4844,658.0781 L72.4844,659.1719 Q72.4844,660.4063 73.375,661.2344 Q74.2656,662.0469 75.8594,662.0469 Q76.7969,662.0469 77.4531,661.7969 Q77.8438,661.6406 78.2656,661.2031 Q78.5313,660.9375 78.6719,660.8594 Q78.8281,660.7813 79.0313,660.7813 Q79.3594,660.7813 79.6094,661.0469 Q79.875,661.2969 79.875,661.6406 Q79.875,661.9844 79.5313,662.3906 Q79.0313,662.9688 78.2344,663.2969 Q77.1563,663.75 75.8594,663.75 Q74.3438,663.75 73.1406,663.125 Q72.1563,662.625 71.4688,661.5625 Q70.7813,660.4844 70.7813,659.2031 L70.7813,658.0469 Q70.7813,656.7188 71.3906,655.5781 Q72.0156,654.4219 73.1094,653.8125 Q74.2031,653.1875 75.4375,653.1875 Q76.1719,653.1875 76.8125,653.3594 Q77.4688,653.5156 78.0156,653.875 Z " fill="#000000"/><text fill="#000000" font-family="sans-serif" font-size="14" lengthAdjust="spacing" textLength="48" x="95.75" y="663.7969">Usuario</text><line style="stroke:#181818;stroke-width:0.5;" x1="8" x2="199" y1="674" y2="674"/><ellipse cx="18" cy="688.8105" fill="none" rx="3" ry="3" style="stroke:#038048;stroke-width:1.0;"/><text fill="#000000" font-family="sans-serif" font-size="14" lengthAdjust="spacing" textLength="141" x="27" y="693.1074">nombreUsuario: String</text><ellipse cx="18" cy="707.4316" fill="none" rx="3" ry="3" style="stroke:#038048;stroke-width:1.0;"/><text fill="#000000" font-family="sans-serif" font-size="14" lengthAdjust="spacing" textLength="107" x="27" y="711.7285">tipo: TipoUsuario</text><line style="stroke:#181818;stroke-width:0.5;" x1="8" x2="199" y1="719.2422" y2="719.2422"/><ellipse cx="18" cy="734.0527" fill="#84BE84" rx="3" ry="3" style="stroke:#038048;stroke-width:1.0;"/><text fill="#000000" font-family="sans-serif" font-size="14" lengthAdjust="spacing" textLength="167" x="27" y="738.3496">setTipo(TipoUsuario): void</text></g><!--class Sexo--><g id="elem_Sexo"><rect codeLine="17" fill="#F1F1F1" height="103.8633" id="Sexo" rx="2.5" ry="2.5" style="stroke:#181818;stroke-width:0.5;" width="91" x="310" y="81.5"/><ellipse cx="337.6" cy="97.5" fill="#EB937F" rx="11" ry="11" style="stroke:#181818;stroke-width:1.0;"/><path d="M336.4594,98.2969 L336.4594,100.7969 L340.7875,100.7969 L340.7875,99.875 Q340.7875,99.2656 341.0219,99 Q341.2719,98.7344 341.6469,98.7344 Q342.0219,98.7344 342.2563,99 Q342.4906,99.2656 342.4906,99.875 L342.4906,102.5 L334.4906,102.5 Q333.8656,102.5 333.6,102.2656 Q333.35,102.0313 333.35,101.6406 Q333.35,101.2656 333.6156,101.0313 Q333.8813,100.7969 334.4906,100.7969 L334.7563,100.7969 L334.7563,94.1406 L334.4906,94.1406 Q333.8656,94.1406 333.6,93.9063 Q333.35,93.6719 333.35,93.2813 Q333.35,92.9063 333.6,92.6719 Q333.8656,92.4375 334.4906,92.4375 L342.1156,92.4375 L342.1156,95.0313 Q342.1156,95.6406 341.8813,95.9063 Q341.6625,96.1563 341.2719,96.1563 Q340.8969,96.1563 340.6625,95.9063 Q340.4281,95.6406 340.4281,95.0313 L340.4281,94.1406 L336.4594,94.1406 L336.4594,96.5938 L337.9438,96.5938 Q337.9438,95.9375 338.0688,95.75 Q338.3344,95.3438 338.8031,95.3438 Q339.1781,95.3438 339.4125,95.6094 Q339.6469,95.8594 339.6469,96.4688 L339.6469,98.4375 Q339.6469,98.9844 339.5219,99.1719 Q339.2563,99.5625 338.8031,99.5625 Q338.3344,99.5625 338.0688,99.1563 Q337.9438,98.9688 337.9438,98.2969 L336.4594,98.2969 Z " fill="#000000"/><text fill="#000000" font-family="sans-serif" font-size="14" lengthAdjust="spacing" textLength="31" x="354.4" y="103.2969">Sexo</text><line style="stroke:#181818;stroke-width:0.5;" x1="311" x2="400" y1="113.5" y2="113.5"/><text fill="#000000" font-family="sans-serif" font-size="14" lengthAdjust="spacing" textLength="79" x="316" y="132.6074">MASCULINO</text><text fill="#000000" font-family="sans-serif" font-size="14" lengthAdjust="spacing" textLength="70" x="316" y="151.2285">FEMENINO</text><text fill="#000000" font-family="sans-serif" font-size="14" lengthAdjust="spacing" textLength="41" x="316" y="169.8496">OTRO</text><line style="stroke:#181818;stroke-width:0.5;" x1="311" x2="400" y1="177.3633" y2="177.3633"/></g><!--class TipoUsuario--><g id="elem_TipoUsuario"><rect codeLine="30" fill="#F1F1F1" height="85.2422" id="TipoUsuario" rx="2.5" ry="2.5" style="stroke:#181818;stroke-width:0.5;" width="108" x="49.5" y="394.5"/><ellipse cx="64.5" cy="410.5" fill="#EB937F" rx="11" ry="11" style="stroke:#181818;stroke-width:1.0;"/><path d="M63.3594,411.2969 L63.3594,413.7969 L67.6875,413.7969 L67.6875,412.875 Q67.6875,412.2656 67.9219,412 Q68.1719,411.7344 68.5469,411.7344 Q68.9219,411.7344 69.1563,412 Q69.3906,412.2656 69.3906,412.875 L69.3906,415.5 L61.3906,415.5 Q60.7656,415.5 60.5,415.2656 Q60.25,415.0313 60.25,414.6406 Q60.25,414.2656 60.5156,414.0313 Q60.7813,413.7969 61.3906,413.7969 L61.6563,413.7969 L61.6563,407.1406 L61.3906,407.1406 Q60.7656,407.1406 60.5,406.9063 Q60.25,406.6719 60.25,406.2813 Q60.25,405.9063 60.5,405.6719 Q60.7656,405.4375 61.3906,405.4375 L69.0156,405.4375 L69.0156,408.0313 Q69.0156,408.6406 68.7813,408.9063 Q68.5625,409.1563 68.1719,409.1563 Q67.7969,409.1563 67.5625,408.9063 Q67.3281,408.6406 67.3281,408.0313 L67.3281,407.1406 L63.3594,407.1406 L63.3594,409.5938 L64.8438,409.5938 Q64.8438,408.9375 64.9688,408.75 Q65.2344,408.3438 65.7031,408.3438 Q66.0781,408.3438 66.3125,408.6094 Q66.5469,408.8594 66.5469,409.4688 L66.5469,411.4375 Q66.5469,411.9844 66.4219,412.1719 Q66.1563,412.5625 65.7031,412.5625 Q65.2344,412.5625 64.9688,412.1563 Q64.8438,411.9688 64.8438,411.2969 L63.3594,411.2969 Z " fill="#000000"/><text fill="#000000" font-family="sans-serif" font-size="14" lengthAdjust="spacing" textLength="76" x="78.5" y="416.2969">TipoUsuario</text><line style="stroke:#181818;stroke-width:0.5;" x1="50.5" x2="156.5" y1="426.5" y2="426.5"/><text fill="#000000" font-family="sans-serif" font-size="14" lengthAdjust="spacing" textLength="51" x="55.5" y="445.6074">ACTIVO</text><text fill="#000000" font-family="sans-serif" font-size="14" lengthAdjust="spacing" textLength="50" x="55.5" y="464.2285">PASIVO</text><line style="stroke:#181818;stroke-width:0.5;" x1="50.5" x2="156.5" y1="471.7422" y2="471.7422"/></g><!--class Trayecto--><g id="elem_Trayecto"><rect codeLine="45" fill="#F1F1F1" height="252.832" id="Trayecto" rx="2.5" ry="2.5" style="stroke:#181818;stroke-width:0.5;" width="317" x="541" y="7"/><ellipse cx="667.25" cy="23" fill="#ADD1B2" rx="11" ry="11" style="stroke:#181818;stroke-width:1.0;"/><path d="M670.0156,18.875 Q670.1719,18.6563 670.3594,18.5469 Q670.5469,18.4375 670.7656,18.4375 Q671.1406,18.4375 671.375,18.7031 Q671.6094,18.9531 671.6094,19.5625 L671.6094,21.0156 Q671.6094,21.625 671.375,21.8906 Q671.1406,22.1563 670.7656,22.1563 Q670.4219,22.1563 670.2188,21.9531 Q670.0156,21.7656 669.9063,21.25 Q669.8594,20.8906 669.6719,20.7031 Q669.3438,20.3281 668.7344,20.1094 Q668.125,19.8906 667.5,19.8906 Q666.7344,19.8906 666.0938,20.2188 Q665.4688,20.5469 664.9688,21.2969 Q664.4844,22.0469 664.4844,23.0781 L664.4844,24.1719 Q664.4844,25.4063 665.375,26.2344 Q666.2656,27.0469 667.8594,27.0469 Q668.7969,27.0469 669.4531,26.7969 Q669.8438,26.6406 670.2656,26.2031 Q670.5313,25.9375 670.6719,25.8594 Q670.8281,25.7813 671.0313,25.7813 Q671.3594,25.7813 671.6094,26.0469 Q671.875,26.2969 671.875,26.6406 Q671.875,26.9844 671.5313,27.3906 Q671.0313,27.9688 670.2344,28.2969 Q669.1563,28.75 667.8594,28.75 Q666.3438,28.75 665.1406,28.125 Q664.1563,27.625 663.4688,26.5625 Q662.7813,25.4844 662.7813,24.2031 L662.7813,23.0469 Q662.7813,21.7188 663.3906,20.5781 Q664.0156,19.4219 665.1094,18.8125 Q666.2031,18.1875 667.4375,18.1875 Q668.1719,18.1875 668.8125,18.3594 Q669.4688,18.5156 670.0156,18.875 Z " fill="#000000"/><text fill="#000000" font-family="sans-serif" font-size="14" lengthAdjust="spacing" textLength="56" x="687.75" y="28.7969">Trayecto</text><line style="stroke:#181818;stroke-width:0.5;" x1="542" x2="857" y1="39" y2="39"/><ellipse cx="552" cy="53.8105" fill="none" rx="3" ry="3" style="stroke:#038048;stroke-width:1.0;"/><text fill="#000000" font-family="sans-serif" font-size="14" lengthAdjust="spacing" textLength="129" x="561" y="58.1074">transeunte: Persona</text><ellipse cx="552" cy="72.4316" fill="none" rx="3" ry="3" style="stroke:#038048;stroke-width:1.0;"/><text fill="#000000" font-family="sans-serif" font-size="14" lengthAdjust="spacing" textLength="159" x="561" y="76.7285">secciones: List&lt;Seccion&gt;</text><ellipse cx="552" cy="91.0527" fill="none" rx="3" ry="3" style="stroke:#038048;stroke-width:1.0;"/><text fill="#000000" font-family="sans-serif" font-size="14" lengthAdjust="spacing" textLength="169" x="561" y="95.3496">cuidadores: List&lt;Persona&gt;</text><ellipse cx="552" cy="109.6738" fill="none" rx="3" ry="3" style="stroke:#038048;stroke-width:1.0;"/><text fill="#000000" font-family="sans-serif" font-size="14" lengthAdjust="spacing" textLength="291" x="561" y="113.9707">reaccionesIncidente: List&lt;IReaccionIncidente&gt;</text><ellipse cx="552" cy="128.2949" fill="none" rx="3" ry="3" style="stroke:#038048;stroke-width:1.0;"/><text fill="#000000" font-family="sans-serif" font-size="14" lengthAdjust="spacing" textLength="191" x="561" y="132.5918">estrategia: EstrategiaTrayecto</text><line style="stroke:#181818;stroke-width:0.5;" x1="542" x2="857" y1="140.1055" y2="140.1055"/><ellipse cx="552" cy="154.916" fill="#84BE84" rx="3" ry="3" style="stroke:#038048;stroke-width:1.0;"/><text fill="#000000" font-family="sans-serif" font-size="14" lengthAdjust="spacing" textLength="265" x="561" y="159.2129">notificarCuidadores(mensaje: String): void</text><ellipse cx="552" cy="173.5371" fill="#84BE84" rx="3" ry="3" style="stroke:#038048;stroke-width:1.0;"/><text fill="#000000" font-family="sans-serif" font-size="14" lengthAdjust="spacing" textLength="205" x="561" y="177.834">agregarCuidador(Persona): void</text><ellipse cx="552" cy="192.1582" fill="#84BE84" rx="3" ry="3" style="stroke:#038048;stroke-width:1.0;"/><text fill="#000000" font-family="sans-serif" font-size="14" lengthAdjust="spacing" textLength="105" x="561" y="196.4551">comenzar(): void</text><ellipse cx="552" cy="210.7793" fill="#84BE84" rx="3" ry="3" style="stroke:#038048;stroke-width:1.0;"/><text fill="#000000" font-family="sans-serif" font-size="14" lengthAdjust="spacing" textLength="94" x="561" y="215.0762">avanzar(): void</text><ellipse cx="552" cy="229.4004" fill="#84BE84" rx="3" ry="3" style="stroke:#038048;stroke-width:1.0;"/><text fill="#000000" font-family="sans-serif" font-size="14" lengthAdjust="spacing" textLength="92" x="561" y="233.6973">finalizar(): void</text><ellipse cx="552" cy="248.0215" fill="#84BE84" rx="3" ry="3" style="stroke:#038048;stroke-width:1.0;"/><text fill="#000000" font-family="sans-serif" font-size="14" lengthAdjust="spacing" textLength="199" x="561" y="252.3184">asumirIncidente(Trayecto): void</text></g><!--class Seccion--><g id="elem_Seccion"><rect codeLine="63" fill="#F1F1F1" height="103.8633" id="Seccion" rx="2.5" ry="2.5" style="stroke:#181818;stroke-width:0.5;" width="141" x="509" y="385"/><ellipse cx="550.55" cy="401" fill="#ADD1B2" rx="11" ry="11" style="stroke:#181818;stroke-width:1.0;"/><path d="M553.3156,396.875 Q553.4719,396.6563 553.6594,396.5469 Q553.8469,396.4375 554.0656,396.4375 Q554.4406,396.4375 554.675,396.7031 Q554.9094,396.9531 554.9094,397.5625 L554.9094,399.0156 Q554.9094,399.625 554.675,399.8906 Q554.4406,400.1563 554.0656,400.1563 Q553.7219,400.1563 553.5188,399.9531 Q553.3156,399.7656 553.2063,399.25 Q553.1594,398.8906 552.9719,398.7031 Q552.6438,398.3281 552.0344,398.1094 Q551.425,397.8906 550.8,397.8906 Q550.0344,397.8906 549.3938,398.2188 Q548.7688,398.5469 548.2688,399.2969 Q547.7844,400.0469 547.7844,401.0781 L547.7844,402.1719 Q547.7844,403.4063 548.675,404.2344 Q549.5656,405.0469 551.1594,405.0469 Q552.0969,405.0469 552.7531,404.7969 Q553.1438,404.6406 553.5656,404.2031 Q553.8313,403.9375 553.9719,403.8594 Q554.1281,403.7813 554.3313,403.7813 Q554.6594,403.7813 554.9094,404.0469 Q555.175,404.2969 555.175,404.6406 Q555.175,404.9844 554.8313,405.3906 Q554.3313,405.9688 553.5344,406.2969 Q552.4563,406.75 551.1594,406.75 Q549.6438,406.75 548.4406,406.125 Q547.4563,405.625 546.7688,404.5625 Q546.0813,403.4844 546.0813,402.2031 L546.0813,401.0469 Q546.0813,399.7188 546.6906,398.5781 Q547.3156,397.4219 548.4094,396.8125 Q549.5031,396.1875 550.7375,396.1875 Q551.4719,396.1875 552.1125,396.3594 Q552.7688,396.5156 553.3156,396.875 Z " fill="#000000"/><text fill="#000000" font-family="sans-serif" font-size="14" lengthAdjust="spacing" textLength="50" x="570.45" y="406.7969">Seccion</text><line style="stroke:#181818;stroke-width:0.5;" x1="510" x2="649" y1="417" y2="417"/><ellipse cx="520" cy="431.8105" fill="none" rx="3" ry="3" style="stroke:#038048;stroke-width:1.0;"/><text fill="#000000" font-family="sans-serif" font-size="14" lengthAdjust="spacing" textLength="115" x="529" y="436.1074">trayecto: Trayecto</text><ellipse cx="520" cy="450.4316" fill="none" rx="3" ry="3" style="stroke:#038048;stroke-width:1.0;"/><text fill="#000000" font-family="sans-serif" font-size="14" lengthAdjust="spacing" textLength="107" x="529" y="454.7285">origen: Direccion</text><ellipse cx="520" cy="469.0527" fill="none" rx="3" ry="3" style="stroke:#038048;stroke-width:1.0;"/><text fill="#000000" font-family="sans-serif" font-size="14" lengthAdjust="spacing" textLength="113" x="529" y="473.3496">destino: Direccion</text><line style="stroke:#181818;stroke-width:0.5;" x1="510" x2="649" y1="480.8633" y2="480.8633"/></g><!--class IReaccionIncidente--><g id="elem_IReaccionIncidente"><rect codeLine="123" fill="#F1F1F1" height="66.6211" id="IReaccionIncidente" rx="2.5" ry="2.5" style="stroke:#181818;stroke-width:0.5;" width="252" x="1495.5" y="403.5"/><ellipse cx="1556.75" cy="419.5" fill="#A9DCDF" rx="11" ry="11" style="stroke:#181818;stroke-width:1.0;"/><path d="M1558.9375,421.2656 L1554.7969,421.2656 L1554.375,422.2969 L1554.7969,422.2969 Q1555.4063,422.2969 1555.6719,422.5313 Q1555.9375,422.7656 1555.9375,423.1563 Q1555.9375,423.5313 1555.6719,423.7656 Q1555.4063,424 1554.7969,424 L1552.5,424 Q1551.8906,424 1551.6406,423.7656 Q1551.375,423.5313 1551.375,423.1406 Q1551.375,422.7656 1551.6563,422.5313 Q1551.9219,422.2813 1552.5469,422.2969 L1555.2188,415.6406 L1554.1094,415.6406 Q1553.5,415.6406 1553.2344,415.4063 Q1552.9688,415.1719 1552.9688,414.7813 Q1552.9688,414.4063 1553.2344,414.1719 Q1553.5,413.9375 1554.1094,413.9375 L1557.7813,413.9375 L1561.1719,422.2969 Q1561.7656,422.2969 1561.9531,422.4375 Q1562.3438,422.7031 1562.3438,423.1563 Q1562.3438,423.5313 1562.0781,423.7656 Q1561.8281,424 1561.2188,424 L1558.9219,424 Q1558.3125,424 1558.0469,423.7656 Q1557.7813,423.5313 1557.7813,423.1406 Q1557.7813,422.7656 1558.0469,422.5313 Q1558.3125,422.2969 1558.9219,422.2969 L1559.3438,422.2969 L1558.9375,421.2656 Z M1558.2188,419.5625 L1556.8594,416.1875 L1555.4844,419.5625 L1558.2188,419.5625 Z " fill="#000000"/><text fill="#000000" font-family="sans-serif" font-size="14" font-style="italic" lengthAdjust="spacing" textLength="121" x="1577.25" y="425.2969">IReaccionIncidente</text><line style="stroke:#181818;stroke-width:0.5;" x1="1496.5" x2="1746.5" y1="435.5" y2="435.5"/><line style="stroke:#181818;stroke-width:0.5;" x1="1496.5" x2="1746.5" y1="443.5" y2="443.5"/><ellipse cx="1506.5" cy="458.3105" fill="#84BE84" rx="3" ry="3" style="stroke:#038048;stroke-width:1.0;"/><text fill="#000000" font-family="sans-serif" font-size="14" lengthAdjust="spacing" textLength="226" x="1515.5" y="462.6074">reaccionar(trayecto: Trayecto): void</text></g><!--class EstrategiaTrayecto--><g id="elem_EstrategiaTrayecto"><rect codeLine="70" fill="#F1F1F1" height="122.4844" id="EstrategiaTrayecto" rx="2.5" ry="2.5" style="stroke:#181818;stroke-width:0.5;" width="225" x="688" y="376"/><ellipse cx="736.25" cy="392" fill="#A9DCDF" rx="11" ry="11" style="stroke:#181818;stroke-width:1.0;"/><path d="M738.4375,393.7656 L734.2969,393.7656 L733.875,394.7969 L734.2969,394.7969 Q734.9063,394.7969 735.1719,395.0313 Q735.4375,395.2656 735.4375,395.6563 Q735.4375,396.0313 735.1719,396.2656 Q734.9063,396.5 734.2969,396.5 L732,396.5 Q731.3906,396.5 731.1406,396.2656 Q730.875,396.0313 730.875,395.6406 Q730.875,395.2656 731.1563,395.0313 Q731.4219,394.7813 732.0469,394.7969 L734.7188,388.1406 L733.6094,388.1406 Q733,388.1406 732.7344,387.9063 Q732.4688,387.6719 732.4688,387.2813 Q732.4688,386.9063 732.7344,386.6719 Q733,386.4375 733.6094,386.4375 L737.2813,386.4375 L740.6719,394.7969 Q741.2656,394.7969 741.4531,394.9375 Q741.8438,395.2031 741.8438,395.6563 Q741.8438,396.0313 741.5781,396.2656 Q741.3281,396.5 740.7188,396.5 L738.4219,396.5 Q737.8125,396.5 737.5469,396.2656 Q737.2813,396.0313 737.2813,395.6406 Q737.2813,395.2656 737.5469,395.0313 Q737.8125,394.7969 738.4219,394.7969 L738.8438,394.7969 L738.4375,393.7656 Z M737.7188,392.0625 L736.3594,388.6875 L734.9844,392.0625 L737.7188,392.0625 Z " fill="#000000"/><text fill="#000000" font-family="sans-serif" font-size="14" font-style="italic" lengthAdjust="spacing" textLength="120" x="756.75" y="397.7969">EstrategiaTrayecto</text><line style="stroke:#181818;stroke-width:0.5;" x1="689" x2="912" y1="408" y2="408"/><ellipse cx="699" cy="422.8105" fill="none" rx="3" ry="3" style="stroke:#038048;stroke-width:1.0;"/><text fill="#000000" font-family="sans-serif" font-size="14" lengthAdjust="spacing" textLength="115" x="708" y="427.1074">trayecto: Trayecto</text><line style="stroke:#181818;stroke-width:0.5;" x1="689" x2="912" y1="434.6211" y2="434.6211"/><ellipse cx="699" cy="449.4316" fill="#84BE84" rx="3" ry="3" style="stroke:#038048;stroke-width:1.0;"/><text fill="#000000" font-family="sans-serif" font-size="14" lengthAdjust="spacing" textLength="188" x="708" y="453.7285">calcularDemora(Trayecto): int</text><ellipse cx="699" cy="468.0527" fill="#84BE84" rx="3" ry="3" style="stroke:#038048;stroke-width:1.0;"/><text fill="#000000" font-family="sans-serif" font-size="14" lengthAdjust="spacing" textLength="182" x="708" y="472.3496">calcularDemora(Seccion): int</text><ellipse cx="699" cy="486.6738" fill="#84BE84" rx="3" ry="3" style="stroke:#038048;stroke-width:1.0;"/><text fill="#000000" font-family="sans-serif" font-size="14" lengthAdjust="spacing" textLength="199" x="708" y="490.9707">asumirIncidente(Trayecto): void</text></g><!--class EstrategiaPorParadas--><g id="elem_EstrategiaPorParadas"><rect codeLine="77" fill="#F1F1F1" height="103.8633" id="EstrategiaPorParadas" rx="2.5" ry="2.5" style="stroke:#181818;stroke-width:0.5;" width="225" x="948" y="642"/><ellipse cx="987.3" cy="658" fill="#ADD1B2" rx="11" ry="11" style="stroke:#181818;stroke-width:1.0;"/><path d="M990.0656,653.875 Q990.2219,653.6563 990.4094,653.5469 Q990.5969,653.4375 990.8156,653.4375 Q991.1906,653.4375 991.425,653.7031 Q991.6594,653.9531 991.6594,654.5625 L991.6594,656.0156 Q991.6594,656.625 991.425,656.8906 Q991.1906,657.1563 990.8156,657.1563 Q990.4719,657.1563 990.2688,656.9531 Q990.0656,656.7656 989.9563,656.25 Q989.9094,655.8906 989.7219,655.7031 Q989.3938,655.3281 988.7844,655.1094 Q988.175,654.8906 987.55,654.8906 Q986.7844,654.8906 986.1438,655.2188 Q985.5188,655.5469 985.0188,656.2969 Q984.5344,657.0469 984.5344,658.0781 L984.5344,659.1719 Q984.5344,660.4063 985.425,661.2344 Q986.3156,662.0469 987.9094,662.0469 Q988.8469,662.0469 989.5031,661.7969 Q989.8938,661.6406 990.3156,661.2031 Q990.5813,660.9375 990.7219,660.8594 Q990.8781,660.7813 991.0813,660.7813 Q991.4094,660.7813 991.6594,661.0469 Q991.925,661.2969 991.925,661.6406 Q991.925,661.9844 991.5813,662.3906 Q991.0813,662.9688 990.2844,663.2969 Q989.2063,663.75 987.9094,663.75 Q986.3938,663.75 985.1906,663.125 Q984.2063,662.625 983.5188,661.5625 Q982.8313,660.4844 982.8313,659.2031 L982.8313,658.0469 Q982.8313,656.7188 983.4406,655.5781 Q984.0656,654.4219 985.1594,653.8125 Q986.2531,653.1875 987.4875,653.1875 Q988.2219,653.1875 988.8625,653.3594 Q989.5188,653.5156 990.0656,653.875 Z " fill="#000000"/><text fill="#000000" font-family="sans-serif" font-size="14" lengthAdjust="spacing" textLength="139" x="1006.7" y="663.7969">EstrategiaPorParadas</text><line style="stroke:#181818;stroke-width:0.5;" x1="949" x2="1172" y1="674" y2="674"/><ellipse cx="959" cy="688.8105" fill="none" rx="3" ry="3" style="stroke:#038048;stroke-width:1.0;"/><text fill="#000000" font-family="sans-serif" font-size="14" lengthAdjust="spacing" textLength="146" x="968" y="693.1074">demoraPorParadas: int</text><line style="stroke:#181818;stroke-width:0.5;" x1="949" x2="1172" y1="700.6211" y2="700.6211"/><ellipse cx="959" cy="715.4316" fill="#84BE84" rx="3" ry="3" style="stroke:#038048;stroke-width:1.0;"/><text fill="#000000" font-family="sans-serif" font-size="14" lengthAdjust="spacing" textLength="182" x="968" y="719.7285">calcularDemora(Seccion): int</text><ellipse cx="959" cy="734.0527" fill="#84BE84" rx="3" ry="3" style="stroke:#038048;stroke-width:1.0;"/><text fill="#000000" font-family="sans-serif" font-size="14" lengthAdjust="spacing" textLength="199" x="968" y="738.3496">asumirIncidente(Trayecto): void</text></g><!--class IEstimadorDemoras--><g id="elem_IEstimadorDemoras"><rect codeLine="91" fill="#F1F1F1" height="66.6211" id="IEstimadorDemoras" rx="2.5" ry="2.5" style="stroke:#181818;stroke-width:0.5;" width="281" x="790" y="852.5"/><ellipse cx="864.25" cy="868.5" fill="#B4A7E5" rx="11" ry="11" style="stroke:#181818;stroke-width:1.0;"/><path d="M865.2031,865.1406 L865.2031,871.7969 L866.9219,871.7969 Q867.5313,871.7969 867.7969,872.0313 Q868.0625,872.2656 868.0625,872.6563 Q868.0625,873.0313 867.7969,873.2656 Q867.5313,873.5 866.9219,873.5 L861.7813,873.5 Q861.1719,873.5 860.9063,873.2656 Q860.6406,873.0313 860.6406,872.6406 Q860.6406,872.2656 860.9063,872.0313 Q861.1719,871.7969 861.7813,871.7969 L863.5,871.7969 L863.5,865.1406 L861.7813,865.1406 Q861.1719,865.1406 860.9063,864.9063 Q860.6406,864.6719 860.6406,864.2813 Q860.6406,863.9063 860.9063,863.6719 Q861.1719,863.4375 861.7813,863.4375 L866.9219,863.4375 Q867.5313,863.4375 867.7969,863.6719 Q868.0625,863.9063 868.0625,864.2813 Q868.0625,864.6719 867.7969,864.9063 Q867.5313,865.1406 866.9219,865.1406 L865.2031,865.1406 Z " fill="#000000"/><text fill="#000000" font-family="sans-serif" font-size="14" font-style="italic" lengthAdjust="spacing" textLength="124" x="884.75" y="874.2969">IEstimadorDemoras</text><line style="stroke:#181818;stroke-width:0.5;" x1="791" x2="1070" y1="884.5" y2="884.5"/><line style="stroke:#181818;stroke-width:0.5;" x1="791" x2="1070" y1="892.5" y2="892.5"/><ellipse cx="801" cy="907.3105" fill="#84BE84" rx="3" ry="3" style="stroke:#038048;stroke-width:1.0;"/><text fill="#000000" font-family="sans-serif" font-size="14" lengthAdjust="spacing" textLength="255" x="810" y="911.6074">estimarDemora(Direccion, Direccion): Int</text></g><!--class EstrategiaPuntoAPunto--><g id="elem_EstrategiaPuntoAPunto"><rect codeLine="84" fill="#F1F1F1" height="85.2422" id="EstrategiaPuntoAPunto" rx="2.5" ry="2.5" style="stroke:#181818;stroke-width:0.5;" width="225" x="688" y="651.5"/><ellipse cx="723.7" cy="667.5" fill="#ADD1B2" rx="11" ry="11" style="stroke:#181818;stroke-width:1.0;"/><path d="M726.4656,663.375 Q726.6219,663.1563 726.8094,663.0469 Q726.9969,662.9375 727.2156,662.9375 Q727.5906,662.9375 727.825,663.2031 Q728.0594,663.4531 728.0594,664.0625 L728.0594,665.5156 Q728.0594,666.125 727.825,666.3906 Q727.5906,666.6563 727.2156,666.6563 Q726.8719,666.6563 726.6688,666.4531 Q726.4656,666.2656 726.3563,665.75 Q726.3094,665.3906 726.1219,665.2031 Q725.7938,664.8281 725.1844,664.6094 Q724.575,664.3906 723.95,664.3906 Q723.1844,664.3906 722.5438,664.7188 Q721.9188,665.0469 721.4188,665.7969 Q720.9344,666.5469 720.9344,667.5781 L720.9344,668.6719 Q720.9344,669.9063 721.825,670.7344 Q722.7156,671.5469 724.3094,671.5469 Q725.2469,671.5469 725.9031,671.2969 Q726.2938,671.1406 726.7156,670.7031 Q726.9813,670.4375 727.1219,670.3594 Q727.2781,670.2813 727.4813,670.2813 Q727.8094,670.2813 728.0594,670.5469 Q728.325,670.7969 728.325,671.1406 Q728.325,671.4844 727.9813,671.8906 Q727.4813,672.4688 726.6844,672.7969 Q725.6063,673.25 724.3094,673.25 Q722.7938,673.25 721.5906,672.625 Q720.6063,672.125 719.9188,671.0625 Q719.2313,669.9844 719.2313,668.7031 L719.2313,667.5469 Q719.2313,666.2188 719.8406,665.0781 Q720.4656,663.9219 721.5594,663.3125 Q722.6531,662.6875 723.8875,662.6875 Q724.6219,662.6875 725.2625,662.8594 Q725.9188,663.0156 726.4656,663.375 Z " fill="#000000"/><text fill="#000000" font-family="sans-serif" font-size="14" lengthAdjust="spacing" textLength="147" x="742.3" y="673.2969">EstrategiaPuntoAPunto</text><line style="stroke:#181818;stroke-width:0.5;" x1="689" x2="912" y1="683.5" y2="683.5"/><line style="stroke:#181818;stroke-width:0.5;" x1="689" x2="912" y1="691.5" y2="691.5"/><ellipse cx="699" cy="706.3105" fill="#84BE84" rx="3" ry="3" style="stroke:#038048;stroke-width:1.0;"/><text fill="#000000" font-family="sans-serif" font-size="14" lengthAdjust="spacing" textLength="182" x="708" y="710.6074">calcularDemora(Seccion): int</text><ellipse cx="699" cy="724.9316" fill="#84BE84" rx="3" ry="3" style="stroke:#038048;stroke-width:1.0;"/><text fill="#000000" font-family="sans-serif" font-size="14" lengthAdjust="spacing" textLength="199" x="708" y="729.2285">asumirIncidente(Trayecto): void</text></g><!--class DefaultEstimadorDemoras--><g id="elem_DefaultEstimadorDemoras"><rect codeLine="96" fill="#F1F1F1" height="103.8633" id="DefaultEstimadorDemoras" rx="2.5" ry="2.5" style="stroke:#181818;stroke-width:0.5;" width="281" x="790" y="998"/><ellipse cx="843.75" cy="1014" fill="#ADD1B2" rx="11" ry="11" style="stroke:#181818;stroke-width:1.0;"/><path d="M846.5156,1009.875 Q846.6719,1009.6563 846.8594,1009.5469 Q847.0469,1009.4375 847.2656,1009.4375 Q847.6406,1009.4375 847.875,1009.7031 Q848.1094,1009.9531 848.1094,1010.5625 L848.1094,1012.0156 Q848.1094,1012.625 847.875,1012.8906 Q847.6406,1013.1563 847.2656,1013.1563 Q846.9219,1013.1563 846.7188,1012.9531 Q846.5156,1012.7656 846.4063,1012.25 Q846.3594,1011.8906 846.1719,1011.7031 Q845.8438,1011.3281 845.2344,1011.1094 Q844.625,1010.8906 844,1010.8906 Q843.2344,1010.8906 842.5938,1011.2188 Q841.9688,1011.5469 841.4688,1012.2969 Q840.9844,1013.0469 840.9844,1014.0781 L840.9844,1015.1719 Q840.9844,1016.4063 841.875,1017.2344 Q842.7656,1018.0469 844.3594,1018.0469 Q845.2969,1018.0469 845.9531,1017.7969 Q846.3438,1017.6406 846.7656,1017.2031 Q847.0313,1016.9375 847.1719,1016.8594 Q847.3281,1016.7813 847.5313,1016.7813 Q847.8594,1016.7813 848.1094,1017.0469 Q848.375,1017.2969 848.375,1017.6406 Q848.375,1017.9844 848.0313,1018.3906 Q847.5313,1018.9688 846.7344,1019.2969 Q845.6563,1019.75 844.3594,1019.75 Q842.8438,1019.75 841.6406,1019.125 Q840.6563,1018.625 839.9688,1017.5625 Q839.2813,1016.4844 839.2813,1015.2031 L839.2813,1014.0469 Q839.2813,1012.7188 839.8906,1011.5781 Q840.5156,1010.4219 841.6094,1009.8125 Q842.7031,1009.1875 843.9375,1009.1875 Q844.6719,1009.1875 845.3125,1009.3594 Q845.9688,1009.5156 846.5156,1009.875 Z " fill="#000000"/><text fill="#000000" font-family="sans-serif" font-size="14" lengthAdjust="spacing" textLength="165" x="864.25" y="1019.7969">DefaultEstimadorDemoras</text><line style="stroke:#181818;stroke-width:0.5;" x1="791" x2="1070" y1="1030" y2="1030"/><rect fill="none" height="6" style="stroke:#C82930;stroke-width:1.0;" width="6" x="798" y="1041.8105"/><text fill="#000000" font-family="sans-serif" font-size="14" lengthAdjust="spacing" textLength="240" x="810" y="1049.1074">CONST_VELOCIDAD_PEATONES: Int</text><rect fill="none" height="6" style="stroke:#C82930;stroke-width:1.0;" width="6" x="798" y="1060.4316"/><text fill="#000000" font-family="sans-serif" font-size="14" lengthAdjust="spacing" textLength="198" x="810" y="1067.7285">distanciaAPI: DistanceMatrixAPI</text><line style="stroke:#181818;stroke-width:0.5;" x1="791" x2="1070" y1="1075.2422" y2="1075.2422"/><ellipse cx="801" cy="1090.0527" fill="#84BE84" rx="3" ry="3" style="stroke:#038048;stroke-width:1.0;"/><text fill="#000000" font-family="sans-serif" font-size="14" lengthAdjust="spacing" textLength="255" x="810" y="1094.3496">estimarDemora(Direccion, Direccion): Int</text></g><!--class DistanceMatrixAPI--><g id="elem_DistanceMatrixAPI"><rect codeLine="104" fill="#F1F1F1" height="66.6211" id="DistanceMatrixAPI" rx="2.5" ry="2.5" style="stroke:#181818;stroke-width:0.5;" width="363" x="749" y="1162"/><ellipse cx="869.75" cy="1178" fill="#ADD1B2" rx="11" ry="11" style="stroke:#181818;stroke-width:1.0;"/><path d="M872.5156,1173.875 Q872.6719,1173.6563 872.8594,1173.5469 Q873.0469,1173.4375 873.2656,1173.4375 Q873.6406,1173.4375 873.875,1173.7031 Q874.1094,1173.9531 874.1094,1174.5625 L874.1094,1176.0156 Q874.1094,1176.625 873.875,1176.8906 Q873.6406,1177.1563 873.2656,1177.1563 Q872.9219,1177.1563 872.7188,1176.9531 Q872.5156,1176.7656 872.4063,1176.25 Q872.3594,1175.8906 872.1719,1175.7031 Q871.8438,1175.3281 871.2344,1175.1094 Q870.625,1174.8906 870,1174.8906 Q869.2344,1174.8906 868.5938,1175.2188 Q867.9688,1175.5469 867.4688,1176.2969 Q866.9844,1177.0469 866.9844,1178.0781 L866.9844,1179.1719 Q866.9844,1180.4063 867.875,1181.2344 Q868.7656,1182.0469 870.3594,1182.0469 Q871.2969,1182.0469 871.9531,1181.7969 Q872.3438,1181.6406 872.7656,1181.2031 Q873.0313,1180.9375 873.1719,1180.8594 Q873.3281,1180.7813 873.5313,1180.7813 Q873.8594,1180.7813 874.1094,1181.0469 Q874.375,1181.2969 874.375,1181.6406 Q874.375,1181.9844 874.0313,1182.3906 Q873.5313,1182.9688 872.7344,1183.2969 Q871.6563,1183.75 870.3594,1183.75 Q868.8438,1183.75 867.6406,1183.125 Q866.6563,1182.625 865.9688,1181.5625 Q865.2813,1180.4844 865.2813,1179.2031 L865.2813,1178.0469 Q865.2813,1176.7188 865.8906,1175.5781 Q866.5156,1174.4219 867.6094,1173.8125 Q868.7031,1173.1875 869.9375,1173.1875 Q870.6719,1173.1875 871.3125,1173.3594 Q871.9688,1173.5156 872.5156,1173.875 Z " fill="#000000"/><text fill="#000000" font-family="sans-serif" font-size="14" lengthAdjust="spacing" textLength="113" x="890.25" y="1183.7969">DistanceMatrixAPI</text><line style="stroke:#181818;stroke-width:0.5;" x1="750" x2="1111" y1="1194" y2="1194"/><line style="stroke:#181818;stroke-width:0.5;" x1="750" x2="1111" y1="1202" y2="1202"/><ellipse cx="760" cy="1216.8105" fill="#84BE84" rx="3" ry="3" style="stroke:#038048;stroke-width:1.0;"/><text fill="#000000" font-family="sans-serif" font-size="14" lengthAdjust="spacing" textLength="337" x="769" y="1221.1074">calcularDistanciaMetros(Direccion, Direccion): double</text></g><!--class Inbox--><g id="elem_Inbox"><rect codeLine="108" fill="#F1F1F1" height="122.4844" id="Inbox" rx="2.5" ry="2.5" style="stroke:#181818;stroke-width:0.5;" width="230" x="235.5" y="633"/><ellipse cx="329.75" cy="649" fill="#ADD1B2" rx="11" ry="11" style="stroke:#181818;stroke-width:1.0;"/><path d="M332.5156,644.875 Q332.6719,644.6563 332.8594,644.5469 Q333.0469,644.4375 333.2656,644.4375 Q333.6406,644.4375 333.875,644.7031 Q334.1094,644.9531 334.1094,645.5625 L334.1094,647.0156 Q334.1094,647.625 333.875,647.8906 Q333.6406,648.1563 333.2656,648.1563 Q332.9219,648.1563 332.7188,647.9531 Q332.5156,647.7656 332.4063,647.25 Q332.3594,646.8906 332.1719,646.7031 Q331.8438,646.3281 331.2344,646.1094 Q330.625,645.8906 330,645.8906 Q329.2344,645.8906 328.5938,646.2188 Q327.9688,646.5469 327.4688,647.2969 Q326.9844,648.0469 326.9844,649.0781 L326.9844,650.1719 Q326.9844,651.4063 327.875,652.2344 Q328.7656,653.0469 330.3594,653.0469 Q331.2969,653.0469 331.9531,652.7969 Q332.3438,652.6406 332.7656,652.2031 Q333.0313,651.9375 333.1719,651.8594 Q333.3281,651.7813 333.5313,651.7813 Q333.8594,651.7813 334.1094,652.0469 Q334.375,652.2969 334.375,652.6406 Q334.375,652.9844 334.0313,653.3906 Q333.5313,653.9688 332.7344,654.2969 Q331.6563,654.75 330.3594,654.75 Q328.8438,654.75 327.6406,654.125 Q326.6563,653.625 325.9688,652.5625 Q325.2813,651.4844 325.2813,650.2031 L325.2813,649.0469 Q325.2813,647.7188 325.8906,646.5781 Q326.5156,645.4219 327.6094,644.8125 Q328.7031,644.1875 329.9375,644.1875 Q330.6719,644.1875 331.3125,644.3594 Q331.9688,644.5156 332.5156,644.875 Z " fill="#000000"/><text fill="#000000" font-family="sans-serif" font-size="14" lengthAdjust="spacing" textLength="33" x="350.25" y="654.7969">Inbox</text><line style="stroke:#181818;stroke-width:0.5;" x1="236.5" x2="464.5" y1="665" y2="665"/><rect fill="none" height="6" style="stroke:#C82930;stroke-width:1.0;" width="6" x="243.5" y="676.8105"/><text fill="#000000" font-family="sans-serif" font-size="14" lengthAdjust="spacing" textLength="113" x="255.5" y="684.1074">persona: Persona</text><rect fill="none" height="6" style="stroke:#C82930;stroke-width:1.0;" width="6" x="243.5" y="695.4316"/><text fill="#000000" font-family="sans-serif" font-size="14" lengthAdjust="spacing" textLength="204" x="255.5" y="702.7285">notificaciones: List&lt;Notificacion&gt;</text><rect fill="none" height="6" style="stroke:#C82930;stroke-width:1.0;" width="6" x="243.5" y="714.0527"/><text fill="#000000" font-family="sans-serif" font-size="14" lengthAdjust="spacing" textLength="99" x="255.5" y="721.3496">silenciado: Bool</text><line style="stroke:#181818;stroke-width:0.5;" x1="236.5" x2="464.5" y1="728.8633" y2="728.8633"/><ellipse cx="246.5" cy="743.6738" fill="#84BE84" rx="3" ry="3" style="stroke:#038048;stroke-width:1.0;"/><text fill="#000000" font-family="sans-serif" font-size="14" lengthAdjust="spacing" textLength="158" x="255.5" y="747.9707">notificar(mensaje: String)</text></g><!--class Notificacion--><g id="elem_Notificacion"><rect codeLine="117" fill="#F1F1F1" height="103.8633" id="Notificacion" rx="2.5" ry="2.5" style="stroke:#181818;stroke-width:0.5;" width="140" x="280.5" y="834"/><ellipse cx="311.7" cy="850" fill="#ADD1B2" rx="11" ry="11" style="stroke:#181818;stroke-width:1.0;"/><path d="M314.4656,845.875 Q314.6219,845.6563 314.8094,845.5469 Q314.9969,845.4375 315.2156,845.4375 Q315.5906,845.4375 315.825,845.7031 Q316.0594,845.9531 316.0594,846.5625 L316.0594,848.0156 Q316.0594,848.625 315.825,848.8906 Q315.5906,849.1563 315.2156,849.1563 Q314.8719,849.1563 314.6688,848.9531 Q314.4656,848.7656 314.3563,848.25 Q314.3094,847.8906 314.1219,847.7031 Q313.7938,847.3281 313.1844,847.1094 Q312.575,846.8906 311.95,846.8906 Q311.1844,846.8906 310.5438,847.2188 Q309.9188,847.5469 309.4188,848.2969 Q308.9344,849.0469 308.9344,850.0781 L308.9344,851.1719 Q308.9344,852.4063 309.825,853.2344 Q310.7156,854.0469 312.3094,854.0469 Q313.2469,854.0469 313.9031,853.7969 Q314.2938,853.6406 314.7156,853.2031 Q314.9813,852.9375 315.1219,852.8594 Q315.2781,852.7813 315.4813,852.7813 Q315.8094,852.7813 316.0594,853.0469 Q316.325,853.2969 316.325,853.6406 Q316.325,853.9844 315.9813,854.3906 Q315.4813,854.9688 314.6844,855.2969 Q313.6063,855.75 312.3094,855.75 Q310.7938,855.75 309.5906,855.125 Q308.6063,854.625 307.9188,853.5625 Q307.2313,852.4844 307.2313,851.2031 L307.2313,850.0469 Q307.2313,848.7188 307.8406,847.5781 Q308.4656,846.4219 309.5594,845.8125 Q310.6531,845.1875 311.8875,845.1875 Q312.6219,845.1875 313.2625,845.3594 Q313.9188,845.5156 314.4656,845.875 Z " fill="#000000"/><text fill="#000000" font-family="sans-serif" font-size="14" lengthAdjust="spacing" textLength="72" x="329.3" y="855.7969">Notificacion</text><line style="stroke:#181818;stroke-width:0.5;" x1="281.5" x2="419.5" y1="866" y2="866"/><rect fill="none" height="6" style="stroke:#C82930;stroke-width:1.0;" width="6" x="288.5" y="877.8105"/><text fill="#000000" font-family="sans-serif" font-size="14" lengthAdjust="spacing" textLength="113" x="300.5" y="885.1074">persona: Persona</text><rect fill="none" height="6" style="stroke:#C82930;stroke-width:1.0;" width="6" x="288.5" y="896.4316"/><text fill="#000000" font-family="sans-serif" font-size="14" lengthAdjust="spacing" textLength="114" x="300.5" y="903.7285">mensaje: Mensaje</text><rect fill="none" height="6" style="stroke:#C82930;stroke-width:1.0;" width="6" x="288.5" y="915.0527"/><text fill="#000000" font-family="sans-serif" font-size="14" lengthAdjust="spacing" textLength="86" x="300.5" y="922.3496">enviada: Bool</text><line style="stroke:#181818;stroke-width:0.5;" x1="281.5" x2="419.5" y1="929.8633" y2="929.8633"/></g><!--class alertarCuidadores--><g id="elem_alertarCuidadores"><rect codeLine="127" fill="#F1F1F1" height="66.6211" id="alertarCuidadores" rx="2.5" ry="2.5" style="stroke:#181818;stroke-width:0.5;" width="252" x="2069.5" y="660.5"/><ellipse cx="2134.25" cy="676.5" fill="#ADD1B2" rx="11" ry="11" style="stroke:#181818;stroke-width:1.0;"/><path d="M2137.0156,672.375 Q2137.1719,672.1563 2137.3594,672.0469 Q2137.5469,671.9375 2137.7656,671.9375 Q2138.1406,671.9375 2138.375,672.2031 Q2138.6094,672.4531 2138.6094,673.0625 L2138.6094,674.5156 Q2138.6094,675.125 2138.375,675.3906 Q2138.1406,675.6563 2137.7656,675.6563 Q2137.4219,675.6563 2137.2188,675.4531 Q2137.0156,675.2656 2136.9063,674.75 Q2136.8594,674.3906 2136.6719,674.2031 Q2136.3438,673.8281 2135.7344,673.6094 Q2135.125,673.3906 2134.5,673.3906 Q2133.7344,673.3906 2133.0938,673.7188 Q2132.4688,674.0469 2131.9688,674.7969 Q2131.4844,675.5469 2131.4844,676.5781 L2131.4844,677.6719 Q2131.4844,678.9063 2132.375,679.7344 Q2133.2656,680.5469 2134.8594,680.5469 Q2135.7969,680.5469 2136.4531,680.2969 Q2136.8438,680.1406 2137.2656,679.7031 Q2137.5313,679.4375 2137.6719,679.3594 Q2137.8281,679.2813 2138.0313,679.2813 Q2138.3594,679.2813 2138.6094,679.5469 Q2138.875,679.7969 2138.875,680.1406 Q2138.875,680.4844 2138.5313,680.8906 Q2138.0313,681.4688 2137.2344,681.7969 Q2136.1563,682.25 2134.8594,682.25 Q2133.3438,682.25 2132.1406,681.625 Q2131.1563,681.125 2130.4688,680.0625 Q2129.7813,678.9844 2129.7813,677.7031 L2129.7813,676.5469 Q2129.7813,675.2188 2130.3906,674.0781 Q2131.0156,672.9219 2132.1094,672.3125 Q2133.2031,671.6875 2134.4375,671.6875 Q2135.1719,671.6875 2135.8125,671.8594 Q2136.4688,672.0156 2137.0156,672.375 Z " fill="#000000"/><text fill="#000000" font-family="sans-serif" font-size="14" lengthAdjust="spacing" textLength="114" x="2154.75" y="682.2969">alertarCuidadores</text><line style="stroke:#181818;stroke-width:0.5;" x1="2070.5" x2="2320.5" y1="692.5" y2="692.5"/><line style="stroke:#181818;stroke-width:0.5;" x1="2070.5" x2="2320.5" y1="700.5" y2="700.5"/><rect fill="#F24D5C" height="6" style="stroke:#C82930;stroke-width:1.0;" width="6" x="2077.5" y="712.3105"/><text fill="#000000" font-family="sans-serif" font-size="14" lengthAdjust="spacing" textLength="226" x="2089.5" y="719.6074">reaccionar(trayecto: Trayecto): void</text></g><!--class prorroga--><g id="elem_prorroga"><rect codeLine="131" fill="#F1F1F1" height="85.2422" id="prorroga" rx="2.5" ry="2.5" style="stroke:#181818;stroke-width:0.5;" width="252" x="1208.5" y="651.5"/><ellipse cx="1302.75" cy="667.5" fill="#ADD1B2" rx="11" ry="11" style="stroke:#181818;stroke-width:1.0;"/><path d="M1305.5156,663.375 Q1305.6719,663.1563 1305.8594,663.0469 Q1306.0469,662.9375 1306.2656,662.9375 Q1306.6406,662.9375 1306.875,663.2031 Q1307.1094,663.4531 1307.1094,664.0625 L1307.1094,665.5156 Q1307.1094,666.125 1306.875,666.3906 Q1306.6406,666.6563 1306.2656,666.6563 Q1305.9219,666.6563 1305.7188,666.4531 Q1305.5156,666.2656 1305.4063,665.75 Q1305.3594,665.3906 1305.1719,665.2031 Q1304.8438,664.8281 1304.2344,664.6094 Q1303.625,664.3906 1303,664.3906 Q1302.2344,664.3906 1301.5938,664.7188 Q1300.9688,665.0469 1300.4688,665.7969 Q1299.9844,666.5469 1299.9844,667.5781 L1299.9844,668.6719 Q1299.9844,669.9063 1300.875,670.7344 Q1301.7656,671.5469 1303.3594,671.5469 Q1304.2969,671.5469 1304.9531,671.2969 Q1305.3438,671.1406 1305.7656,670.7031 Q1306.0313,670.4375 1306.1719,670.3594 Q1306.3281,670.2813 1306.5313,670.2813 Q1306.8594,670.2813 1307.1094,670.5469 Q1307.375,670.7969 1307.375,671.1406 Q1307.375,671.4844 1307.0313,671.8906 Q1306.5313,672.4688 1305.7344,672.7969 Q1304.6563,673.25 1303.3594,673.25 Q1301.8438,673.25 1300.6406,672.625 Q1299.6563,672.125 1298.9688,671.0625 Q1298.2813,669.9844 1298.2813,668.7031 L1298.2813,667.5469 Q1298.2813,666.2188 1298.8906,665.0781 Q1299.5156,663.9219 1300.6094,663.3125 Q1301.7031,662.6875 1302.9375,662.6875 Q1303.6719,662.6875 1304.3125,662.8594 Q1304.9688,663.0156 1305.5156,663.375 Z " fill="#000000"/><text fill="#000000" font-family="sans-serif" font-size="14" lengthAdjust="spacing" textLength="55" x="1323.25" y="673.2969">prorroga</text><line style="stroke:#181818;stroke-width:0.5;" x1="1209.5" x2="1459.5" y1="683.5" y2="683.5"/><ellipse cx="1219.5" cy="698.3105" fill="none" rx="3" ry="3" style="stroke:#038048;stroke-width:1.0;"/><text fill="#000000" font-family="sans-serif" font-size="14" lengthAdjust="spacing" textLength="72" x="1228.5" y="702.6074">minutos: Int</text><line style="stroke:#181818;stroke-width:0.5;" x1="1209.5" x2="1459.5" y1="710.1211" y2="710.1211"/><rect fill="#F24D5C" height="6" style="stroke:#C82930;stroke-width:1.0;" width="6" x="1216.5" y="721.9316"/><text fill="#000000" font-family="sans-serif" font-size="14" lengthAdjust="spacing" textLength="226" x="1228.5" y="729.2285">reaccionar(trayecto: Trayecto): void</text></g><!--class llamarPolicia--><g id="elem_llamarPolicia"><rect codeLine="136" fill="#F1F1F1" height="85.2422" id="llamarPolicia" rx="2.5" ry="2.5" style="stroke:#181818;stroke-width:0.5;" width="252" x="1782.5" y="651.5"/><ellipse cx="1864.75" cy="667.5" fill="#ADD1B2" rx="11" ry="11" style="stroke:#181818;stroke-width:1.0;"/><path d="M1867.5156,663.375 Q1867.6719,663.1563 1867.8594,663.0469 Q1868.0469,662.9375 1868.2656,662.9375 Q1868.6406,662.9375 1868.875,663.2031 Q1869.1094,663.4531 1869.1094,664.0625 L1869.1094,665.5156 Q1869.1094,666.125 1868.875,666.3906 Q1868.6406,666.6563 1868.2656,666.6563 Q1867.9219,666.6563 1867.7188,666.4531 Q1867.5156,666.2656 1867.4063,665.75 Q1867.3594,665.3906 1867.1719,665.2031 Q1866.8438,664.8281 1866.2344,664.6094 Q1865.625,664.3906 1865,664.3906 Q1864.2344,664.3906 1863.5938,664.7188 Q1862.9688,665.0469 1862.4688,665.7969 Q1861.9844,666.5469 1861.9844,667.5781 L1861.9844,668.6719 Q1861.9844,669.9063 1862.875,670.7344 Q1863.7656,671.5469 1865.3594,671.5469 Q1866.2969,671.5469 1866.9531,671.2969 Q1867.3438,671.1406 1867.7656,670.7031 Q1868.0313,670.4375 1868.1719,670.3594 Q1868.3281,670.2813 1868.5313,670.2813 Q1868.8594,670.2813 1869.1094,670.5469 Q1869.375,670.7969 1869.375,671.1406 Q1869.375,671.4844 1869.0313,671.8906 Q1868.5313,672.4688 1867.7344,672.7969 Q1866.6563,673.25 1865.3594,673.25 Q1863.8438,673.25 1862.6406,672.625 Q1861.6563,672.125 1860.9688,671.0625 Q1860.2813,669.9844 1860.2813,668.7031 L1860.2813,667.5469 Q1860.2813,666.2188 1860.8906,665.0781 Q1861.5156,663.9219 1862.6094,663.3125 Q1863.7031,662.6875 1864.9375,662.6875 Q1865.6719,662.6875 1866.3125,662.8594 Q1866.9688,663.0156 1867.5156,663.375 Z " fill="#000000"/><text fill="#000000" font-family="sans-serif" font-size="14" lengthAdjust="spacing" textLength="79" x="1885.25" y="673.2969">llamarPolicia</text><line style="stroke:#181818;stroke-width:0.5;" x1="1783.5" x2="2033.5" y1="683.5" y2="683.5"/><rect fill="none" height="6" style="stroke:#C82930;stroke-width:1.0;" width="6" x="1790.5" y="695.3105"/><text fill="#000000" font-family="sans-serif" font-size="14" lengthAdjust="spacing" textLength="199" x="1802.5" y="702.6074">CONST_NUMERO_POLICIA: int</text><line style="stroke:#181818;stroke-width:0.5;" x1="1783.5" x2="2033.5" y1="710.1211" y2="710.1211"/><rect fill="#F24D5C" height="6" style="stroke:#C82930;stroke-width:1.0;" width="6" x="1790.5" y="721.9316"/><text fill="#000000" font-family="sans-serif" font-size="14" lengthAdjust="spacing" textLength="226" x="1802.5" y="729.2285">reaccionar(trayecto: Trayecto): void</text></g><!--class LlamadorTelefonico--><g id="elem_LlamadorTelefonico"><rect codeLine="148" fill="#F1F1F1" height="66.6211" id="LlamadorTelefonico" rx="2.5" ry="2.5" style="stroke:#181818;stroke-width:0.5;" width="271" x="1629" y="852.5"/><ellipse cx="1697.75" cy="868.5" fill="#ADD1B2" rx="11" ry="11" style="stroke:#181818;stroke-width:1.0;"/><path d="M1700.5156,864.375 Q1700.6719,864.1563 1700.8594,864.0469 Q1701.0469,863.9375 1701.2656,863.9375 Q1701.6406,863.9375 1701.875,864.2031 Q1702.1094,864.4531 1702.1094,865.0625 L1702.1094,866.5156 Q1702.1094,867.125 1701.875,867.3906 Q1701.6406,867.6563 1701.2656,867.6563 Q1700.9219,867.6563 1700.7188,867.4531 Q1700.5156,867.2656 1700.4063,866.75 Q1700.3594,866.3906 1700.1719,866.2031 Q1699.8438,865.8281 1699.2344,865.6094 Q1698.625,865.3906 1698,865.3906 Q1697.2344,865.3906 1696.5938,865.7188 Q1695.9688,866.0469 1695.4688,866.7969 Q1694.9844,867.5469 1694.9844,868.5781 L1694.9844,869.6719 Q1694.9844,870.9063 1695.875,871.7344 Q1696.7656,872.5469 1698.3594,872.5469 Q1699.2969,872.5469 1699.9531,872.2969 Q1700.3438,872.1406 1700.7656,871.7031 Q1701.0313,871.4375 1701.1719,871.3594 Q1701.3281,871.2813 1701.5313,871.2813 Q1701.8594,871.2813 1702.1094,871.5469 Q1702.375,871.7969 1702.375,872.1406 Q1702.375,872.4844 1702.0313,872.8906 Q1701.5313,873.4688 1700.7344,873.7969 Q1699.6563,874.25 1698.3594,874.25 Q1696.8438,874.25 1695.6406,873.625 Q1694.6563,873.125 1693.9688,872.0625 Q1693.2813,870.9844 1693.2813,869.7031 L1693.2813,868.5469 Q1693.2813,867.2188 1693.8906,866.0781 Q1694.5156,864.9219 1695.6094,864.3125 Q1696.7031,863.6875 1697.9375,863.6875 Q1698.6719,863.6875 1699.3125,863.8594 Q1699.9688,864.0156 1700.5156,864.375 Z " fill="#000000"/><text fill="#000000" font-family="sans-serif" font-size="14" lengthAdjust="spacing" textLength="125" x="1718.25" y="874.2969">LlamadorTelefonico</text><line style="stroke:#181818;stroke-width:0.5;" x1="1630" x2="1899" y1="884.5" y2="884.5"/><line style="stroke:#181818;stroke-width:0.5;" x1="1630" x2="1899" y1="892.5" y2="892.5"/><text fill="#000000" font-family="sans-serif" font-size="14" lengthAdjust="spacing" textLength="259" x="1635" y="911.6074">llamar(numero: int, mensaje: String): void</text></g><!--class llamarUsuario--><g id="elem_llamarUsuario"><rect codeLine="142" fill="#F1F1F1" height="85.2422" id="llamarUsuario" rx="2.5" ry="2.5" style="stroke:#181818;stroke-width:0.5;" width="252" x="1495.5" y="651.5"/><ellipse cx="1574.25" cy="667.5" fill="#ADD1B2" rx="11" ry="11" style="stroke:#181818;stroke-width:1.0;"/><path d="M1577.0156,663.375 Q1577.1719,663.1563 1577.3594,663.0469 Q1577.5469,662.9375 1577.7656,662.9375 Q1578.1406,662.9375 1578.375,663.2031 Q1578.6094,663.4531 1578.6094,664.0625 L1578.6094,665.5156 Q1578.6094,666.125 1578.375,666.3906 Q1578.1406,666.6563 1577.7656,666.6563 Q1577.4219,666.6563 1577.2188,666.4531 Q1577.0156,666.2656 1576.9063,665.75 Q1576.8594,665.3906 1576.6719,665.2031 Q1576.3438,664.8281 1575.7344,664.6094 Q1575.125,664.3906 1574.5,664.3906 Q1573.7344,664.3906 1573.0938,664.7188 Q1572.4688,665.0469 1571.9688,665.7969 Q1571.4844,666.5469 1571.4844,667.5781 L1571.4844,668.6719 Q1571.4844,669.9063 1572.375,670.7344 Q1573.2656,671.5469 1574.8594,671.5469 Q1575.7969,671.5469 1576.4531,671.2969 Q1576.8438,671.1406 1577.2656,670.7031 Q1577.5313,670.4375 1577.6719,670.3594 Q1577.8281,670.2813 1578.0313,670.2813 Q1578.3594,670.2813 1578.6094,670.5469 Q1578.875,670.7969 1578.875,671.1406 Q1578.875,671.4844 1578.5313,671.8906 Q1578.0313,672.4688 1577.2344,672.7969 Q1576.1563,673.25 1574.8594,673.25 Q1573.3438,673.25 1572.1406,672.625 Q1571.1563,672.125 1570.4688,671.0625 Q1569.7813,669.9844 1569.7813,668.7031 L1569.7813,667.5469 Q1569.7813,666.2188 1570.3906,665.0781 Q1571.0156,663.9219 1572.1094,663.3125 Q1573.2031,662.6875 1574.4375,662.6875 Q1575.1719,662.6875 1575.8125,662.8594 Q1576.4688,663.0156 1577.0156,663.375 Z " fill="#000000"/><text fill="#000000" font-family="sans-serif" font-size="14" lengthAdjust="spacing" textLength="86" x="1594.75" y="673.2969">llamarUsuario</text><line style="stroke:#181818;stroke-width:0.5;" x1="1496.5" x2="1746.5" y1="683.5" y2="683.5"/><rect fill="none" height="6" style="stroke:#C82930;stroke-width:1.0;" width="6" x="1503.5" y="695.3105"/><text fill="#000000" font-family="sans-serif" font-size="14" lengthAdjust="spacing" textLength="74" x="1515.5" y="702.6074">telefono: int</text><line style="stroke:#181818;stroke-width:0.5;" x1="1496.5" x2="1746.5" y1="710.1211" y2="710.1211"/><rect fill="#F24D5C" height="6" style="stroke:#C82930;stroke-width:1.0;" width="6" x="1503.5" y="721.9316"/><text fill="#000000" font-family="sans-serif" font-size="14" lengthAdjust="spacing" textLength="226" x="1515.5" y="729.2285">reaccionar(trayecto: Trayecto): void</text></g><!--link Persona to Direccion--><g id="link_Persona_Direccion"><path codeLine="14" d="M456.3,554.31 C473.72,574.4 487.5291,590.347 503.8491,609.167 " fill="none" id="Persona-to-Direccion" style="stroke:#181818;stroke-width:1.0;"/><polygon fill="#181818" points="507.78,613.7,504.9057,604.2799,504.5043,609.9225,498.8617,609.521,507.78,613.7" style="stroke:#181818;stroke-width:1.0;"/></g><!--link Persona to Usuario--><g id="link_Persona_Usuario"><path codeLine="15" d="M246.43,548.36 C214.24,580.94 184.7672,610.762 158.1872,637.662 " fill="none" id="Persona-to-Usuario" style="stroke:#181818;stroke-width:1.0;"/><polygon fill="#181818" points="153.97,641.93,163.1411,638.3395,157.4843,638.3734,157.4505,632.7166,153.97,641.93" style="stroke:#181818;stroke-width:1.0;"/></g><!--link Sexo to Persona--><g id="link_Sexo_Persona"><path codeLine="22" d="M355.5,185.65 C355.5,222.35 355.5,261.33 355.5,307.7 " fill="none" id="Sexo-to-Persona" style="stroke:#181818;stroke-width:1.0;"/><polygon fill="#181818" points="355.5,319.7,359.5,313.7,355.5,307.7,351.5,313.7,355.5,319.7" style="stroke:#181818;stroke-width:1.0;"/></g><!--link TipoUsuario to Usuario--><g id="link_TipoUsuario_Usuario"><path codeLine="34" d="M103.5,479.54 C103.5,523.85 103.5,582.1 103.5,629.8 " fill="none" id="TipoUsuario-to-Usuario" style="stroke:#181818;stroke-width:1.0;"/><polygon fill="#181818" points="103.5,641.8,107.5,635.8,103.5,629.8,99.5,635.8,103.5,641.8" style="stroke:#181818;stroke-width:1.0;"/></g><!--link Trayecto to Seccion--><g id="link_Trayecto_Seccion"><path codeLine="58" d="M649.48,260.18 C632.05,303.97 615.6899,345.0858 602.0499,379.3358 " fill="none" id="Trayecto-to-Seccion" style="stroke:#181818;stroke-width:1.0;"/><polygon fill="#181818" points="599.83,384.91,606.876,378.0286,601.6799,380.2648,599.4437,375.0687,599.83,384.91" style="stroke:#181818;stroke-width:1.0;"/></g><!--link Trayecto to Persona--><g id="link_Trayecto_Persona"><path codeLine="59" d="M556.1,260.18 C525.5,287 498.1721,310.9551 469.1021,336.4351 " fill="none" id="Trayecto-to-Persona" style="stroke:#181818;stroke-width:1.0;"/><polygon fill="#181818" points="464.59,340.39,473.9947,337.4658,468.3501,337.0943,468.7216,331.4496,464.59,340.39" style="stroke:#181818;stroke-width:1.0;"/></g><!--link Trayecto to IReaccionIncidente--><g id="link_Trayecto_IReaccionIncidente"><path codeLine="60" d="M858.26,186.42 C1048.81,248.73 1356.8371,349.4553 1516.2071,401.5653 " fill="none" id="Trayecto-to-IReaccionIncidente" style="stroke:#181818;stroke-width:1.0;"/><polygon fill="#181818" points="1521.91,403.43,1514.5988,396.831,1517.1576,401.8761,1512.1125,404.4349,1521.91,403.43" style="stroke:#181818;stroke-width:1.0;"/></g><!--link Trayecto to EstrategiaTrayecto--><g id="link_Trayecto_EstrategiaTrayecto"><path codeLine="61" d="M741.6,260.18 C755.03,300.25 767.3534,337.061 778.4734,370.241 " fill="none" id="Trayecto-to-EstrategiaTrayecto" style="stroke:#181818;stroke-width:1.0;"/><polygon fill="#181818" points="780.38,375.93,781.3127,366.1254,778.7911,371.1892,773.7274,368.6676,780.38,375.93" style="stroke:#181818;stroke-width:1.0;"/></g><!--link Seccion to Direccion--><g id="link_Seccion_Direccion"><path codeLine="68" d="M578.9,489.3 C578.48,524.93 577.981,567.1004 577.501,607.6604 " fill="none" id="Seccion-to-Direccion" style="stroke:#181818;stroke-width:1.0;"/><polygon fill="#181818" points="577.43,613.66,581.5362,604.708,577.4892,608.6604,573.5368,604.6133,577.43,613.66" style="stroke:#181818;stroke-width:1.0;"/></g><!--reverse link EstrategiaTrayecto to EstrategiaPorParadas--><g id="link_EstrategiaTrayecto_EstrategiaPorParadas"><path d="M874.6412,510.7134 C919.2312,554.4434 966.1,600.42 1008.4,641.9 " fill="none" id="EstrategiaTrayecto-backto-EstrategiaPorParadas" style="stroke:#181818;stroke-width:1.0;"/><polygon fill="none" points="861.79,498.11,870.4401,514.9971,878.8424,506.4296,861.79,498.11" style="stroke:#181818;stroke-width:1.0;"/></g><!--link EstrategiaPorParadas to IEstimadorDemoras--><g id="link_EstrategiaPorParadas_IEstimadorDemoras"><path codeLine="82" d="M1025.49,746.17 C1002.4,779.91 976.2375,818.1477 956.2775,847.3277 " fill="none" id="EstrategiaPorParadas-to-IEstimadorDemoras" style="stroke:#181818;stroke-width:1.0;"/><polygon fill="#181818" points="952.89,852.28,961.2727,847.1099,955.7129,848.1531,954.6697,842.5933,952.89,852.28" style="stroke:#181818;stroke-width:1.0;"/></g><!--reverse link EstrategiaTrayecto to EstrategiaPuntoAPunto--><g id="link_EstrategiaTrayecto_EstrategiaPuntoAPunto"><path d="M800.5,516.11 C800.5,563.23 800.5,609.58 800.5,651.21 " fill="none" id="EstrategiaTrayecto-backto-EstrategiaPuntoAPunto" style="stroke:#181818;stroke-width:1.0;"/><polygon fill="none" points="800.5,498.11,794.5,516.11,806.5,516.11,800.5,498.11" style="stroke:#181818;stroke-width:1.0;"/></g><!--link EstrategiaPuntoAPunto to IEstimadorDemoras--><g id="link_EstrategiaPuntoAPunto_IEstimadorDemoras"><path codeLine="88" d="M829.03,736.7 C852.8,771.43 882.7917,815.2783 904.6817,847.2683 " fill="none" id="EstrategiaPuntoAPunto-to-IEstimadorDemoras" style="stroke:#181818;stroke-width:1.0;"/><polygon fill="#181818" points="908.07,852.22,906.2886,842.5336,905.2464,848.0936,899.6864,847.0513,908.07,852.22" style="stroke:#181818;stroke-width:1.0;"/></g><!--reverse link IEstimadorDemoras to DefaultEstimadorDemoras--><g id="link_IEstimadorDemoras_DefaultEstimadorDemoras"><path d="M930.5,937.78 C930.5,960.16 930.5,972.25 930.5,997.76 " fill="none" id="IEstimadorDemoras-backto-DefaultEstimadorDemoras" style="stroke:#181818;stroke-width:1.0;stroke-dasharray:7.0,7.0;"/><polygon fill="none" points="930.5,919.78,924.5,937.78,936.5,937.78,930.5,919.78" style="stroke:#181818;stroke-width:1.0;"/></g><!--link DefaultEstimadorDemoras to DistanceMatrixAPI--><g id="link_DefaultEstimadorDemoras_DistanceMatrixAPI"><path codeLine="101" d="M930.5,1102.4 C930.5,1122.19 930.5,1138.22 930.5,1155.77 " fill="none" id="DefaultEstimadorDemoras-to-DistanceMatrixAPI" style="stroke:#181818;stroke-width:1.0;stroke-dasharray:7.0,7.0;"/><polygon fill="#181818" points="930.5,1161.77,934.5,1152.77,930.5,1156.77,926.5,1152.77,930.5,1161.77" style="stroke:#181818;stroke-width:1.0;"/></g><!--link Persona to Inbox--><g id="link_Persona_Inbox"><path codeLine="114" d="M353.22,554.31 C352.69,581.5 352.3743,597.3723 351.9143,620.9323 " fill="none" id="Persona-to-Inbox" style="stroke:#181818;stroke-width:1.0;"/><polygon fill="#181818" points="351.68,632.93,355.7964,627.0092,351.9143,620.9323,347.7979,626.8531,351.68,632.93" style="stroke:#181818;stroke-width:1.0;"/></g><!--link Inbox to Notificacion--><g id="link_Inbox_Notificacion"><path codeLine="115" d="M350.5,755.12 C350.5,780.45 350.5,803.62 350.5,827.9 " fill="none" id="Inbox-to-Notificacion" style="stroke:#181818;stroke-width:1.0;"/><polygon fill="#181818" points="350.5,833.9,354.5,824.9,350.5,828.9,346.5,824.9,350.5,833.9" style="stroke:#181818;stroke-width:1.0;"/></g><!--reverse link IReaccionIncidente to alertarCuidadores--><g id="link_IReaccionIncidente_alertarCuidadores"><path d="M1726.7362,476.9773 C1814.7862,510.2773 1936.39,558.45 2052.5,614 C2081.92,628.08 2113.77,645.45 2139.92,660.31 " fill="none" id="IReaccionIncidente-backto-alertarCuidadores" style="stroke:#181818;stroke-width:1.0;stroke-dasharray:7.0,7.0;"/><polygon fill="none" points="1709.9,470.61,1724.6137,482.5894,1728.8586,471.3653,1709.9,470.61" style="stroke:#181818;stroke-width:1.0;"/></g><!--reverse link IReaccionIncidente to prorroga--><g id="link_IReaccionIncidente_prorroga"><path d="M1571.4052,482.5069 C1519.5752,528.5669 1438.28,600.79 1381.38,651.35 " fill="none" id="IReaccionIncidente-backto-prorroga" style="stroke:#181818;stroke-width:1.0;stroke-dasharray:7.0,7.0;"/><polygon fill="none" points="1584.86,470.55,1567.4196,478.022,1575.3908,486.9919,1584.86,470.55" style="stroke:#181818;stroke-width:1.0;"/></g><!--reverse link IReaccionIncidente to llamarPolicia--><g id="link_IReaccionIncidente_llamarPolicia"><path d="M1671.5948,482.5069 C1723.4248,528.5669 1804.72,600.79 1861.62,651.35 " fill="none" id="IReaccionIncidente-backto-llamarPolicia" style="stroke:#181818;stroke-width:1.0;stroke-dasharray:7.0,7.0;"/><polygon fill="none" points="1658.14,470.55,1667.6092,486.9919,1675.5804,478.022,1658.14,470.55" style="stroke:#181818;stroke-width:1.0;"/></g><!--link llamarPolicia to LlamadorTelefonico--><g id="link_llamarPolicia_LlamadorTelefonico"><path codeLine="140" d="M1876.9,736.7 C1850.57,771.43 1817.2146,815.4485 1792.9646,847.4385 " fill="none" id="llamarPolicia-to-LlamadorTelefonico" style="stroke:#181818;stroke-width:1.0;"/><polygon fill="#181818" points="1789.34,852.22,1797.9645,847.4642,1792.3605,848.2354,1791.5892,842.6314,1789.34,852.22" style="stroke:#181818;stroke-width:1.0;"/></g><!--reverse link IReaccionIncidente to llamarUsuario--><g id="link_IReaccionIncidente_llamarUsuario"><path d="M1621.5,488.55 C1621.5,534.61 1621.5,600.79 1621.5,651.35 " fill="none" id="IReaccionIncidente-backto-llamarUsuario" style="stroke:#181818;stroke-width:1.0;stroke-dasharray:7.0,7.0;"/><polygon fill="none" points="1621.5,470.55,1615.5,488.55,1627.5,488.55,1621.5,470.55" style="stroke:#181818;stroke-width:1.0;"/></g><!--link llamarUsuario to LlamadorTelefonico--><g id="link_llamarUsuario_LlamadorTelefonico"><path codeLine="146" d="M1652.88,736.7 C1679.03,771.43 1712.1416,815.4363 1736.2216,847.4263 " fill="none" id="llamarUsuario-to-LlamadorTelefonico" style="stroke:#181818;stroke-width:1.0;"/><polygon fill="#181818" points="1739.83,852.22,1737.6132,842.6239,1736.823,848.2253,1731.2216,847.435,1739.83,852.22" style="stroke:#181818;stroke-width:1.0;"/></g><!--SRC=[hPPVZ-8W4C3V-odwTkuVzmEOYucdNj94RREw-xh1TZHS40nGuzt5xtu3BPHgNNSl-zB23Cpy68Q1d16buWoa4fp4VwE7c8lTMi8WNcf9-HO5P0-CqK9uKJykg8Gyfu8FuebheXWAKWnYoZMs5HpD3FnYfrGbaHJxBrK3HPIlnN4G9-PdlMgweJcHlHrmHNvvWBj1V12qm26ACk0v9TBEwJKAacjwE1UV8hUeVdyOK8PIHnC1BtUM5ICm7ot7BxDaaKO_f_FfmZJIrNEA1ks0Vl_UXIkASXkzsamGlHUtNXz4JVVONU7NESK5WJQ2NY1jw2kcG8NcH-DLyff6sMXfVgSer1eklvwAoo_QakM4iTQsCbrAOdP0Ouy9r5ExVtx4daWTxZjAf3XGimU1B1S5tOfCA4sO5vySmqgItv3hAZXQ4gwWv1evN0nD62mag44yeqf_NrRzeR5T6YGXlQwUPNGII3qlGQ82h5KxA7ckLLvXneD2zngs1dxgsuulJC6nztez6SbMmhOPsgl1cW6vmBb_C9-3EGTo9jbGZb4_6wNA7PKUlUS8czJmCJKvN4UhBNJ1RGalmzBMTmIbtiHba4QwrWtY87H2qYsqYi53N630AHUXq1oXobBxJ4PaRNpdkeFXga_CrxnaH4vW9oG9mqHjHf_fQyzUVJlCzU8Rf4p8Z4XI41N3KGClL0Ul3L9XVJRZluof4yPkBchepgHYPLjruEF14oFxlSN_bPo1rokWtt0LUmqoGkiWDoI7or4M2wpGKVdyUMnIwQwgPwV6w5ZmN08YkA886r8oVM6VxlOCyCXgrUcy7u_JnNBrzZgTfUDaCfgyPTFHAbrCbvL7SoTY1JIrSPGb9kbj3-O42ySHHP_3lqRvz3JiC5ql5Z- -yfyDQU-g8vs3ba9T8ob4kMRG70HxlzfGxAloqXJnlY-UhKg-28H3yoQeRt1pf_mGWhrxxxTkyFlweL0nc3mARJl2K7ODrBkPLmtpRE47P28rqoaeHvSbqmRINJr8VLcQBWe8OI1rUAkqSgtBG_-J7l1Qbb9ioKt33_6Eyb8BvPBsStuO8vY_cM0KD_43gwYEpE9bFdrEtx9qbeoJaNiVVj1pswNP-9cHO1nNm60ZECr56yyzY6xZwSg2-2-avjtr7jAb1ZrN1dhulWDPEN-ChpmqJj4_]--></g></svg>