<?xml version="1.0" encoding="us-ascii" standalone="no"?><svg xmlns="http://www.w3.org/2000/svg" xmlns:xlink="http://www.w3.org/1999/xlink" contentStyleType="text/css" height="944px" preserveAspectRatio="none" style="width:2124px;height:944px;background:#FFFFFF;" version="1.1" viewBox="0 0 2124 944" width="2124px" zoomAndPan="magnify"><defs/><g><!--class Persona--><g id="elem_Persona"><rect codeLine="2" fill="#F1F1F1" height="234.2109" id="Persona" rx="2.5" ry="2.5" style="stroke:#181818;stroke-width:0.5;" width="218" x="273.5" y="320"/><ellipse cx="351.75" cy="336" fill="#ADD1B2" rx="11" ry="11" style="stroke:#181818;stroke-width:1.0;"/><path d="M354.5156,331.875 Q354.6719,331.6563 354.8594,331.5469 Q355.0469,331.4375 355.2656,331.4375 Q355.6406,331.4375 355.875,331.7031 Q356.1094,331.9531 356.1094,332.5625 L356.1094,334.0156 Q356.1094,334.625 355.875,334.8906 Q355.6406,335.1563 355.2656,335.1563 Q354.9219,335.1563 354.7188,334.9531 Q354.5156,334.7656 354.4063,334.25 Q354.3594,333.8906 354.1719,333.7031 Q353.8438,333.3281 353.2344,333.1094 Q352.625,332.8906 352,332.8906 Q351.2344,332.8906 350.5938,333.2188 Q349.9688,333.5469 349.4688,334.2969 Q348.9844,335.0469 348.9844,336.0781 L348.9844,337.1719 Q348.9844,338.4063 349.875,339.2344 Q350.7656,340.0469 352.3594,340.0469 Q353.2969,340.0469 353.9531,339.7969 Q354.3438,339.6406 354.7656,339.2031 Q355.0313,338.9375 355.1719,338.8594 Q355.3281,338.7813 355.5313,338.7813 Q355.8594,338.7813 356.1094,339.0469 Q356.375,339.2969 356.375,339.6406 Q356.375,339.9844 356.0313,340.3906 Q355.5313,340.9688 354.7344,341.2969 Q353.6563,341.75 352.3594,341.75 Q350.8438,341.75 349.6406,341.125 Q348.6563,340.625 347.9688,339.5625 Q347.2813,338.4844 347.2813,337.2031 L347.2813,336.0469 Q347.2813,334.7188 347.8906,333.5781 Q348.5156,332.4219 349.6094,331.8125 Q350.7031,331.1875 351.9375,331.1875 Q352.6719,331.1875 353.3125,331.3594 Q353.9688,331.5156 354.5156,331.875 Z " fill="#000000"/><text fill="#000000" font-family="sans-serif" font-size="14" lengthAdjust="spacing" textLength="53" x="372.25" y="341.7969">Persona</text><line style="stroke:#181818;stroke-width:0.5;" x1="274.5" x2="490.5" y1="352" y2="352"/><ellipse cx="284.5" cy="366.8105" fill="none" rx="3" ry="3" style="stroke:#038048;stroke-width:1.0;"/><text fill="#000000" font-family="sans-serif" font-size="14" lengthAdjust="spacing" textLength="93" x="293.5" y="371.1074">nombre: String</text><ellipse cx="284.5" cy="385.4316" fill="none" rx="3" ry="3" style="stroke:#038048;stroke-width:1.0;"/><text fill="#000000" font-family="sans-serif" font-size="14" lengthAdjust="spacing" textLength="94" x="293.5" y="389.7285">apellido: String</text><rect fill="none" height="6" style="stroke:#C82930;stroke-width:1.0;" width="6" x="281.5" y="401.0527"/><text fill="#000000" font-family="sans-serif" font-size="14" lengthAdjust="spacing" textLength="124" x="293.5" y="408.3496">direccion: Direccion</text><rect fill="none" height="6" style="stroke:#C82930;stroke-width:1.0;" width="6" x="281.5" y="419.6738"/><text fill="#000000" font-family="sans-serif" font-size="14" lengthAdjust="spacing" textLength="55" x="293.5" y="426.9707">edad: int</text><rect fill="none" height="6" style="stroke:#C82930;stroke-width:1.0;" width="6" x="281.5" y="438.2949"/><text fill="#000000" font-family="sans-serif" font-size="14" lengthAdjust="spacing" textLength="68" x="293.5" y="445.5918">sexo: Sexo</text><rect fill="none" height="6" style="stroke:#C82930;stroke-width:1.0;" width="6" x="281.5" y="456.916"/><text fill="#000000" font-family="sans-serif" font-size="14" lengthAdjust="spacing" textLength="103" x="293.5" y="464.2129">usuario: Usuario</text><rect fill="none" height="6" style="stroke:#C82930;stroke-width:1.0;" width="6" x="281.5" y="475.5371"/><text fill="#000000" font-family="sans-serif" font-size="14" lengthAdjust="spacing" textLength="74" x="293.5" y="482.834">inbox: Inbox</text><line style="stroke:#181818;stroke-width:0.5;" x1="274.5" x2="490.5" y1="490.3477" y2="490.3477"/><ellipse cx="284.5" cy="505.1582" fill="#84BE84" rx="3" ry="3" style="stroke:#038048;stroke-width:1.0;"/><text fill="#000000" font-family="sans-serif" font-size="14" lengthAdjust="spacing" textLength="192" x="293.5" y="509.4551">notificar(mensaje: String): void</text><ellipse cx="284.5" cy="523.7793" fill="#84BE84" rx="3" ry="3" style="stroke:#038048;stroke-width:1.0;"/><text fill="#000000" font-family="sans-serif" font-size="14" lengthAdjust="spacing" textLength="129" x="293.5" y="528.0762">silenciarInbox(): void</text><ellipse cx="284.5" cy="542.4004" fill="#84BE84" rx="3" ry="3" style="stroke:#038048;stroke-width:1.0;"/><text fill="#000000" font-family="sans-serif" font-size="14" lengthAdjust="spacing" textLength="119" x="293.5" y="546.6973">activarInbox(): void</text></g><!--class Direccion--><g id="elem_Direccion"><rect codeLine="36" fill="#F1F1F1" height="159.7266" id="Direccion" rx="2.5" ry="2.5" style="stroke:#181818;stroke-width:0.5;" width="152" x="500.5" y="614"/><ellipse cx="542.95" cy="630" fill="#ADD1B2" rx="11" ry="11" style="stroke:#181818;stroke-width:1.0;"/><path d="M545.7156,625.875 Q545.8719,625.6563 546.0594,625.5469 Q546.2469,625.4375 546.4656,625.4375 Q546.8406,625.4375 547.075,625.7031 Q547.3094,625.9531 547.3094,626.5625 L547.3094,628.0156 Q547.3094,628.625 547.075,628.8906 Q546.8406,629.1563 546.4656,629.1563 Q546.1219,629.1563 545.9188,628.9531 Q545.7156,628.7656 545.6063,628.25 Q545.5594,627.8906 545.3719,627.7031 Q545.0438,627.3281 544.4344,627.1094 Q543.825,626.8906 543.2,626.8906 Q542.4344,626.8906 541.7938,627.2188 Q541.1688,627.5469 540.6688,628.2969 Q540.1844,629.0469 540.1844,630.0781 L540.1844,631.1719 Q540.1844,632.4063 541.075,633.2344 Q541.9656,634.0469 543.5594,634.0469 Q544.4969,634.0469 545.1531,633.7969 Q545.5438,633.6406 545.9656,633.2031 Q546.2313,632.9375 546.3719,632.8594 Q546.5281,632.7813 546.7313,632.7813 Q547.0594,632.7813 547.3094,633.0469 Q547.575,633.2969 547.575,633.6406 Q547.575,633.9844 547.2313,634.3906 Q546.7313,634.9688 545.9344,635.2969 Q544.8563,635.75 543.5594,635.75 Q542.0438,635.75 540.8406,635.125 Q539.8563,634.625 539.1688,633.5625 Q538.4813,632.4844 538.4813,631.2031 L538.4813,630.0469 Q538.4813,628.7188 539.0906,627.5781 Q539.7156,626.4219 540.8094,625.8125 Q541.9031,625.1875 543.1375,625.1875 Q543.8719,625.1875 544.5125,625.3594 Q545.1688,625.5156 545.7156,625.875 Z " fill="#000000"/><text fill="#000000" font-family="sans-serif" font-size="14" lengthAdjust="spacing" textLength="59" x="563.05" y="635.7969">Direccion</text><line style="stroke:#181818;stroke-width:0.5;" x1="501.5" x2="651.5" y1="646" y2="646"/><ellipse cx="511.5" cy="660.8105" fill="none" rx="3" ry="3" style="stroke:#038048;stroke-width:1.0;"/><text fill="#000000" font-family="sans-serif" font-size="14" lengthAdjust="spacing" textLength="74" x="520.5" y="665.1074">calle: String</text><ellipse cx="511.5" cy="679.4316" fill="none" rx="3" ry="3" style="stroke:#038048;stroke-width:1.0;"/><text fill="#000000" font-family="sans-serif" font-size="14" lengthAdjust="spacing" textLength="59" x="520.5" y="683.7285">altura: Int</text><ellipse cx="511.5" cy="698.0527" fill="none" rx="3" ry="3" style="stroke:#038048;stroke-width:1.0;"/><text fill="#000000" font-family="sans-serif" font-size="14" lengthAdjust="spacing" textLength="101" x="520.5" y="702.3496">localidad: String</text><ellipse cx="511.5" cy="716.6738" fill="none" rx="3" ry="3" style="stroke:#038048;stroke-width:1.0;"/><text fill="#000000" font-family="sans-serif" font-size="14" lengthAdjust="spacing" textLength="89" x="520.5" y="720.9707">partido: String</text><ellipse cx="511.5" cy="735.2949" fill="none" rx="3" ry="3" style="stroke:#038048;stroke-width:1.0;"/><text fill="#000000" font-family="sans-serif" font-size="14" lengthAdjust="spacing" textLength="102" x="520.5" y="739.5918">provincia: String</text><ellipse cx="511.5" cy="753.916" fill="none" rx="3" ry="3" style="stroke:#038048;stroke-width:1.0;"/><text fill="#000000" font-family="sans-serif" font-size="14" lengthAdjust="spacing" textLength="126" x="520.5" y="758.2129">codigoPostal: String</text><line style="stroke:#181818;stroke-width:0.5;" x1="501.5" x2="651.5" y1="765.7266" y2="765.7266"/></g><!--class Usuario--><g id="elem_Usuario"><rect codeLine="24" fill="#F1F1F1" height="103.8633" id="Usuario" rx="2.5" ry="2.5" style="stroke:#181818;stroke-width:0.5;" width="193" x="7" y="642"/><ellipse cx="75.25" cy="658" fill="#ADD1B2" rx="11" ry="11" style="stroke:#181818;stroke-width:1.0;"/><path d="M78.0156,653.875 Q78.1719,653.6563 78.3594,653.5469 Q78.5469,653.4375 78.7656,653.4375 Q79.1406,653.4375 79.375,653.7031 Q79.6094,653.9531 79.6094,654.5625 L79.6094,656.0156 Q79.6094,656.625 79.375,656.8906 Q79.1406,657.1563 78.7656,657.1563 Q78.4219,657.1563 78.2188,656.9531 Q78.0156,656.7656 77.9063,656.25 Q77.8594,655.8906 77.6719,655.7031 Q77.3438,655.3281 76.7344,655.1094 Q76.125,654.8906 75.5,654.8906 Q74.7344,654.8906 74.0938,655.2188 Q73.4688,655.5469 72.9688,656.2969 Q72.4844,657.0469 72.4844,658.0781 L72.4844,659.1719 Q72.4844,660.4063 73.375,661.2344 Q74.2656,662.0469 75.8594,662.0469 Q76.7969,662.0469 77.4531,661.7969 Q77.8438,661.6406 78.2656,661.2031 Q78.5313,660.9375 78.6719,660.8594 Q78.8281,660.7813 79.0313,660.7813 Q79.3594,660.7813 79.6094,661.0469 Q79.875,661.2969 79.875,661.6406 Q79.875,661.9844 79.5313,662.3906 Q79.0313,662.9688 78.2344,663.2969 Q77.1563,663.75 75.8594,663.75 Q74.3438,663.75 73.1406,663.125 Q72.1563,662.625 71.4688,661.5625 Q70.7813,660.4844 70.7813,659.2031 L70.7813,658.0469 Q70.7813,656.7188 71.3906,655.5781 Q72.0156,654.4219 73.1094,653.8125 Q74.2031,653.1875 75.4375,653.1875 Q76.1719,653.1875 76.8125,653.3594 Q77.4688,653.5156 78.0156,653.875 Z " fill="#000000"/><text fill="#000000" font-family="sans-serif" font-size="14" lengthAdjust="spacing" textLength="48" x="95.75" y="663.7969">Usuario</text><line style="stroke:#181818;stroke-width:0.5;" x1="8" x2="199" y1="674" y2="674"/><ellipse cx="18" cy="688.8105" fill="none" rx="3" ry="3" style="stroke:#038048;stroke-width:1.0;"/><text fill="#000000" font-family="sans-serif" font-size="14" lengthAdjust="spacing" textLength="141" x="27" y="693.1074">nombreUsuario: String</text><ellipse cx="18" cy="707.4316" fill="none" rx="3" ry="3" style="stroke:#038048;stroke-width:1.0;"/><text fill="#000000" font-family="sans-serif" font-size="14" lengthAdjust="spacing" textLength="107" x="27" y="711.7285">tipo: TipoUsuario</text><line style="stroke:#181818;stroke-width:0.5;" x1="8" x2="199" y1="719.2422" y2="719.2422"/><ellipse cx="18" cy="734.0527" fill="#84BE84" rx="3" ry="3" style="stroke:#038048;stroke-width:1.0;"/><text fill="#000000" font-family="sans-serif" font-size="14" lengthAdjust="spacing" textLength="167" x="27" y="738.3496">setTipo(TipoUsuario): void</text></g><!--class Sexo--><g id="elem_Sexo"><rect codeLine="17" fill="#F1F1F1" height="103.8633" id="Sexo" rx="2.5" ry="2.5" style="stroke:#181818;stroke-width:0.5;" width="91" x="337" y="81.5"/><ellipse cx="364.6" cy="97.5" fill="#EB937F" rx="11" ry="11" style="stroke:#181818;stroke-width:1.0;"/><path d="M363.4594,98.2969 L363.4594,100.7969 L367.7875,100.7969 L367.7875,99.875 Q367.7875,99.2656 368.0219,99 Q368.2719,98.7344 368.6469,98.7344 Q369.0219,98.7344 369.2563,99 Q369.4906,99.2656 369.4906,99.875 L369.4906,102.5 L361.4906,102.5 Q360.8656,102.5 360.6,102.2656 Q360.35,102.0313 360.35,101.6406 Q360.35,101.2656 360.6156,101.0313 Q360.8813,100.7969 361.4906,100.7969 L361.7563,100.7969 L361.7563,94.1406 L361.4906,94.1406 Q360.8656,94.1406 360.6,93.9063 Q360.35,93.6719 360.35,93.2813 Q360.35,92.9063 360.6,92.6719 Q360.8656,92.4375 361.4906,92.4375 L369.1156,92.4375 L369.1156,95.0313 Q369.1156,95.6406 368.8813,95.9063 Q368.6625,96.1563 368.2719,96.1563 Q367.8969,96.1563 367.6625,95.9063 Q367.4281,95.6406 367.4281,95.0313 L367.4281,94.1406 L363.4594,94.1406 L363.4594,96.5938 L364.9438,96.5938 Q364.9438,95.9375 365.0688,95.75 Q365.3344,95.3438 365.8031,95.3438 Q366.1781,95.3438 366.4125,95.6094 Q366.6469,95.8594 366.6469,96.4688 L366.6469,98.4375 Q366.6469,98.9844 366.5219,99.1719 Q366.2563,99.5625 365.8031,99.5625 Q365.3344,99.5625 365.0688,99.1563 Q364.9438,98.9688 364.9438,98.2969 L363.4594,98.2969 Z " fill="#000000"/><text fill="#000000" font-family="sans-serif" font-size="14" lengthAdjust="spacing" textLength="31" x="381.4" y="103.2969">Sexo</text><line style="stroke:#181818;stroke-width:0.5;" x1="338" x2="427" y1="113.5" y2="113.5"/><text fill="#000000" font-family="sans-serif" font-size="14" lengthAdjust="spacing" textLength="79" x="343" y="132.6074">MASCULINO</text><text fill="#000000" font-family="sans-serif" font-size="14" lengthAdjust="spacing" textLength="70" x="343" y="151.2285">FEMENINO</text><text fill="#000000" font-family="sans-serif" font-size="14" lengthAdjust="spacing" textLength="41" x="343" y="169.8496">OTRO</text><line style="stroke:#181818;stroke-width:0.5;" x1="338" x2="427" y1="177.3633" y2="177.3633"/></g><!--class TipoUsuario--><g id="elem_TipoUsuario"><rect codeLine="30" fill="#F1F1F1" height="85.2422" id="TipoUsuario" rx="2.5" ry="2.5" style="stroke:#181818;stroke-width:0.5;" width="108" x="49.5" y="394.5"/><ellipse cx="64.5" cy="410.5" fill="#EB937F" rx="11" ry="11" style="stroke:#181818;stroke-width:1.0;"/><path d="M63.3594,411.2969 L63.3594,413.7969 L67.6875,413.7969 L67.6875,412.875 Q67.6875,412.2656 67.9219,412 Q68.1719,411.7344 68.5469,411.7344 Q68.9219,411.7344 69.1563,412 Q69.3906,412.2656 69.3906,412.875 L69.3906,415.5 L61.3906,415.5 Q60.7656,415.5 60.5,415.2656 Q60.25,415.0313 60.25,414.6406 Q60.25,414.2656 60.5156,414.0313 Q60.7813,413.7969 61.3906,413.7969 L61.6563,413.7969 L61.6563,407.1406 L61.3906,407.1406 Q60.7656,407.1406 60.5,406.9063 Q60.25,406.6719 60.25,406.2813 Q60.25,405.9063 60.5,405.6719 Q60.7656,405.4375 61.3906,405.4375 L69.0156,405.4375 L69.0156,408.0313 Q69.0156,408.6406 68.7813,408.9063 Q68.5625,409.1563 68.1719,409.1563 Q67.7969,409.1563 67.5625,408.9063 Q67.3281,408.6406 67.3281,408.0313 L67.3281,407.1406 L63.3594,407.1406 L63.3594,409.5938 L64.8438,409.5938 Q64.8438,408.9375 64.9688,408.75 Q65.2344,408.3438 65.7031,408.3438 Q66.0781,408.3438 66.3125,408.6094 Q66.5469,408.8594 66.5469,409.4688 L66.5469,411.4375 Q66.5469,411.9844 66.4219,412.1719 Q66.1563,412.5625 65.7031,412.5625 Q65.2344,412.5625 64.9688,412.1563 Q64.8438,411.9688 64.8438,411.2969 L63.3594,411.2969 Z " fill="#000000"/><text fill="#000000" font-family="sans-serif" font-size="14" lengthAdjust="spacing" textLength="76" x="78.5" y="416.2969">TipoUsuario</text><line style="stroke:#181818;stroke-width:0.5;" x1="50.5" x2="156.5" y1="426.5" y2="426.5"/><text fill="#000000" font-family="sans-serif" font-size="14" lengthAdjust="spacing" textLength="51" x="55.5" y="445.6074">ACTIVO</text><text fill="#000000" font-family="sans-serif" font-size="14" lengthAdjust="spacing" textLength="50" x="55.5" y="464.2285">PASIVO</text><line style="stroke:#181818;stroke-width:0.5;" x1="50.5" x2="156.5" y1="471.7422" y2="471.7422"/></g><!--class Trayecto--><g id="elem_Trayecto"><rect codeLine="45" fill="#F1F1F1" height="252.832" id="Trayecto" rx="2.5" ry="2.5" style="stroke:#181818;stroke-width:0.5;" width="317" x="582" y="7"/><ellipse cx="708.25" cy="23" fill="#ADD1B2" rx="11" ry="11" style="stroke:#181818;stroke-width:1.0;"/><path d="M711.0156,18.875 Q711.1719,18.6563 711.3594,18.5469 Q711.5469,18.4375 711.7656,18.4375 Q712.1406,18.4375 712.375,18.7031 Q712.6094,18.9531 712.6094,19.5625 L712.6094,21.0156 Q712.6094,21.625 712.375,21.8906 Q712.1406,22.1563 711.7656,22.1563 Q711.4219,22.1563 711.2188,21.9531 Q711.0156,21.7656 710.9063,21.25 Q710.8594,20.8906 710.6719,20.7031 Q710.3438,20.3281 709.7344,20.1094 Q709.125,19.8906 708.5,19.8906 Q707.7344,19.8906 707.0938,20.2188 Q706.4688,20.5469 705.9688,21.2969 Q705.4844,22.0469 705.4844,23.0781 L705.4844,24.1719 Q705.4844,25.4063 706.375,26.2344 Q707.2656,27.0469 708.8594,27.0469 Q709.7969,27.0469 710.4531,26.7969 Q710.8438,26.6406 711.2656,26.2031 Q711.5313,25.9375 711.6719,25.8594 Q711.8281,25.7813 712.0313,25.7813 Q712.3594,25.7813 712.6094,26.0469 Q712.875,26.2969 712.875,26.6406 Q712.875,26.9844 712.5313,27.3906 Q712.0313,27.9688 711.2344,28.2969 Q710.1563,28.75 708.8594,28.75 Q707.3438,28.75 706.1406,28.125 Q705.1563,27.625 704.4688,26.5625 Q703.7813,25.4844 703.7813,24.2031 L703.7813,23.0469 Q703.7813,21.7188 704.3906,20.5781 Q705.0156,19.4219 706.1094,18.8125 Q707.2031,18.1875 708.4375,18.1875 Q709.1719,18.1875 709.8125,18.3594 Q710.4688,18.5156 711.0156,18.875 Z " fill="#000000"/><text fill="#000000" font-family="sans-serif" font-size="14" lengthAdjust="spacing" textLength="56" x="728.75" y="28.7969">Trayecto</text><line style="stroke:#181818;stroke-width:0.5;" x1="583" x2="898" y1="39" y2="39"/><ellipse cx="593" cy="53.8105" fill="none" rx="3" ry="3" style="stroke:#038048;stroke-width:1.0;"/><text fill="#000000" font-family="sans-serif" font-size="14" lengthAdjust="spacing" textLength="129" x="602" y="58.1074">transeunte: Persona</text><ellipse cx="593" cy="72.4316" fill="none" rx="3" ry="3" style="stroke:#038048;stroke-width:1.0;"/><text fill="#000000" font-family="sans-serif" font-size="14" lengthAdjust="spacing" textLength="107" x="602" y="76.7285">origen: Direccion</text><ellipse cx="593" cy="91.0527" fill="none" rx="3" ry="3" style="stroke:#038048;stroke-width:1.0;"/><text fill="#000000" font-family="sans-serif" font-size="14" lengthAdjust="spacing" textLength="113" x="602" y="95.3496">destino: Direccion</text><ellipse cx="593" cy="109.6738" fill="none" rx="3" ry="3" style="stroke:#038048;stroke-width:1.0;"/><text fill="#000000" font-family="sans-serif" font-size="14" lengthAdjust="spacing" textLength="169" x="602" y="113.9707">cuidadores: List&lt;Persona&gt;</text><ellipse cx="593" cy="128.2949" fill="none" rx="3" ry="3" style="stroke:#038048;stroke-width:1.0;"/><text fill="#000000" font-family="sans-serif" font-size="14" lengthAdjust="spacing" textLength="291" x="602" y="132.5918">reaccionesIncidente: List&lt;IReaccionIncidente&gt;</text><rect fill="none" height="6" style="stroke:#C82930;stroke-width:1.0;" width="6" x="590" y="143.916"/><text fill="#000000" font-family="sans-serif" font-size="14" lengthAdjust="spacing" textLength="129" x="602" y="151.2129">demoraEstimada: Int</text><line style="stroke:#181818;stroke-width:0.5;" x1="583" x2="898" y1="158.7266" y2="158.7266"/><ellipse cx="593" cy="173.5371" fill="#84BE84" rx="3" ry="3" style="stroke:#038048;stroke-width:1.0;"/><text fill="#000000" font-family="sans-serif" font-size="14" lengthAdjust="spacing" textLength="265" x="602" y="177.834">notificarCuidadores(mensaje: String): void</text><ellipse cx="593" cy="192.1582" fill="#84BE84" rx="3" ry="3" style="stroke:#038048;stroke-width:1.0;"/><text fill="#000000" font-family="sans-serif" font-size="14" lengthAdjust="spacing" textLength="205" x="602" y="196.4551">agregarCuidador(Persona): void</text><ellipse cx="593" cy="210.7793" fill="#84BE84" rx="3" ry="3" style="stroke:#038048;stroke-width:1.0;"/><text fill="#000000" font-family="sans-serif" font-size="14" lengthAdjust="spacing" textLength="105" x="602" y="215.0762">comenzar(): void</text><ellipse cx="593" cy="229.4004" fill="#84BE84" rx="3" ry="3" style="stroke:#038048;stroke-width:1.0;"/><text fill="#000000" font-family="sans-serif" font-size="14" lengthAdjust="spacing" textLength="92" x="602" y="233.6973">finalizar(): void</text><rect fill="#F24D5C" height="6" style="stroke:#C82930;stroke-width:1.0;" width="6" x="590" y="245.0215"/><text fill="#000000" font-family="sans-serif" font-size="14" lengthAdjust="spacing" textLength="143" x="602" y="252.3184">asumirIncidente(): void</text></g><!--class IReaccionIncidente--><g id="elem_IReaccionIncidente"><rect codeLine="96" fill="#F1F1F1" height="66.6211" id="IReaccionIncidente" rx="2.5" ry="2.5" style="stroke:#181818;stroke-width:0.5;" width="252" x="1291.5" y="403.5"/><ellipse cx="1352.75" cy="419.5" fill="#A9DCDF" rx="11" ry="11" style="stroke:#181818;stroke-width:1.0;"/><path d="M1354.9375,421.2656 L1350.7969,421.2656 L1350.375,422.2969 L1350.7969,422.2969 Q1351.4063,422.2969 1351.6719,422.5313 Q1351.9375,422.7656 1351.9375,423.1563 Q1351.9375,423.5313 1351.6719,423.7656 Q1351.4063,424 1350.7969,424 L1348.5,424 Q1347.8906,424 1347.6406,423.7656 Q1347.375,423.5313 1347.375,423.1406 Q1347.375,422.7656 1347.6563,422.5313 Q1347.9219,422.2813 1348.5469,422.2969 L1351.2188,415.6406 L1350.1094,415.6406 Q1349.5,415.6406 1349.2344,415.4063 Q1348.9688,415.1719 1348.9688,414.7813 Q1348.9688,414.4063 1349.2344,414.1719 Q1349.5,413.9375 1350.1094,413.9375 L1353.7813,413.9375 L1357.1719,422.2969 Q1357.7656,422.2969 1357.9531,422.4375 Q1358.3438,422.7031 1358.3438,423.1563 Q1358.3438,423.5313 1358.0781,423.7656 Q1357.8281,424 1357.2188,424 L1354.9219,424 Q1354.3125,424 1354.0469,423.7656 Q1353.7813,423.5313 1353.7813,423.1406 Q1353.7813,422.7656 1354.0469,422.5313 Q1354.3125,422.2969 1354.9219,422.2969 L1355.3438,422.2969 L1354.9375,421.2656 Z M1354.2188,419.5625 L1352.8594,416.1875 L1351.4844,419.5625 L1354.2188,419.5625 Z " fill="#000000"/><text fill="#000000" font-family="sans-serif" font-size="14" font-style="italic" lengthAdjust="spacing" textLength="121" x="1373.25" y="425.2969">IReaccionIncidente</text><line style="stroke:#181818;stroke-width:0.5;" x1="1292.5" x2="1542.5" y1="435.5" y2="435.5"/><line style="stroke:#181818;stroke-width:0.5;" x1="1292.5" x2="1542.5" y1="443.5" y2="443.5"/><ellipse cx="1302.5" cy="458.3105" fill="#84BE84" rx="3" ry="3" style="stroke:#038048;stroke-width:1.0;"/><text fill="#000000" font-family="sans-serif" font-size="14" lengthAdjust="spacing" textLength="226" x="1311.5" y="462.6074">reaccionar(trayecto: Trayecto): void</text></g><!--class IEstimadorDemoras--><g id="elem_IEstimadorDemoras"><rect codeLine="64" fill="#F1F1F1" height="66.6211" id="IEstimadorDemoras" rx="2.5" ry="2.5" style="stroke:#181818;stroke-width:0.5;" width="281" x="674" y="403.5"/><ellipse cx="748.25" cy="419.5" fill="#B4A7E5" rx="11" ry="11" style="stroke:#181818;stroke-width:1.0;"/><path d="M749.2031,416.1406 L749.2031,422.7969 L750.9219,422.7969 Q751.5313,422.7969 751.7969,423.0313 Q752.0625,423.2656 752.0625,423.6563 Q752.0625,424.0313 751.7969,424.2656 Q751.5313,424.5 750.9219,424.5 L745.7813,424.5 Q745.1719,424.5 744.9063,424.2656 Q744.6406,424.0313 744.6406,423.6406 Q744.6406,423.2656 744.9063,423.0313 Q745.1719,422.7969 745.7813,422.7969 L747.5,422.7969 L747.5,416.1406 L745.7813,416.1406 Q745.1719,416.1406 744.9063,415.9063 Q744.6406,415.6719 744.6406,415.2813 Q744.6406,414.9063 744.9063,414.6719 Q745.1719,414.4375 745.7813,414.4375 L750.9219,414.4375 Q751.5313,414.4375 751.7969,414.6719 Q752.0625,414.9063 752.0625,415.2813 Q752.0625,415.6719 751.7969,415.9063 Q751.5313,416.1406 750.9219,416.1406 L749.2031,416.1406 Z " fill="#000000"/><text fill="#000000" font-family="sans-serif" font-size="14" font-style="italic" lengthAdjust="spacing" textLength="124" x="768.75" y="425.2969">IEstimadorDemoras</text><line style="stroke:#181818;stroke-width:0.5;" x1="675" x2="954" y1="435.5" y2="435.5"/><line style="stroke:#181818;stroke-width:0.5;" x1="675" x2="954" y1="443.5" y2="443.5"/><ellipse cx="685" cy="458.3105" fill="#84BE84" rx="3" ry="3" style="stroke:#038048;stroke-width:1.0;"/><text fill="#000000" font-family="sans-serif" font-size="14" lengthAdjust="spacing" textLength="255" x="694" y="462.6074">estimarDemora(Direccion, Direccion): Int</text></g><!--class DefaultEstimadorDemoras--><g id="elem_DefaultEstimadorDemoras"><rect codeLine="69" fill="#F1F1F1" height="103.8633" id="DefaultEstimadorDemoras" rx="2.5" ry="2.5" style="stroke:#181818;stroke-width:0.5;" width="281" x="688" y="642"/><ellipse cx="741.75" cy="658" fill="#ADD1B2" rx="11" ry="11" style="stroke:#181818;stroke-width:1.0;"/><path d="M744.5156,653.875 Q744.6719,653.6563 744.8594,653.5469 Q745.0469,653.4375 745.2656,653.4375 Q745.6406,653.4375 745.875,653.7031 Q746.1094,653.9531 746.1094,654.5625 L746.1094,656.0156 Q746.1094,656.625 745.875,656.8906 Q745.6406,657.1563 745.2656,657.1563 Q744.9219,657.1563 744.7188,656.9531 Q744.5156,656.7656 744.4063,656.25 Q744.3594,655.8906 744.1719,655.7031 Q743.8438,655.3281 743.2344,655.1094 Q742.625,654.8906 742,654.8906 Q741.2344,654.8906 740.5938,655.2188 Q739.9688,655.5469 739.4688,656.2969 Q738.9844,657.0469 738.9844,658.0781 L738.9844,659.1719 Q738.9844,660.4063 739.875,661.2344 Q740.7656,662.0469 742.3594,662.0469 Q743.2969,662.0469 743.9531,661.7969 Q744.3438,661.6406 744.7656,661.2031 Q745.0313,660.9375 745.1719,660.8594 Q745.3281,660.7813 745.5313,660.7813 Q745.8594,660.7813 746.1094,661.0469 Q746.375,661.2969 746.375,661.6406 Q746.375,661.9844 746.0313,662.3906 Q745.5313,662.9688 744.7344,663.2969 Q743.6563,663.75 742.3594,663.75 Q740.8438,663.75 739.6406,663.125 Q738.6563,662.625 737.9688,661.5625 Q737.2813,660.4844 737.2813,659.2031 L737.2813,658.0469 Q737.2813,656.7188 737.8906,655.5781 Q738.5156,654.4219 739.6094,653.8125 Q740.7031,653.1875 741.9375,653.1875 Q742.6719,653.1875 743.3125,653.3594 Q743.9688,653.5156 744.5156,653.875 Z " fill="#000000"/><text fill="#000000" font-family="sans-serif" font-size="14" lengthAdjust="spacing" textLength="165" x="762.25" y="663.7969">DefaultEstimadorDemoras</text><line style="stroke:#181818;stroke-width:0.5;" x1="689" x2="968" y1="674" y2="674"/><rect fill="none" height="6" style="stroke:#C82930;stroke-width:1.0;" width="6" x="696" y="685.8105"/><text fill="#000000" font-family="sans-serif" font-size="14" lengthAdjust="spacing" textLength="240" x="708" y="693.1074">CONST_VELOCIDAD_PEATONES: Int</text><rect fill="none" height="6" style="stroke:#C82930;stroke-width:1.0;" width="6" x="696" y="704.4316"/><text fill="#000000" font-family="sans-serif" font-size="14" lengthAdjust="spacing" textLength="198" x="708" y="711.7285">distanciaAPI: DistanceMatrixAPI</text><line style="stroke:#181818;stroke-width:0.5;" x1="689" x2="968" y1="719.2422" y2="719.2422"/><ellipse cx="699" cy="734.0527" fill="#84BE84" rx="3" ry="3" style="stroke:#038048;stroke-width:1.0;"/><text fill="#000000" font-family="sans-serif" font-size="14" lengthAdjust="spacing" textLength="255" x="708" y="738.3496">estimarDemora(Direccion, Direccion): Int</text></g><!--class DistanceMatrixAPI--><g id="elem_DistanceMatrixAPI"><rect codeLine="77" fill="#F1F1F1" height="66.6211" id="DistanceMatrixAPI" rx="2.5" ry="2.5" style="stroke:#181818;stroke-width:0.5;" width="363" x="647" y="852.5"/><ellipse cx="767.75" cy="868.5" fill="#ADD1B2" rx="11" ry="11" style="stroke:#181818;stroke-width:1.0;"/><path d="M770.5156,864.375 Q770.6719,864.1563 770.8594,864.0469 Q771.0469,863.9375 771.2656,863.9375 Q771.6406,863.9375 771.875,864.2031 Q772.1094,864.4531 772.1094,865.0625 L772.1094,866.5156 Q772.1094,867.125 771.875,867.3906 Q771.6406,867.6563 771.2656,867.6563 Q770.9219,867.6563 770.7188,867.4531 Q770.5156,867.2656 770.4063,866.75 Q770.3594,866.3906 770.1719,866.2031 Q769.8438,865.8281 769.2344,865.6094 Q768.625,865.3906 768,865.3906 Q767.2344,865.3906 766.5938,865.7188 Q765.9688,866.0469 765.4688,866.7969 Q764.9844,867.5469 764.9844,868.5781 L764.9844,869.6719 Q764.9844,870.9063 765.875,871.7344 Q766.7656,872.5469 768.3594,872.5469 Q769.2969,872.5469 769.9531,872.2969 Q770.3438,872.1406 770.7656,871.7031 Q771.0313,871.4375 771.1719,871.3594 Q771.3281,871.2813 771.5313,871.2813 Q771.8594,871.2813 772.1094,871.5469 Q772.375,871.7969 772.375,872.1406 Q772.375,872.4844 772.0313,872.8906 Q771.5313,873.4688 770.7344,873.7969 Q769.6563,874.25 768.3594,874.25 Q766.8438,874.25 765.6406,873.625 Q764.6563,873.125 763.9688,872.0625 Q763.2813,870.9844 763.2813,869.7031 L763.2813,868.5469 Q763.2813,867.2188 763.8906,866.0781 Q764.5156,864.9219 765.6094,864.3125 Q766.7031,863.6875 767.9375,863.6875 Q768.6719,863.6875 769.3125,863.8594 Q769.9688,864.0156 770.5156,864.375 Z " fill="#000000"/><text fill="#000000" font-family="sans-serif" font-size="14" lengthAdjust="spacing" textLength="113" x="788.25" y="874.2969">DistanceMatrixAPI</text><line style="stroke:#181818;stroke-width:0.5;" x1="648" x2="1009" y1="884.5" y2="884.5"/><line style="stroke:#181818;stroke-width:0.5;" x1="648" x2="1009" y1="892.5" y2="892.5"/><ellipse cx="658" cy="907.3105" fill="#84BE84" rx="3" ry="3" style="stroke:#038048;stroke-width:1.0;"/><text fill="#000000" font-family="sans-serif" font-size="14" lengthAdjust="spacing" textLength="337" x="667" y="911.6074">calcularDistanciaMetros(Direccion, Direccion): double</text></g><!--class Inbox--><g id="elem_Inbox"><rect codeLine="81" fill="#F1F1F1" height="122.4844" id="Inbox" rx="2.5" ry="2.5" style="stroke:#181818;stroke-width:0.5;" width="230" x="235.5" y="633"/><ellipse cx="329.75" cy="649" fill="#ADD1B2" rx="11" ry="11" style="stroke:#181818;stroke-width:1.0;"/><path d="M332.5156,644.875 Q332.6719,644.6563 332.8594,644.5469 Q333.0469,644.4375 333.2656,644.4375 Q333.6406,644.4375 333.875,644.7031 Q334.1094,644.9531 334.1094,645.5625 L334.1094,647.0156 Q334.1094,647.625 333.875,647.8906 Q333.6406,648.1563 333.2656,648.1563 Q332.9219,648.1563 332.7188,647.9531 Q332.5156,647.7656 332.4063,647.25 Q332.3594,646.8906 332.1719,646.7031 Q331.8438,646.3281 331.2344,646.1094 Q330.625,645.8906 330,645.8906 Q329.2344,645.8906 328.5938,646.2188 Q327.9688,646.5469 327.4688,647.2969 Q326.9844,648.0469 326.9844,649.0781 L326.9844,650.1719 Q326.9844,651.4063 327.875,652.2344 Q328.7656,653.0469 330.3594,653.0469 Q331.2969,653.0469 331.9531,652.7969 Q332.3438,652.6406 332.7656,652.2031 Q333.0313,651.9375 333.1719,651.8594 Q333.3281,651.7813 333.5313,651.7813 Q333.8594,651.7813 334.1094,652.0469 Q334.375,652.2969 334.375,652.6406 Q334.375,652.9844 334.0313,653.3906 Q333.5313,653.9688 332.7344,654.2969 Q331.6563,654.75 330.3594,654.75 Q328.8438,654.75 327.6406,654.125 Q326.6563,653.625 325.9688,652.5625 Q325.2813,651.4844 325.2813,650.2031 L325.2813,649.0469 Q325.2813,647.7188 325.8906,646.5781 Q326.5156,645.4219 327.6094,644.8125 Q328.7031,644.1875 329.9375,644.1875 Q330.6719,644.1875 331.3125,644.3594 Q331.9688,644.5156 332.5156,644.875 Z " fill="#000000"/><text fill="#000000" font-family="sans-serif" font-size="14" lengthAdjust="spacing" textLength="33" x="350.25" y="654.7969">Inbox</text><line style="stroke:#181818;stroke-width:0.5;" x1="236.5" x2="464.5" y1="665" y2="665"/><rect fill="none" height="6" style="stroke:#C82930;stroke-width:1.0;" width="6" x="243.5" y="676.8105"/><text fill="#000000" font-family="sans-serif" font-size="14" lengthAdjust="spacing" textLength="113" x="255.5" y="684.1074">persona: Persona</text><rect fill="none" height="6" style="stroke:#C82930;stroke-width:1.0;" width="6" x="243.5" y="695.4316"/><text fill="#000000" font-family="sans-serif" font-size="14" lengthAdjust="spacing" textLength="204" x="255.5" y="702.7285">notificaciones: List&lt;Notificacion&gt;</text><rect fill="none" height="6" style="stroke:#C82930;stroke-width:1.0;" width="6" x="243.5" y="714.0527"/><text fill="#000000" font-family="sans-serif" font-size="14" lengthAdjust="spacing" textLength="99" x="255.5" y="721.3496">silenciado: Bool</text><line style="stroke:#181818;stroke-width:0.5;" x1="236.5" x2="464.5" y1="728.8633" y2="728.8633"/><ellipse cx="246.5" cy="743.6738" fill="#84BE84" rx="3" ry="3" style="stroke:#038048;stroke-width:1.0;"/><text fill="#000000" font-family="sans-serif" font-size="14" lengthAdjust="spacing" textLength="158" x="255.5" y="747.9707">notificar(mensaje: String)</text></g><!--class Notificacion--><g id="elem_Notificacion"><rect codeLine="90" fill="#F1F1F1" height="103.8633" id="Notificacion" rx="2.5" ry="2.5" style="stroke:#181818;stroke-width:0.5;" width="140" x="280.5" y="834"/><ellipse cx="311.7" cy="850" fill="#ADD1B2" rx="11" ry="11" style="stroke:#181818;stroke-width:1.0;"/><path d="M314.4656,845.875 Q314.6219,845.6563 314.8094,845.5469 Q314.9969,845.4375 315.2156,845.4375 Q315.5906,845.4375 315.825,845.7031 Q316.0594,845.9531 316.0594,846.5625 L316.0594,848.0156 Q316.0594,848.625 315.825,848.8906 Q315.5906,849.1563 315.2156,849.1563 Q314.8719,849.1563 314.6688,848.9531 Q314.4656,848.7656 314.3563,848.25 Q314.3094,847.8906 314.1219,847.7031 Q313.7938,847.3281 313.1844,847.1094 Q312.575,846.8906 311.95,846.8906 Q311.1844,846.8906 310.5438,847.2188 Q309.9188,847.5469 309.4188,848.2969 Q308.9344,849.0469 308.9344,850.0781 L308.9344,851.1719 Q308.9344,852.4063 309.825,853.2344 Q310.7156,854.0469 312.3094,854.0469 Q313.2469,854.0469 313.9031,853.7969 Q314.2938,853.6406 314.7156,853.2031 Q314.9813,852.9375 315.1219,852.8594 Q315.2781,852.7813 315.4813,852.7813 Q315.8094,852.7813 316.0594,853.0469 Q316.325,853.2969 316.325,853.6406 Q316.325,853.9844 315.9813,854.3906 Q315.4813,854.9688 314.6844,855.2969 Q313.6063,855.75 312.3094,855.75 Q310.7938,855.75 309.5906,855.125 Q308.6063,854.625 307.9188,853.5625 Q307.2313,852.4844 307.2313,851.2031 L307.2313,850.0469 Q307.2313,848.7188 307.8406,847.5781 Q308.4656,846.4219 309.5594,845.8125 Q310.6531,845.1875 311.8875,845.1875 Q312.6219,845.1875 313.2625,845.3594 Q313.9188,845.5156 314.4656,845.875 Z " fill="#000000"/><text fill="#000000" font-family="sans-serif" font-size="14" lengthAdjust="spacing" textLength="72" x="329.3" y="855.7969">Notificacion</text><line style="stroke:#181818;stroke-width:0.5;" x1="281.5" x2="419.5" y1="866" y2="866"/><rect fill="none" height="6" style="stroke:#C82930;stroke-width:1.0;" width="6" x="288.5" y="877.8105"/><text fill="#000000" font-family="sans-serif" font-size="14" lengthAdjust="spacing" textLength="113" x="300.5" y="885.1074">persona: Persona</text><rect fill="none" height="6" style="stroke:#C82930;stroke-width:1.0;" width="6" x="288.5" y="896.4316"/><text fill="#000000" font-family="sans-serif" font-size="14" lengthAdjust="spacing" textLength="114" x="300.5" y="903.7285">mensaje: Mensaje</text><rect fill="none" height="6" style="stroke:#C82930;stroke-width:1.0;" width="6" x="288.5" y="915.0527"/><text fill="#000000" font-family="sans-serif" font-size="14" lengthAdjust="spacing" textLength="86" x="300.5" y="922.3496">enviada: Bool</text><line style="stroke:#181818;stroke-width:0.5;" x1="281.5" x2="419.5" y1="929.8633" y2="929.8633"/></g><!--class alertarCuidadores--><g id="elem_alertarCuidadores"><rect codeLine="100" fill="#F1F1F1" height="66.6211" id="alertarCuidadores" rx="2.5" ry="2.5" style="stroke:#181818;stroke-width:0.5;" width="252" x="1004.5" y="660.5"/><ellipse cx="1069.25" cy="676.5" fill="#ADD1B2" rx="11" ry="11" style="stroke:#181818;stroke-width:1.0;"/><path d="M1072.0156,672.375 Q1072.1719,672.1563 1072.3594,672.0469 Q1072.5469,671.9375 1072.7656,671.9375 Q1073.1406,671.9375 1073.375,672.2031 Q1073.6094,672.4531 1073.6094,673.0625 L1073.6094,674.5156 Q1073.6094,675.125 1073.375,675.3906 Q1073.1406,675.6563 1072.7656,675.6563 Q1072.4219,675.6563 1072.2188,675.4531 Q1072.0156,675.2656 1071.9063,674.75 Q1071.8594,674.3906 1071.6719,674.2031 Q1071.3438,673.8281 1070.7344,673.6094 Q1070.125,673.3906 1069.5,673.3906 Q1068.7344,673.3906 1068.0938,673.7188 Q1067.4688,674.0469 1066.9688,674.7969 Q1066.4844,675.5469 1066.4844,676.5781 L1066.4844,677.6719 Q1066.4844,678.9063 1067.375,679.7344 Q1068.2656,680.5469 1069.8594,680.5469 Q1070.7969,680.5469 1071.4531,680.2969 Q1071.8438,680.1406 1072.2656,679.7031 Q1072.5313,679.4375 1072.6719,679.3594 Q1072.8281,679.2813 1073.0313,679.2813 Q1073.3594,679.2813 1073.6094,679.5469 Q1073.875,679.7969 1073.875,680.1406 Q1073.875,680.4844 1073.5313,680.8906 Q1073.0313,681.4688 1072.2344,681.7969 Q1071.1563,682.25 1069.8594,682.25 Q1068.3438,682.25 1067.1406,681.625 Q1066.1563,681.125 1065.4688,680.0625 Q1064.7813,678.9844 1064.7813,677.7031 L1064.7813,676.5469 Q1064.7813,675.2188 1065.3906,674.0781 Q1066.0156,672.9219 1067.1094,672.3125 Q1068.2031,671.6875 1069.4375,671.6875 Q1070.1719,671.6875 1070.8125,671.8594 Q1071.4688,672.0156 1072.0156,672.375 Z " fill="#000000"/><text fill="#000000" font-family="sans-serif" font-size="14" lengthAdjust="spacing" textLength="114" x="1089.75" y="682.2969">alertarCuidadores</text><line style="stroke:#181818;stroke-width:0.5;" x1="1005.5" x2="1255.5" y1="692.5" y2="692.5"/><line style="stroke:#181818;stroke-width:0.5;" x1="1005.5" x2="1255.5" y1="700.5" y2="700.5"/><rect fill="#F24D5C" height="6" style="stroke:#C82930;stroke-width:1.0;" width="6" x="1012.5" y="712.3105"/><text fill="#000000" font-family="sans-serif" font-size="14" lengthAdjust="spacing" textLength="226" x="1024.5" y="719.6074">reaccionar(trayecto: Trayecto): void</text></g><!--class prorroga--><g id="elem_prorroga"><rect codeLine="104" fill="#F1F1F1" height="85.2422" id="prorroga" rx="2.5" ry="2.5" style="stroke:#181818;stroke-width:0.5;" width="252" x="1291.5" y="651.5"/><ellipse cx="1385.75" cy="667.5" fill="#ADD1B2" rx="11" ry="11" style="stroke:#181818;stroke-width:1.0;"/><path d="M1388.5156,663.375 Q1388.6719,663.1563 1388.8594,663.0469 Q1389.0469,662.9375 1389.2656,662.9375 Q1389.6406,662.9375 1389.875,663.2031 Q1390.1094,663.4531 1390.1094,664.0625 L1390.1094,665.5156 Q1390.1094,666.125 1389.875,666.3906 Q1389.6406,666.6563 1389.2656,666.6563 Q1388.9219,666.6563 1388.7188,666.4531 Q1388.5156,666.2656 1388.4063,665.75 Q1388.3594,665.3906 1388.1719,665.2031 Q1387.8438,664.8281 1387.2344,664.6094 Q1386.625,664.3906 1386,664.3906 Q1385.2344,664.3906 1384.5938,664.7188 Q1383.9688,665.0469 1383.4688,665.7969 Q1382.9844,666.5469 1382.9844,667.5781 L1382.9844,668.6719 Q1382.9844,669.9063 1383.875,670.7344 Q1384.7656,671.5469 1386.3594,671.5469 Q1387.2969,671.5469 1387.9531,671.2969 Q1388.3438,671.1406 1388.7656,670.7031 Q1389.0313,670.4375 1389.1719,670.3594 Q1389.3281,670.2813 1389.5313,670.2813 Q1389.8594,670.2813 1390.1094,670.5469 Q1390.375,670.7969 1390.375,671.1406 Q1390.375,671.4844 1390.0313,671.8906 Q1389.5313,672.4688 1388.7344,672.7969 Q1387.6563,673.25 1386.3594,673.25 Q1384.8438,673.25 1383.6406,672.625 Q1382.6563,672.125 1381.9688,671.0625 Q1381.2813,669.9844 1381.2813,668.7031 L1381.2813,667.5469 Q1381.2813,666.2188 1381.8906,665.0781 Q1382.5156,663.9219 1383.6094,663.3125 Q1384.7031,662.6875 1385.9375,662.6875 Q1386.6719,662.6875 1387.3125,662.8594 Q1387.9688,663.0156 1388.5156,663.375 Z " fill="#000000"/><text fill="#000000" font-family="sans-serif" font-size="14" lengthAdjust="spacing" textLength="55" x="1406.25" y="673.2969">prorroga</text><line style="stroke:#181818;stroke-width:0.5;" x1="1292.5" x2="1542.5" y1="683.5" y2="683.5"/><ellipse cx="1302.5" cy="698.3105" fill="none" rx="3" ry="3" style="stroke:#038048;stroke-width:1.0;"/><text fill="#000000" font-family="sans-serif" font-size="14" lengthAdjust="spacing" textLength="72" x="1311.5" y="702.6074">minutos: Int</text><line style="stroke:#181818;stroke-width:0.5;" x1="1292.5" x2="1542.5" y1="710.1211" y2="710.1211"/><rect fill="#F24D5C" height="6" style="stroke:#C82930;stroke-width:1.0;" width="6" x="1299.5" y="721.9316"/><text fill="#000000" font-family="sans-serif" font-size="14" lengthAdjust="spacing" textLength="226" x="1311.5" y="729.2285">reaccionar(trayecto: Trayecto): void</text></g><!--class llamarPolicia--><g id="elem_llamarPolicia"><rect codeLine="109" fill="#F1F1F1" height="85.2422" id="llamarPolicia" rx="2.5" ry="2.5" style="stroke:#181818;stroke-width:0.5;" width="252" x="1578.5" y="651.5"/><ellipse cx="1660.75" cy="667.5" fill="#ADD1B2" rx="11" ry="11" style="stroke:#181818;stroke-width:1.0;"/><path d="M1663.5156,663.375 Q1663.6719,663.1563 1663.8594,663.0469 Q1664.0469,662.9375 1664.2656,662.9375 Q1664.6406,662.9375 1664.875,663.2031 Q1665.1094,663.4531 1665.1094,664.0625 L1665.1094,665.5156 Q1665.1094,666.125 1664.875,666.3906 Q1664.6406,666.6563 1664.2656,666.6563 Q1663.9219,666.6563 1663.7188,666.4531 Q1663.5156,666.2656 1663.4063,665.75 Q1663.3594,665.3906 1663.1719,665.2031 Q1662.8438,664.8281 1662.2344,664.6094 Q1661.625,664.3906 1661,664.3906 Q1660.2344,664.3906 1659.5938,664.7188 Q1658.9688,665.0469 1658.4688,665.7969 Q1657.9844,666.5469 1657.9844,667.5781 L1657.9844,668.6719 Q1657.9844,669.9063 1658.875,670.7344 Q1659.7656,671.5469 1661.3594,671.5469 Q1662.2969,671.5469 1662.9531,671.2969 Q1663.3438,671.1406 1663.7656,670.7031 Q1664.0313,670.4375 1664.1719,670.3594 Q1664.3281,670.2813 1664.5313,670.2813 Q1664.8594,670.2813 1665.1094,670.5469 Q1665.375,670.7969 1665.375,671.1406 Q1665.375,671.4844 1665.0313,671.8906 Q1664.5313,672.4688 1663.7344,672.7969 Q1662.6563,673.25 1661.3594,673.25 Q1659.8438,673.25 1658.6406,672.625 Q1657.6563,672.125 1656.9688,671.0625 Q1656.2813,669.9844 1656.2813,668.7031 L1656.2813,667.5469 Q1656.2813,666.2188 1656.8906,665.0781 Q1657.5156,663.9219 1658.6094,663.3125 Q1659.7031,662.6875 1660.9375,662.6875 Q1661.6719,662.6875 1662.3125,662.8594 Q1662.9688,663.0156 1663.5156,663.375 Z " fill="#000000"/><text fill="#000000" font-family="sans-serif" font-size="14" lengthAdjust="spacing" textLength="79" x="1681.25" y="673.2969">llamarPolicia</text><line style="stroke:#181818;stroke-width:0.5;" x1="1579.5" x2="1829.5" y1="683.5" y2="683.5"/><rect fill="none" height="6" style="stroke:#C82930;stroke-width:1.0;" width="6" x="1586.5" y="695.3105"/><text fill="#000000" font-family="sans-serif" font-size="14" lengthAdjust="spacing" textLength="199" x="1598.5" y="702.6074">CONST_NUMERO_POLICIA: int</text><line style="stroke:#181818;stroke-width:0.5;" x1="1579.5" x2="1829.5" y1="710.1211" y2="710.1211"/><rect fill="#F24D5C" height="6" style="stroke:#C82930;stroke-width:1.0;" width="6" x="1586.5" y="721.9316"/><text fill="#000000" font-family="sans-serif" font-size="14" lengthAdjust="spacing" textLength="226" x="1598.5" y="729.2285">reaccionar(trayecto: Trayecto): void</text></g><!--class LlamadorTelefonico--><g id="elem_LlamadorTelefonico"><rect codeLine="121" fill="#F1F1F1" height="66.6211" id="LlamadorTelefonico" rx="2.5" ry="2.5" style="stroke:#181818;stroke-width:0.5;" width="271" x="1712" y="852.5"/><ellipse cx="1780.75" cy="868.5" fill="#ADD1B2" rx="11" ry="11" style="stroke:#181818;stroke-width:1.0;"/><path d="M1783.5156,864.375 Q1783.6719,864.1563 1783.8594,864.0469 Q1784.0469,863.9375 1784.2656,863.9375 Q1784.6406,863.9375 1784.875,864.2031 Q1785.1094,864.4531 1785.1094,865.0625 L1785.1094,866.5156 Q1785.1094,867.125 1784.875,867.3906 Q1784.6406,867.6563 1784.2656,867.6563 Q1783.9219,867.6563 1783.7188,867.4531 Q1783.5156,867.2656 1783.4063,866.75 Q1783.3594,866.3906 1783.1719,866.2031 Q1782.8438,865.8281 1782.2344,865.6094 Q1781.625,865.3906 1781,865.3906 Q1780.2344,865.3906 1779.5938,865.7188 Q1778.9688,866.0469 1778.4688,866.7969 Q1777.9844,867.5469 1777.9844,868.5781 L1777.9844,869.6719 Q1777.9844,870.9063 1778.875,871.7344 Q1779.7656,872.5469 1781.3594,872.5469 Q1782.2969,872.5469 1782.9531,872.2969 Q1783.3438,872.1406 1783.7656,871.7031 Q1784.0313,871.4375 1784.1719,871.3594 Q1784.3281,871.2813 1784.5313,871.2813 Q1784.8594,871.2813 1785.1094,871.5469 Q1785.375,871.7969 1785.375,872.1406 Q1785.375,872.4844 1785.0313,872.8906 Q1784.5313,873.4688 1783.7344,873.7969 Q1782.6563,874.25 1781.3594,874.25 Q1779.8438,874.25 1778.6406,873.625 Q1777.6563,873.125 1776.9688,872.0625 Q1776.2813,870.9844 1776.2813,869.7031 L1776.2813,868.5469 Q1776.2813,867.2188 1776.8906,866.0781 Q1777.5156,864.9219 1778.6094,864.3125 Q1779.7031,863.6875 1780.9375,863.6875 Q1781.6719,863.6875 1782.3125,863.8594 Q1782.9688,864.0156 1783.5156,864.375 Z " fill="#000000"/><text fill="#000000" font-family="sans-serif" font-size="14" lengthAdjust="spacing" textLength="125" x="1801.25" y="874.2969">LlamadorTelefonico</text><line style="stroke:#181818;stroke-width:0.5;" x1="1713" x2="1982" y1="884.5" y2="884.5"/><line style="stroke:#181818;stroke-width:0.5;" x1="1713" x2="1982" y1="892.5" y2="892.5"/><text fill="#000000" font-family="sans-serif" font-size="14" lengthAdjust="spacing" textLength="259" x="1718" y="911.6074">llamar(numero: int, mensaje: String): void</text></g><!--class llamarUsuario--><g id="elem_llamarUsuario"><rect codeLine="115" fill="#F1F1F1" height="85.2422" id="llamarUsuario" rx="2.5" ry="2.5" style="stroke:#181818;stroke-width:0.5;" width="252" x="1865.5" y="651.5"/><ellipse cx="1944.25" cy="667.5" fill="#ADD1B2" rx="11" ry="11" style="stroke:#181818;stroke-width:1.0;"/><path d="M1947.0156,663.375 Q1947.1719,663.1563 1947.3594,663.0469 Q1947.5469,662.9375 1947.7656,662.9375 Q1948.1406,662.9375 1948.375,663.2031 Q1948.6094,663.4531 1948.6094,664.0625 L1948.6094,665.5156 Q1948.6094,666.125 1948.375,666.3906 Q1948.1406,666.6563 1947.7656,666.6563 Q1947.4219,666.6563 1947.2188,666.4531 Q1947.0156,666.2656 1946.9063,665.75 Q1946.8594,665.3906 1946.6719,665.2031 Q1946.3438,664.8281 1945.7344,664.6094 Q1945.125,664.3906 1944.5,664.3906 Q1943.7344,664.3906 1943.0938,664.7188 Q1942.4688,665.0469 1941.9688,665.7969 Q1941.4844,666.5469 1941.4844,667.5781 L1941.4844,668.6719 Q1941.4844,669.9063 1942.375,670.7344 Q1943.2656,671.5469 1944.8594,671.5469 Q1945.7969,671.5469 1946.4531,671.2969 Q1946.8438,671.1406 1947.2656,670.7031 Q1947.5313,670.4375 1947.6719,670.3594 Q1947.8281,670.2813 1948.0313,670.2813 Q1948.3594,670.2813 1948.6094,670.5469 Q1948.875,670.7969 1948.875,671.1406 Q1948.875,671.4844 1948.5313,671.8906 Q1948.0313,672.4688 1947.2344,672.7969 Q1946.1563,673.25 1944.8594,673.25 Q1943.3438,673.25 1942.1406,672.625 Q1941.1563,672.125 1940.4688,671.0625 Q1939.7813,669.9844 1939.7813,668.7031 L1939.7813,667.5469 Q1939.7813,666.2188 1940.3906,665.0781 Q1941.0156,663.9219 1942.1094,663.3125 Q1943.2031,662.6875 1944.4375,662.6875 Q1945.1719,662.6875 1945.8125,662.8594 Q1946.4688,663.0156 1947.0156,663.375 Z " fill="#000000"/><text fill="#000000" font-family="sans-serif" font-size="14" lengthAdjust="spacing" textLength="86" x="1964.75" y="673.2969">llamarUsuario</text><line style="stroke:#181818;stroke-width:0.5;" x1="1866.5" x2="2116.5" y1="683.5" y2="683.5"/><rect fill="none" height="6" style="stroke:#C82930;stroke-width:1.0;" width="6" x="1873.5" y="695.3105"/><text fill="#000000" font-family="sans-serif" font-size="14" lengthAdjust="spacing" textLength="74" x="1885.5" y="702.6074">telefono: int</text><line style="stroke:#181818;stroke-width:0.5;" x1="1866.5" x2="2116.5" y1="710.1211" y2="710.1211"/><rect fill="#F24D5C" height="6" style="stroke:#C82930;stroke-width:1.0;" width="6" x="1873.5" y="721.9316"/><text fill="#000000" font-family="sans-serif" font-size="14" lengthAdjust="spacing" textLength="226" x="1885.5" y="729.2285">reaccionar(trayecto: Trayecto): void</text></g><!--link Persona to Direccion--><g id="link_Persona_Direccion"><path codeLine="14" d="M470.98,554.31 C486.27,574.4 498.2168,590.1051 512.5368,608.9251 " fill="none" id="Persona-to-Direccion" style="stroke:#181818;stroke-width:1.0;"/><polygon fill="#181818" points="516.17,613.7,513.9035,604.1155,513.1423,609.7209,507.5369,608.9598,516.17,613.7" style="stroke:#181818;stroke-width:1.0;"/></g><!--link Persona to Usuario--><g id="link_Persona_Usuario"><path codeLine="15" d="M273.43,537.69 C234.46,573.31 196.5889,607.9222 163.9389,637.7622 " fill="none" id="Persona-to-Usuario" style="stroke:#181818;stroke-width:1.0;"/><polygon fill="#181818" points="159.51,641.81,168.8519,638.691,163.2008,638.4369,163.4549,632.7857,159.51,641.81" style="stroke:#181818;stroke-width:1.0;"/></g><!--link Sexo to Persona--><g id="link_Sexo_Persona"><path codeLine="22" d="M382.5,185.65 C382.5,222.35 382.5,261.33 382.5,307.7 " fill="none" id="Sexo-to-Persona" style="stroke:#181818;stroke-width:1.0;"/><polygon fill="#181818" points="382.5,319.7,386.5,313.7,382.5,307.7,378.5,313.7,382.5,319.7" style="stroke:#181818;stroke-width:1.0;"/></g><!--link TipoUsuario to Usuario--><g id="link_TipoUsuario_Usuario"><path codeLine="34" d="M103.5,479.54 C103.5,523.85 103.5,582.1 103.5,629.8 " fill="none" id="TipoUsuario-to-Usuario" style="stroke:#181818;stroke-width:1.0;"/><polygon fill="#181818" points="103.5,641.8,107.5,635.8,103.5,629.8,99.5,635.8,103.5,641.8" style="stroke:#181818;stroke-width:1.0;"/></g><!--link Trayecto to Direccion--><g id="link_Trayecto_Direccion"><path codeLine="58" d="M679.32,260.04 C670.94,279.83 663,300.27 656.5,320 C623.86,419.07 602.0824,531.511 589.4024,607.911 " fill="none" id="Trayecto-to-Direccion" style="stroke:#181818;stroke-width:1.0;"/><polygon fill="#181818" points="588.42,613.83,593.8396,605.6064,589.2386,608.8975,585.9475,604.2965,588.42,613.83" style="stroke:#181818;stroke-width:1.0;"/></g><!--link Trayecto to Persona--><g id="link_Trayecto_Persona"><path codeLine="59" d="M591.27,260.18 C557.88,288.29 527.6696,313.7454 496.2696,340.1854 " fill="none" id="Trayecto-to-Persona" style="stroke:#181818;stroke-width:1.0;"/><polygon fill="#181818" points="491.68,344.05,501.1409,341.3128,495.5047,340.8295,495.988,335.1933,491.68,344.05" style="stroke:#181818;stroke-width:1.0;"/></g><!--link Trayecto to IReaccionIncidente--><g id="link_Trayecto_IReaccionIncidente"><path codeLine="60" d="M899.23,205.19 C1039.73,267.76 1232.9588,353.8193 1338.8688,400.9793 " fill="none" id="Trayecto-to-IReaccionIncidente" style="stroke:#181818;stroke-width:1.0;"/><polygon fill="#181818" points="1344.35,403.42,1337.7554,396.1049,1339.7824,401.3861,1334.5011,403.4131,1344.35,403.42" style="stroke:#181818;stroke-width:1.0;"/></g><!--link Trayecto to IEstimadorDemoras--><g id="link_Trayecto_IEstimadorDemoras"><path codeLine="61" d="M771.35,260.18 C784.2,312.53 796.6287,363.2032 805.0887,397.6432 " fill="none" id="Trayecto-to-IEstimadorDemoras" style="stroke:#181818;stroke-width:1.0;"/><polygon fill="#181818" points="806.52,403.47,808.2575,393.7756,805.3272,398.6144,800.4885,395.684,806.52,403.47" style="stroke:#181818;stroke-width:1.0;"/></g><!--reverse link IEstimadorDemoras to DefaultEstimadorDemoras--><g id="link_IEstimadorDemoras_DefaultEstimadorDemoras"><path d="M817.2751,488.523 C819.6451,531.763 822.88,590.62 825.68,641.7 " fill="none" id="IEstimadorDemoras-backto-DefaultEstimadorDemoras" style="stroke:#181818;stroke-width:1.0;stroke-dasharray:7.0,7.0;"/><polygon fill="none" points="816.29,470.55,811.2841,488.8514,823.2661,488.1947,816.29,470.55" style="stroke:#181818;stroke-width:1.0;"/></g><!--link DefaultEstimadorDemoras to DistanceMatrixAPI--><g id="link_DefaultEstimadorDemoras_DistanceMatrixAPI"><path codeLine="74" d="M828.5,746.17 C828.5,779.91 828.5,817.1 828.5,846.28 " fill="none" id="DefaultEstimadorDemoras-to-DistanceMatrixAPI" style="stroke:#181818;stroke-width:1.0;stroke-dasharray:7.0,7.0;"/><polygon fill="#181818" points="828.5,852.28,832.5,843.28,828.5,847.28,824.5,843.28,828.5,852.28" style="stroke:#181818;stroke-width:1.0;"/></g><!--link Persona to Inbox--><g id="link_Persona_Inbox"><path codeLine="87" d="M367.9,554.31 C364.49,581.5 362.4809,597.463 359.5309,621.023 " fill="none" id="Persona-to-Inbox" style="stroke:#181818;stroke-width:1.0;"/><polygon fill="#181818" points="358.04,632.93,362.7545,627.4735,359.5309,621.023,354.8164,626.4795,358.04,632.93" style="stroke:#181818;stroke-width:1.0;"/></g><!--link Inbox to Notificacion--><g id="link_Inbox_Notificacion"><path codeLine="88" d="M350.5,755.12 C350.5,780.45 350.5,803.62 350.5,827.9 " fill="none" id="Inbox-to-Notificacion" style="stroke:#181818;stroke-width:1.0;"/><polygon fill="#181818" points="350.5,833.9,354.5,824.9,350.5,828.9,346.5,824.9,350.5,833.9" style="stroke:#181818;stroke-width:1.0;"/></g><!--reverse link IReaccionIncidente to alertarCuidadores--><g id="link_IReaccionIncidente_alertarCuidadores"><path d="M1367.4045,482.5061 C1312.3945,531.3861 1222.52,611.24 1167.38,660.24 " fill="none" id="IReaccionIncidente-backto-alertarCuidadores" style="stroke:#181818;stroke-width:1.0;stroke-dasharray:7.0,7.0;"/><polygon fill="none" points="1380.86,470.55,1363.4191,478.0209,1371.3898,486.9913,1380.86,470.55" style="stroke:#181818;stroke-width:1.0;"/></g><!--reverse link IReaccionIncidente to prorroga--><g id="link_IReaccionIncidente_prorroga"><path d="M1417.5,488.55 C1417.5,534.61 1417.5,600.79 1417.5,651.35 " fill="none" id="IReaccionIncidente-backto-prorroga" style="stroke:#181818;stroke-width:1.0;stroke-dasharray:7.0,7.0;"/><polygon fill="none" points="1417.5,470.55,1411.5,488.55,1423.5,488.55,1417.5,470.55" style="stroke:#181818;stroke-width:1.0;"/></g><!--reverse link IReaccionIncidente to llamarPolicia--><g id="link_IReaccionIncidente_llamarPolicia"><path d="M1467.5948,482.5069 C1519.4248,528.5669 1600.72,600.79 1657.62,651.35 " fill="none" id="IReaccionIncidente-backto-llamarPolicia" style="stroke:#181818;stroke-width:1.0;stroke-dasharray:7.0,7.0;"/><polygon fill="none" points="1454.14,470.55,1463.6092,486.9919,1471.5804,478.022,1454.14,470.55" style="stroke:#181818;stroke-width:1.0;"/></g><!--link llamarPolicia to LlamadorTelefonico--><g id="link_llamarPolicia_LlamadorTelefonico"><path codeLine="113" d="M1735.88,736.7 C1762.03,771.43 1795.1416,815.4363 1819.2216,847.4263 " fill="none" id="llamarPolicia-to-LlamadorTelefonico" style="stroke:#181818;stroke-width:1.0;"/><polygon fill="#181818" points="1822.83,852.22,1820.6132,842.6239,1819.823,848.2253,1814.2216,847.435,1822.83,852.22" style="stroke:#181818;stroke-width:1.0;"/></g><!--reverse link IReaccionIncidente to llamarUsuario--><g id="link_IReaccionIncidente_llamarUsuario"><path d="M1522.7362,476.9773 C1610.7862,510.2773 1732.39,558.45 1848.5,614 C1872.17,625.32 1897.4,638.78 1919.98,651.34 " fill="none" id="IReaccionIncidente-backto-llamarUsuario" style="stroke:#181818;stroke-width:1.0;stroke-dasharray:7.0,7.0;"/><polygon fill="none" points="1505.9,470.61,1520.6137,482.5894,1524.8586,471.3653,1505.9,470.61" style="stroke:#181818;stroke-width:1.0;"/></g><!--link llamarUsuario to LlamadorTelefonico--><g id="link_llamarUsuario_LlamadorTelefonico"><path codeLine="119" d="M1959.9,736.7 C1933.57,771.43 1900.2146,815.4485 1875.9646,847.4385 " fill="none" id="llamarUsuario-to-LlamadorTelefonico" style="stroke:#181818;stroke-width:1.0;"/><polygon fill="#181818" points="1872.34,852.22,1880.9645,847.4642,1875.3605,848.2354,1874.5892,842.6314,1872.34,852.22" style="stroke:#181818;stroke-width:1.0;"/></g><!--SRC=[dLNRZjem47tFL-IjxBBP3q0LKWfKYWG4BR2lA-CCo9LZ8zj1srRyUyTEx2GBxAKlINpip9oPEJEcd6WThq1fAKZyDnh6GfOx1QDuRHGJ1mJ84JXdXGnG4XTC0QLCYb4yzPy8Gq6AKSo4mMyDh_OFVEAYqXLH3DVR-WCX9dRoTHHdzkMy6hPdbAX12KAJNu70tIW-ILRW4Squ2Cg8SlyCsWr23JkzXS-H3of9nXsMNTIpYK1KfUEA6LYawybsdYtpwETiCLlQZtppbAD1To19xdsweeYwx3LcEjdR-dX34WqxudA3J-yK0m9ZWK47RTdNd3fRQ3wTRBBdF5gbQ_iwHzrTool4K_CAGJjcb73UAoitbIAs0WPNNE8-S_KB9uv4cMxT4L7on6mDEXYL1Jl8bTI6y02VFOUD8h-1cZevHX6XeH86UVWS3cEfs05wIXh61MZ3XEo3jB84fG8zYkTCc- -DZJ7kAI3k6EWC-HNWVBX3sLEp5JR6Li5GIaLcwAKaHSX2KE4akBgjHt9GS6YF3XesxG4gyTy_AEaMsZE1QUvYIKnqLJ8Ls7KK79BNbt0FzddiWPSnlzbl0fTgwlAWe-WRfk5eG4NOlg3sXCBbALT4S6033GAhXvRWNPtESsjq8WLLO6JgbGbxKd5pOP-LHmwODAElEa_YIRvSRrwUP_DyaatJwSjgbcxovMnTUxI32MLe1PgkCYiUju85mTAz8lGr-hTOFZwEhvXkWiL7QBytHtmRqeeZ0Szq0KP9VOj98QiTXxQVt91pgJZMXMyxAGdohHkXqV-o0rhb-p5g6_k7bFpTuTiRe_VDjAuvM1rrRNk6NUmMqU1cKN_OkqEScEj4nmdZ9JkDyuAQAs9sYVGTZwnDe-rH63UTELgp8XoKwVPrJslNF2HVz82pKIbv81yQ7iOb4vMHselsQtuu9wZVbUGCY_Y9AEgMMMuNiwVyPPNFiqcM-alwavxxBctXvnR1F6w0mruAHcMVdh-LFgPdQWloloYrbzzxb2vtq7DjO82NBAZQ-KDyOzIVety0]--></g></svg>