<?xml version="1.0" encoding="us-ascii" standalone="no"?><svg xmlns="http://www.w3.org/2000/svg" xmlns:xlink="http://www.w3.org/1999/xlink" contentStyleType="text/css" height="878px" preserveAspectRatio="none" style="width:1654px;height:878px;background:#FFFFFF;" version="1.1" viewBox="0 0 1654 878" width="1654px" zoomAndPan="magnify"><defs/><g><!--class Persona--><g id="elem_Persona"><rect codeLine="2" fill="#F1F1F1" height="224.0938" id="Persona" rx="2.5" ry="2.5" style="stroke:#181818;stroke-width:0.5;" width="218" x="247.5" y="273"/><ellipse cx="325.75" cy="289" fill="#ADD1B2" rx="11" ry="11" style="stroke:#181818;stroke-width:1.0;"/><path d="M328.5156,284.875 Q328.6719,284.6563 328.8594,284.5469 Q329.0469,284.4375 329.2656,284.4375 Q329.6406,284.4375 329.875,284.7031 Q330.1094,284.9531 330.1094,285.5625 L330.1094,287.0156 Q330.1094,287.625 329.875,287.8906 Q329.6406,288.1563 329.2656,288.1563 Q328.9219,288.1563 328.7188,287.9531 Q328.5156,287.7656 328.4063,287.25 Q328.3594,286.8906 328.1719,286.7031 Q327.8438,286.3281 327.2344,286.1094 Q326.625,285.8906 326,285.8906 Q325.2344,285.8906 324.5938,286.2188 Q323.9688,286.5469 323.4688,287.2969 Q322.9844,288.0469 322.9844,289.0781 L322.9844,290.1719 Q322.9844,291.4063 323.875,292.2344 Q324.7656,293.0469 326.3594,293.0469 Q327.2969,293.0469 327.9531,292.7969 Q328.3438,292.6406 328.7656,292.2031 Q329.0313,291.9375 329.1719,291.8594 Q329.3281,291.7813 329.5313,291.7813 Q329.8594,291.7813 330.1094,292.0469 Q330.375,292.2969 330.375,292.6406 Q330.375,292.9844 330.0313,293.3906 Q329.5313,293.9688 328.7344,294.2969 Q327.6563,294.75 326.3594,294.75 Q324.8438,294.75 323.6406,294.125 Q322.6563,293.625 321.9688,292.5625 Q321.2813,291.4844 321.2813,290.2031 L321.2813,289.0469 Q321.2813,287.7188 321.8906,286.5781 Q322.5156,285.4219 323.6094,284.8125 Q324.7031,284.1875 325.9375,284.1875 Q326.6719,284.1875 327.3125,284.3594 Q327.9688,284.5156 328.5156,284.875 Z " fill="#000000"/><text fill="#000000" font-family="sans-serif" font-size="14" lengthAdjust="spacing" textLength="53" x="346.25" y="294.7285">Persona</text><line style="stroke:#181818;stroke-width:0.5;" x1="248.5" x2="464.5" y1="305" y2="305"/><ellipse cx="258.5" cy="319.3047" fill="none" rx="3" ry="3" style="stroke:#038048;stroke-width:1.0;"/><text fill="#000000" font-family="sans-serif" font-size="14" lengthAdjust="spacing" textLength="93" x="267.5" y="323.5332">nombre: String</text><ellipse cx="258.5" cy="336.9141" fill="none" rx="3" ry="3" style="stroke:#038048;stroke-width:1.0;"/><text fill="#000000" font-family="sans-serif" font-size="14" lengthAdjust="spacing" textLength="94" x="267.5" y="341.1426">apellido: String</text><rect fill="none" height="6" style="stroke:#C82930;stroke-width:1.0;" width="6" x="255.5" y="351.5234"/><text fill="#000000" font-family="sans-serif" font-size="14" lengthAdjust="spacing" textLength="124" x="267.5" y="358.752">direccion: Direccion</text><rect fill="none" height="6" style="stroke:#C82930;stroke-width:1.0;" width="6" x="255.5" y="369.1328"/><text fill="#000000" font-family="sans-serif" font-size="14" lengthAdjust="spacing" textLength="55" x="267.5" y="376.3613">edad: int</text><rect fill="none" height="6" style="stroke:#C82930;stroke-width:1.0;" width="6" x="255.5" y="386.7422"/><text fill="#000000" font-family="sans-serif" font-size="14" lengthAdjust="spacing" textLength="68" x="267.5" y="393.9707">sexo: Sexo</text><rect fill="none" height="6" style="stroke:#C82930;stroke-width:1.0;" width="6" x="255.5" y="404.3516"/><text fill="#000000" font-family="sans-serif" font-size="14" lengthAdjust="spacing" textLength="103" x="267.5" y="411.5801">usuario: Usuario</text><rect fill="none" height="6" style="stroke:#C82930;stroke-width:1.0;" width="6" x="255.5" y="421.9609"/><text fill="#000000" font-family="sans-serif" font-size="14" lengthAdjust="spacing" textLength="74" x="267.5" y="429.1895">inbox: Inbox</text><line style="stroke:#181818;stroke-width:0.5;" x1="248.5" x2="464.5" y1="436.2656" y2="436.2656"/><ellipse cx="258.5" cy="450.5703" fill="#84BE84" rx="3" ry="3" style="stroke:#038048;stroke-width:1.0;"/><text fill="#000000" font-family="sans-serif" font-size="14" lengthAdjust="spacing" textLength="192" x="267.5" y="454.7988">notificar(mensaje: String): void</text><ellipse cx="258.5" cy="468.1797" fill="#84BE84" rx="3" ry="3" style="stroke:#038048;stroke-width:1.0;"/><text fill="#000000" font-family="sans-serif" font-size="14" lengthAdjust="spacing" textLength="129" x="267.5" y="472.4082">silenciarInbox(): void</text><ellipse cx="258.5" cy="485.7891" fill="#84BE84" rx="3" ry="3" style="stroke:#038048;stroke-width:1.0;"/><text fill="#000000" font-family="sans-serif" font-size="14" lengthAdjust="spacing" textLength="119" x="267.5" y="490.0176">activarInbox(): void</text></g><!--class Direccion--><g id="elem_Direccion"><rect codeLine="35" fill="#F1F1F1" height="153.6563" id="Direccion" rx="2.5" ry="2.5" style="stroke:#181818;stroke-width:0.5;" width="152" x="474.5" y="557"/><ellipse cx="516.95" cy="573" fill="#ADD1B2" rx="11" ry="11" style="stroke:#181818;stroke-width:1.0;"/><path d="M519.7156,568.875 Q519.8719,568.6563 520.0594,568.5469 Q520.2469,568.4375 520.4656,568.4375 Q520.8406,568.4375 521.075,568.7031 Q521.3094,568.9531 521.3094,569.5625 L521.3094,571.0156 Q521.3094,571.625 521.075,571.8906 Q520.8406,572.1563 520.4656,572.1563 Q520.1219,572.1563 519.9188,571.9531 Q519.7156,571.7656 519.6063,571.25 Q519.5594,570.8906 519.3719,570.7031 Q519.0438,570.3281 518.4344,570.1094 Q517.825,569.8906 517.2,569.8906 Q516.4344,569.8906 515.7938,570.2188 Q515.1688,570.5469 514.6688,571.2969 Q514.1844,572.0469 514.1844,573.0781 L514.1844,574.1719 Q514.1844,575.4063 515.075,576.2344 Q515.9656,577.0469 517.5594,577.0469 Q518.4969,577.0469 519.1531,576.7969 Q519.5438,576.6406 519.9656,576.2031 Q520.2313,575.9375 520.3719,575.8594 Q520.5281,575.7813 520.7313,575.7813 Q521.0594,575.7813 521.3094,576.0469 Q521.575,576.2969 521.575,576.6406 Q521.575,576.9844 521.2313,577.3906 Q520.7313,577.9688 519.9344,578.2969 Q518.8563,578.75 517.5594,578.75 Q516.0438,578.75 514.8406,578.125 Q513.8563,577.625 513.1688,576.5625 Q512.4813,575.4844 512.4813,574.2031 L512.4813,573.0469 Q512.4813,571.7188 513.0906,570.5781 Q513.7156,569.4219 514.8094,568.8125 Q515.9031,568.1875 517.1375,568.1875 Q517.8719,568.1875 518.5125,568.3594 Q519.1688,568.5156 519.7156,568.875 Z " fill="#000000"/><text fill="#000000" font-family="sans-serif" font-size="14" lengthAdjust="spacing" textLength="59" x="537.05" y="578.7285">Direccion</text><line style="stroke:#181818;stroke-width:0.5;" x1="475.5" x2="625.5" y1="589" y2="589"/><ellipse cx="485.5" cy="603.3047" fill="none" rx="3" ry="3" style="stroke:#038048;stroke-width:1.0;"/><text fill="#000000" font-family="sans-serif" font-size="14" lengthAdjust="spacing" textLength="74" x="494.5" y="607.5332">calle: String</text><ellipse cx="485.5" cy="620.9141" fill="none" rx="3" ry="3" style="stroke:#038048;stroke-width:1.0;"/><text fill="#000000" font-family="sans-serif" font-size="14" lengthAdjust="spacing" textLength="59" x="494.5" y="625.1426">altura: Int</text><ellipse cx="485.5" cy="638.5234" fill="none" rx="3" ry="3" style="stroke:#038048;stroke-width:1.0;"/><text fill="#000000" font-family="sans-serif" font-size="14" lengthAdjust="spacing" textLength="101" x="494.5" y="642.752">localidad: String</text><ellipse cx="485.5" cy="656.1328" fill="none" rx="3" ry="3" style="stroke:#038048;stroke-width:1.0;"/><text fill="#000000" font-family="sans-serif" font-size="14" lengthAdjust="spacing" textLength="89" x="494.5" y="660.3613">partido: String</text><ellipse cx="485.5" cy="673.7422" fill="none" rx="3" ry="3" style="stroke:#038048;stroke-width:1.0;"/><text fill="#000000" font-family="sans-serif" font-size="14" lengthAdjust="spacing" textLength="102" x="494.5" y="677.9707">provincia: String</text><ellipse cx="485.5" cy="691.3516" fill="none" rx="3" ry="3" style="stroke:#038048;stroke-width:1.0;"/><text fill="#000000" font-family="sans-serif" font-size="14" lengthAdjust="spacing" textLength="126" x="494.5" y="695.5801">codigoPostal: String</text><line style="stroke:#181818;stroke-width:0.5;" x1="475.5" x2="625.5" y1="702.6563" y2="702.6563"/></g><!--class Usuario--><g id="elem_Usuario"><rect codeLine="24" fill="#F1F1F1" height="83.2188" id="Usuario" rx="2.5" ry="2.5" style="stroke:#181818;stroke-width:0.5;" width="167" x="7" y="592.5"/><ellipse cx="62.25" cy="608.5" fill="#ADD1B2" rx="11" ry="11" style="stroke:#181818;stroke-width:1.0;"/><path d="M65.0156,604.375 Q65.1719,604.1563 65.3594,604.0469 Q65.5469,603.9375 65.7656,603.9375 Q66.1406,603.9375 66.375,604.2031 Q66.6094,604.4531 66.6094,605.0625 L66.6094,606.5156 Q66.6094,607.125 66.375,607.3906 Q66.1406,607.6563 65.7656,607.6563 Q65.4219,607.6563 65.2188,607.4531 Q65.0156,607.2656 64.9063,606.75 Q64.8594,606.3906 64.6719,606.2031 Q64.3438,605.8281 63.7344,605.6094 Q63.125,605.3906 62.5,605.3906 Q61.7344,605.3906 61.0938,605.7188 Q60.4688,606.0469 59.9688,606.7969 Q59.4844,607.5469 59.4844,608.5781 L59.4844,609.6719 Q59.4844,610.9063 60.375,611.7344 Q61.2656,612.5469 62.8594,612.5469 Q63.7969,612.5469 64.4531,612.2969 Q64.8438,612.1406 65.2656,611.7031 Q65.5313,611.4375 65.6719,611.3594 Q65.8281,611.2813 66.0313,611.2813 Q66.3594,611.2813 66.6094,611.5469 Q66.875,611.7969 66.875,612.1406 Q66.875,612.4844 66.5313,612.8906 Q66.0313,613.4688 65.2344,613.7969 Q64.1563,614.25 62.8594,614.25 Q61.3438,614.25 60.1406,613.625 Q59.1563,613.125 58.4688,612.0625 Q57.7813,610.9844 57.7813,609.7031 L57.7813,608.5469 Q57.7813,607.2188 58.3906,606.0781 Q59.0156,604.9219 60.1094,604.3125 Q61.2031,603.6875 62.4375,603.6875 Q63.1719,603.6875 63.8125,603.8594 Q64.4688,604.0156 65.0156,604.375 Z " fill="#000000"/><text fill="#000000" font-family="sans-serif" font-size="14" lengthAdjust="spacing" textLength="48" x="82.75" y="614.2285">Usuario</text><line style="stroke:#181818;stroke-width:0.5;" x1="8" x2="173" y1="624.5" y2="624.5"/><ellipse cx="18" cy="638.8047" fill="none" rx="3" ry="3" style="stroke:#038048;stroke-width:1.0;"/><text fill="#000000" font-family="sans-serif" font-size="14" lengthAdjust="spacing" textLength="141" x="27" y="643.0332">nombreUsuario: String</text><ellipse cx="18" cy="656.4141" fill="none" rx="3" ry="3" style="stroke:#038048;stroke-width:1.0;"/><text fill="#000000" font-family="sans-serif" font-size="14" lengthAdjust="spacing" textLength="107" x="27" y="660.6426">tipo: TipoUsuario</text><line style="stroke:#181818;stroke-width:0.5;" x1="8" x2="173" y1="667.7188" y2="667.7188"/></g><!--class Sexo--><g id="elem_Sexo"><rect codeLine="17" fill="#F1F1F1" height="100.8281" id="Sexo" rx="2.5" ry="2.5" style="stroke:#181818;stroke-width:0.5;" width="91" x="311" y="59.5"/><ellipse cx="338.6" cy="75.5" fill="#EB937F" rx="11" ry="11" style="stroke:#181818;stroke-width:1.0;"/><path d="M337.4594,76.2969 L337.4594,78.7969 L341.7875,78.7969 L341.7875,77.875 Q341.7875,77.2656 342.0219,77 Q342.2719,76.7344 342.6469,76.7344 Q343.0219,76.7344 343.2563,77 Q343.4906,77.2656 343.4906,77.875 L343.4906,80.5 L335.4906,80.5 Q334.8656,80.5 334.6,80.2656 Q334.35,80.0313 334.35,79.6406 Q334.35,79.2656 334.6156,79.0313 Q334.8813,78.7969 335.4906,78.7969 L335.7563,78.7969 L335.7563,72.1406 L335.4906,72.1406 Q334.8656,72.1406 334.6,71.9063 Q334.35,71.6719 334.35,71.2813 Q334.35,70.9063 334.6,70.6719 Q334.8656,70.4375 335.4906,70.4375 L343.1156,70.4375 L343.1156,73.0313 Q343.1156,73.6406 342.8813,73.9063 Q342.6625,74.1563 342.2719,74.1563 Q341.8969,74.1563 341.6625,73.9063 Q341.4281,73.6406 341.4281,73.0313 L341.4281,72.1406 L337.4594,72.1406 L337.4594,74.5938 L338.9438,74.5938 Q338.9438,73.9375 339.0688,73.75 Q339.3344,73.3438 339.8031,73.3438 Q340.1781,73.3438 340.4125,73.6094 Q340.6469,73.8594 340.6469,74.4688 L340.6469,76.4375 Q340.6469,76.9844 340.5219,77.1719 Q340.2563,77.5625 339.8031,77.5625 Q339.3344,77.5625 339.0688,77.1563 Q338.9438,76.9688 338.9438,76.2969 L337.4594,76.2969 Z " fill="#000000"/><text fill="#000000" font-family="sans-serif" font-size="14" lengthAdjust="spacing" textLength="31" x="355.4" y="81.2285">Sexo</text><line style="stroke:#181818;stroke-width:0.5;" x1="312" x2="401" y1="91.5" y2="91.5"/><text fill="#000000" font-family="sans-serif" font-size="14" lengthAdjust="spacing" textLength="79" x="317" y="110.0332">MASCULINO</text><text fill="#000000" font-family="sans-serif" font-size="14" lengthAdjust="spacing" textLength="70" x="317" y="127.6426">FEMENINO</text><text fill="#000000" font-family="sans-serif" font-size="14" lengthAdjust="spacing" textLength="41" x="317" y="145.252">OTRO</text><line style="stroke:#181818;stroke-width:0.5;" x1="312" x2="401" y1="152.3281" y2="152.3281"/></g><!--class TipoUsuario--><g id="elem_TipoUsuario"><rect codeLine="29" fill="#F1F1F1" height="83.2188" id="TipoUsuario" rx="2.5" ry="2.5" style="stroke:#181818;stroke-width:0.5;" width="108" x="36.5" y="343.5"/><ellipse cx="51.5" cy="359.5" fill="#EB937F" rx="11" ry="11" style="stroke:#181818;stroke-width:1.0;"/><path d="M50.3594,360.2969 L50.3594,362.7969 L54.6875,362.7969 L54.6875,361.875 Q54.6875,361.2656 54.9219,361 Q55.1719,360.7344 55.5469,360.7344 Q55.9219,360.7344 56.1563,361 Q56.3906,361.2656 56.3906,361.875 L56.3906,364.5 L48.3906,364.5 Q47.7656,364.5 47.5,364.2656 Q47.25,364.0313 47.25,363.6406 Q47.25,363.2656 47.5156,363.0313 Q47.7813,362.7969 48.3906,362.7969 L48.6563,362.7969 L48.6563,356.1406 L48.3906,356.1406 Q47.7656,356.1406 47.5,355.9063 Q47.25,355.6719 47.25,355.2813 Q47.25,354.9063 47.5,354.6719 Q47.7656,354.4375 48.3906,354.4375 L56.0156,354.4375 L56.0156,357.0313 Q56.0156,357.6406 55.7813,357.9063 Q55.5625,358.1563 55.1719,358.1563 Q54.7969,358.1563 54.5625,357.9063 Q54.3281,357.6406 54.3281,357.0313 L54.3281,356.1406 L50.3594,356.1406 L50.3594,358.5938 L51.8438,358.5938 Q51.8438,357.9375 51.9688,357.75 Q52.2344,357.3438 52.7031,357.3438 Q53.0781,357.3438 53.3125,357.6094 Q53.5469,357.8594 53.5469,358.4688 L53.5469,360.4375 Q53.5469,360.9844 53.4219,361.1719 Q53.1563,361.5625 52.7031,361.5625 Q52.2344,361.5625 51.9688,361.1563 Q51.8438,360.9688 51.8438,360.2969 L50.3594,360.2969 Z " fill="#000000"/><text fill="#000000" font-family="sans-serif" font-size="14" lengthAdjust="spacing" textLength="76" x="65.5" y="365.2285">TipoUsuario</text><line style="stroke:#181818;stroke-width:0.5;" x1="37.5" x2="143.5" y1="375.5" y2="375.5"/><text fill="#000000" font-family="sans-serif" font-size="14" lengthAdjust="spacing" textLength="51" x="42.5" y="394.0332">ACTIVO</text><text fill="#000000" font-family="sans-serif" font-size="14" lengthAdjust="spacing" textLength="50" x="42.5" y="411.6426">PASIVO</text><line style="stroke:#181818;stroke-width:0.5;" x1="37.5" x2="143.5" y1="418.7188" y2="418.7188"/></g><!--class Trayecto--><g id="elem_Trayecto"><rect codeLine="44" fill="#F1F1F1" height="206.4844" id="Trayecto" rx="2.5" ry="2.5" style="stroke:#181818;stroke-width:0.5;" width="314" x="557.5" y="7"/><ellipse cx="682.25" cy="23" fill="#ADD1B2" rx="11" ry="11" style="stroke:#181818;stroke-width:1.0;"/><path d="M685.0156,18.875 Q685.1719,18.6563 685.3594,18.5469 Q685.5469,18.4375 685.7656,18.4375 Q686.1406,18.4375 686.375,18.7031 Q686.6094,18.9531 686.6094,19.5625 L686.6094,21.0156 Q686.6094,21.625 686.375,21.8906 Q686.1406,22.1563 685.7656,22.1563 Q685.4219,22.1563 685.2188,21.9531 Q685.0156,21.7656 684.9063,21.25 Q684.8594,20.8906 684.6719,20.7031 Q684.3438,20.3281 683.7344,20.1094 Q683.125,19.8906 682.5,19.8906 Q681.7344,19.8906 681.0938,20.2188 Q680.4688,20.5469 679.9688,21.2969 Q679.4844,22.0469 679.4844,23.0781 L679.4844,24.1719 Q679.4844,25.4063 680.375,26.2344 Q681.2656,27.0469 682.8594,27.0469 Q683.7969,27.0469 684.4531,26.7969 Q684.8438,26.6406 685.2656,26.2031 Q685.5313,25.9375 685.6719,25.8594 Q685.8281,25.7813 686.0313,25.7813 Q686.3594,25.7813 686.6094,26.0469 Q686.875,26.2969 686.875,26.6406 Q686.875,26.9844 686.5313,27.3906 Q686.0313,27.9688 685.2344,28.2969 Q684.1563,28.75 682.8594,28.75 Q681.3438,28.75 680.1406,28.125 Q679.1563,27.625 678.4688,26.5625 Q677.7813,25.4844 677.7813,24.2031 L677.7813,23.0469 Q677.7813,21.7188 678.3906,20.5781 Q679.0156,19.4219 680.1094,18.8125 Q681.2031,18.1875 682.4375,18.1875 Q683.1719,18.1875 683.8125,18.3594 Q684.4688,18.5156 685.0156,18.875 Z " fill="#000000"/><text fill="#000000" font-family="sans-serif" font-size="14" lengthAdjust="spacing" textLength="56" x="702.75" y="28.7285">Trayecto</text><line style="stroke:#181818;stroke-width:0.5;" x1="558.5" x2="870.5" y1="39" y2="39"/><ellipse cx="568.5" cy="53.3047" fill="none" rx="3" ry="3" style="stroke:#038048;stroke-width:1.0;"/><text fill="#000000" font-family="sans-serif" font-size="14" lengthAdjust="spacing" textLength="129" x="577.5" y="57.5332">transeunte: Persona</text><ellipse cx="568.5" cy="70.9141" fill="none" rx="3" ry="3" style="stroke:#038048;stroke-width:1.0;"/><text fill="#000000" font-family="sans-serif" font-size="14" lengthAdjust="spacing" textLength="107" x="577.5" y="75.1426">origen: Direccion</text><ellipse cx="568.5" cy="88.5234" fill="none" rx="3" ry="3" style="stroke:#038048;stroke-width:1.0;"/><text fill="#000000" font-family="sans-serif" font-size="14" lengthAdjust="spacing" textLength="113" x="577.5" y="92.752">destino: Direccion</text><ellipse cx="568.5" cy="106.1328" fill="none" rx="3" ry="3" style="stroke:#038048;stroke-width:1.0;"/><text fill="#000000" font-family="sans-serif" font-size="14" lengthAdjust="spacing" textLength="169" x="577.5" y="110.3613">cuidadores: List&lt;Persona&gt;</text><ellipse cx="568.5" cy="123.7422" fill="none" rx="3" ry="3" style="stroke:#038048;stroke-width:1.0;"/><text fill="#000000" font-family="sans-serif" font-size="14" lengthAdjust="spacing" textLength="288" x="577.5" y="127.9707">reaccionesIncidente: List&lt;ReaccionIncidente&gt;</text><rect fill="none" height="6" style="stroke:#C82930;stroke-width:1.0;" width="6" x="565.5" y="138.3516"/><text fill="#000000" font-family="sans-serif" font-size="14" lengthAdjust="spacing" textLength="129" x="577.5" y="145.5801">demoraEstimada: Int</text><line style="stroke:#181818;stroke-width:0.5;" x1="558.5" x2="870.5" y1="152.6563" y2="152.6563"/><ellipse cx="568.5" cy="166.9609" fill="#84BE84" rx="3" ry="3" style="stroke:#038048;stroke-width:1.0;"/><text fill="#000000" font-family="sans-serif" font-size="14" lengthAdjust="spacing" textLength="105" x="577.5" y="171.1895">comenzar(): void</text><ellipse cx="568.5" cy="184.5703" fill="#84BE84" rx="3" ry="3" style="stroke:#038048;stroke-width:1.0;"/><text fill="#000000" font-family="sans-serif" font-size="14" lengthAdjust="spacing" textLength="92" x="577.5" y="188.7988">finalizar(): void</text><rect fill="#F24D5C" height="6" style="stroke:#C82930;stroke-width:1.0;" width="6" x="565.5" y="199.1797"/><text fill="#000000" font-family="sans-serif" font-size="14" lengthAdjust="spacing" textLength="143" x="577.5" y="206.4082">asumirIncidente(): void</text></g><!--class ReaccionIncidente--><g id="elem_ReaccionIncidente"><rect codeLine="93" fill="#F1F1F1" height="83.2188" id="ReaccionIncidente" rx="2.5" ry="2.5" style="stroke:#181818;stroke-width:0.5;" width="149" x="1154" y="343.5"/><ellipse cx="1169" cy="359.5" fill="#A9DCDF" rx="11" ry="11" style="stroke:#181818;stroke-width:1.0;"/><path d="M1171.1875,361.2656 L1167.0469,361.2656 L1166.625,362.2969 L1167.0469,362.2969 Q1167.6563,362.2969 1167.9219,362.5313 Q1168.1875,362.7656 1168.1875,363.1563 Q1168.1875,363.5313 1167.9219,363.7656 Q1167.6563,364 1167.0469,364 L1164.75,364 Q1164.1406,364 1163.8906,363.7656 Q1163.625,363.5313 1163.625,363.1406 Q1163.625,362.7656 1163.9063,362.5313 Q1164.1719,362.2813 1164.7969,362.2969 L1167.4688,355.6406 L1166.3594,355.6406 Q1165.75,355.6406 1165.4844,355.4063 Q1165.2188,355.1719 1165.2188,354.7813 Q1165.2188,354.4063 1165.4844,354.1719 Q1165.75,353.9375 1166.3594,353.9375 L1170.0313,353.9375 L1173.4219,362.2969 Q1174.0156,362.2969 1174.2031,362.4375 Q1174.5938,362.7031 1174.5938,363.1563 Q1174.5938,363.5313 1174.3281,363.7656 Q1174.0781,364 1173.4688,364 L1171.1719,364 Q1170.5625,364 1170.2969,363.7656 Q1170.0313,363.5313 1170.0313,363.1406 Q1170.0313,362.7656 1170.2969,362.5313 Q1170.5625,362.2969 1171.1719,362.2969 L1171.5938,362.2969 L1171.1875,361.2656 Z M1170.4688,359.5625 L1169.1094,356.1875 L1167.7344,359.5625 L1170.4688,359.5625 Z " fill="#000000"/><text fill="#000000" font-family="sans-serif" font-size="14" font-style="italic" lengthAdjust="spacing" textLength="117" x="1183" y="365.2285">ReaccionIncidente</text><line style="stroke:#181818;stroke-width:0.5;" x1="1155" x2="1302" y1="375.5" y2="375.5"/><polygon fill="none" points="1165,384.8047,1169,388.8047,1165,392.8047,1161,388.8047" style="stroke:#B38D22;stroke-width:1.0;"/><text fill="#000000" font-family="sans-serif" font-size="14" lengthAdjust="spacing" textLength="115" x="1174" y="394.0332">trayecto: Trayecto</text><line style="stroke:#181818;stroke-width:0.5;" x1="1155" x2="1302" y1="401.1094" y2="401.1094"/><rect fill="#F24D5C" height="6" style="stroke:#C82930;stroke-width:1.0;" width="6" x="1162" y="412.4141"/><text fill="#000000" font-family="sans-serif" font-size="14" lengthAdjust="spacing" textLength="111" x="1174" y="419.6426">reaccionar(): void</text></g><!--class IEstimadorDemoras--><g id="elem_IEstimadorDemoras"><rect codeLine="61" fill="#F1F1F1" height="65.6094" id="IEstimadorDemoras" rx="2.5" ry="2.5" style="stroke:#181818;stroke-width:0.5;" width="281" x="648" y="352"/><ellipse cx="722.25" cy="368" fill="#B4A7E5" rx="11" ry="11" style="stroke:#181818;stroke-width:1.0;"/><path d="M723.2031,364.6406 L723.2031,371.2969 L724.9219,371.2969 Q725.5313,371.2969 725.7969,371.5313 Q726.0625,371.7656 726.0625,372.1563 Q726.0625,372.5313 725.7969,372.7656 Q725.5313,373 724.9219,373 L719.7813,373 Q719.1719,373 718.9063,372.7656 Q718.6406,372.5313 718.6406,372.1406 Q718.6406,371.7656 718.9063,371.5313 Q719.1719,371.2969 719.7813,371.2969 L721.5,371.2969 L721.5,364.6406 L719.7813,364.6406 Q719.1719,364.6406 718.9063,364.4063 Q718.6406,364.1719 718.6406,363.7813 Q718.6406,363.4063 718.9063,363.1719 Q719.1719,362.9375 719.7813,362.9375 L724.9219,362.9375 Q725.5313,362.9375 725.7969,363.1719 Q726.0625,363.4063 726.0625,363.7813 Q726.0625,364.1719 725.7969,364.4063 Q725.5313,364.6406 724.9219,364.6406 L723.2031,364.6406 Z " fill="#000000"/><text fill="#000000" font-family="sans-serif" font-size="14" font-style="italic" lengthAdjust="spacing" textLength="124" x="742.75" y="373.7285">IEstimadorDemoras</text><line style="stroke:#181818;stroke-width:0.5;" x1="649" x2="928" y1="384" y2="384"/><line style="stroke:#181818;stroke-width:0.5;" x1="649" x2="928" y1="392" y2="392"/><ellipse cx="659" cy="406.3047" fill="#84BE84" rx="3" ry="3" style="stroke:#038048;stroke-width:1.0;"/><text fill="#000000" font-family="sans-serif" font-size="14" lengthAdjust="spacing" textLength="255" x="668" y="410.5332">estimarDemora(Direccion, Direccion): Int</text></g><!--class DefaultEstimadorDemoras--><g id="elem_DefaultEstimadorDemoras"><rect codeLine="66" fill="#F1F1F1" height="100.8281" id="DefaultEstimadorDemoras" rx="2.5" ry="2.5" style="stroke:#181818;stroke-width:0.5;" width="281" x="662" y="583.5"/><ellipse cx="715.75" cy="599.5" fill="#ADD1B2" rx="11" ry="11" style="stroke:#181818;stroke-width:1.0;"/><path d="M718.5156,595.375 Q718.6719,595.1563 718.8594,595.0469 Q719.0469,594.9375 719.2656,594.9375 Q719.6406,594.9375 719.875,595.2031 Q720.1094,595.4531 720.1094,596.0625 L720.1094,597.5156 Q720.1094,598.125 719.875,598.3906 Q719.6406,598.6563 719.2656,598.6563 Q718.9219,598.6563 718.7188,598.4531 Q718.5156,598.2656 718.4063,597.75 Q718.3594,597.3906 718.1719,597.2031 Q717.8438,596.8281 717.2344,596.6094 Q716.625,596.3906 716,596.3906 Q715.2344,596.3906 714.5938,596.7188 Q713.9688,597.0469 713.4688,597.7969 Q712.9844,598.5469 712.9844,599.5781 L712.9844,600.6719 Q712.9844,601.9063 713.875,602.7344 Q714.7656,603.5469 716.3594,603.5469 Q717.2969,603.5469 717.9531,603.2969 Q718.3438,603.1406 718.7656,602.7031 Q719.0313,602.4375 719.1719,602.3594 Q719.3281,602.2813 719.5313,602.2813 Q719.8594,602.2813 720.1094,602.5469 Q720.375,602.7969 720.375,603.1406 Q720.375,603.4844 720.0313,603.8906 Q719.5313,604.4688 718.7344,604.7969 Q717.6563,605.25 716.3594,605.25 Q714.8438,605.25 713.6406,604.625 Q712.6563,604.125 711.9688,603.0625 Q711.2813,601.9844 711.2813,600.7031 L711.2813,599.5469 Q711.2813,598.2188 711.8906,597.0781 Q712.5156,595.9219 713.6094,595.3125 Q714.7031,594.6875 715.9375,594.6875 Q716.6719,594.6875 717.3125,594.8594 Q717.9688,595.0156 718.5156,595.375 Z " fill="#000000"/><text fill="#000000" font-family="sans-serif" font-size="14" lengthAdjust="spacing" textLength="165" x="736.25" y="605.2285">DefaultEstimadorDemoras</text><line style="stroke:#181818;stroke-width:0.5;" x1="663" x2="942" y1="615.5" y2="615.5"/><rect fill="none" height="6" style="stroke:#C82930;stroke-width:1.0;" width="6" x="670" y="626.8047"/><text fill="#000000" font-family="sans-serif" font-size="14" lengthAdjust="spacing" textLength="240" x="682" y="634.0332">CONST_VELOCIDAD_PEATONES: Int</text><rect fill="none" height="6" style="stroke:#C82930;stroke-width:1.0;" width="6" x="670" y="644.4141"/><text fill="#000000" font-family="sans-serif" font-size="14" lengthAdjust="spacing" textLength="198" x="682" y="651.6426">distanciaAPI: DistanceMatrixAPI</text><line style="stroke:#181818;stroke-width:0.5;" x1="663" x2="942" y1="658.7188" y2="658.7188"/><ellipse cx="673" cy="673.0234" fill="#84BE84" rx="3" ry="3" style="stroke:#038048;stroke-width:1.0;"/><text fill="#000000" font-family="sans-serif" font-size="14" lengthAdjust="spacing" textLength="255" x="682" y="677.252">estimarDemora(Direccion, Direccion): Int</text></g><!--class DistanceMatrixAPI--><g id="elem_DistanceMatrixAPI"><rect codeLine="74" fill="#F1F1F1" height="65.6094" id="DistanceMatrixAPI" rx="2.5" ry="2.5" style="stroke:#181818;stroke-width:0.5;" width="363" x="621" y="788.5"/><ellipse cx="741.75" cy="804.5" fill="#ADD1B2" rx="11" ry="11" style="stroke:#181818;stroke-width:1.0;"/><path d="M744.5156,800.375 Q744.6719,800.1563 744.8594,800.0469 Q745.0469,799.9375 745.2656,799.9375 Q745.6406,799.9375 745.875,800.2031 Q746.1094,800.4531 746.1094,801.0625 L746.1094,802.5156 Q746.1094,803.125 745.875,803.3906 Q745.6406,803.6563 745.2656,803.6563 Q744.9219,803.6563 744.7188,803.4531 Q744.5156,803.2656 744.4063,802.75 Q744.3594,802.3906 744.1719,802.2031 Q743.8438,801.8281 743.2344,801.6094 Q742.625,801.3906 742,801.3906 Q741.2344,801.3906 740.5938,801.7188 Q739.9688,802.0469 739.4688,802.7969 Q738.9844,803.5469 738.9844,804.5781 L738.9844,805.6719 Q738.9844,806.9063 739.875,807.7344 Q740.7656,808.5469 742.3594,808.5469 Q743.2969,808.5469 743.9531,808.2969 Q744.3438,808.1406 744.7656,807.7031 Q745.0313,807.4375 745.1719,807.3594 Q745.3281,807.2813 745.5313,807.2813 Q745.8594,807.2813 746.1094,807.5469 Q746.375,807.7969 746.375,808.1406 Q746.375,808.4844 746.0313,808.8906 Q745.5313,809.4688 744.7344,809.7969 Q743.6563,810.25 742.3594,810.25 Q740.8438,810.25 739.6406,809.625 Q738.6563,809.125 737.9688,808.0625 Q737.2813,806.9844 737.2813,805.7031 L737.2813,804.5469 Q737.2813,803.2188 737.8906,802.0781 Q738.5156,800.9219 739.6094,800.3125 Q740.7031,799.6875 741.9375,799.6875 Q742.6719,799.6875 743.3125,799.8594 Q743.9688,800.0156 744.5156,800.375 Z " fill="#000000"/><text fill="#000000" font-family="sans-serif" font-size="14" lengthAdjust="spacing" textLength="113" x="762.25" y="810.2285">DistanceMatrixAPI</text><line style="stroke:#181818;stroke-width:0.5;" x1="622" x2="983" y1="820.5" y2="820.5"/><line style="stroke:#181818;stroke-width:0.5;" x1="622" x2="983" y1="828.5" y2="828.5"/><ellipse cx="632" cy="842.8047" fill="#84BE84" rx="3" ry="3" style="stroke:#038048;stroke-width:1.0;"/><text fill="#000000" font-family="sans-serif" font-size="14" lengthAdjust="spacing" textLength="337" x="641" y="847.0332">calcularDistanciaMetros(Direccion, Direccion): double</text></g><!--class Inbox--><g id="elem_Inbox"><rect codeLine="78" fill="#F1F1F1" height="118.4375" id="Inbox" rx="2.5" ry="2.5" style="stroke:#181818;stroke-width:0.5;" width="230" x="209.5" y="575"/><ellipse cx="303.75" cy="591" fill="#ADD1B2" rx="11" ry="11" style="stroke:#181818;stroke-width:1.0;"/><path d="M306.5156,586.875 Q306.6719,586.6563 306.8594,586.5469 Q307.0469,586.4375 307.2656,586.4375 Q307.6406,586.4375 307.875,586.7031 Q308.1094,586.9531 308.1094,587.5625 L308.1094,589.0156 Q308.1094,589.625 307.875,589.8906 Q307.6406,590.1563 307.2656,590.1563 Q306.9219,590.1563 306.7188,589.9531 Q306.5156,589.7656 306.4063,589.25 Q306.3594,588.8906 306.1719,588.7031 Q305.8438,588.3281 305.2344,588.1094 Q304.625,587.8906 304,587.8906 Q303.2344,587.8906 302.5938,588.2188 Q301.9688,588.5469 301.4688,589.2969 Q300.9844,590.0469 300.9844,591.0781 L300.9844,592.1719 Q300.9844,593.4063 301.875,594.2344 Q302.7656,595.0469 304.3594,595.0469 Q305.2969,595.0469 305.9531,594.7969 Q306.3438,594.6406 306.7656,594.2031 Q307.0313,593.9375 307.1719,593.8594 Q307.3281,593.7813 307.5313,593.7813 Q307.8594,593.7813 308.1094,594.0469 Q308.375,594.2969 308.375,594.6406 Q308.375,594.9844 308.0313,595.3906 Q307.5313,595.9688 306.7344,596.2969 Q305.6563,596.75 304.3594,596.75 Q302.8438,596.75 301.6406,596.125 Q300.6563,595.625 299.9688,594.5625 Q299.2813,593.4844 299.2813,592.2031 L299.2813,591.0469 Q299.2813,589.7188 299.8906,588.5781 Q300.5156,587.4219 301.6094,586.8125 Q302.7031,586.1875 303.9375,586.1875 Q304.6719,586.1875 305.3125,586.3594 Q305.9688,586.5156 306.5156,586.875 Z " fill="#000000"/><text fill="#000000" font-family="sans-serif" font-size="14" lengthAdjust="spacing" textLength="33" x="324.25" y="596.7285">Inbox</text><line style="stroke:#181818;stroke-width:0.5;" x1="210.5" x2="438.5" y1="607" y2="607"/><rect fill="none" height="6" style="stroke:#C82930;stroke-width:1.0;" width="6" x="217.5" y="618.3047"/><text fill="#000000" font-family="sans-serif" font-size="14" lengthAdjust="spacing" textLength="113" x="229.5" y="625.5332">persona: Persona</text><rect fill="none" height="6" style="stroke:#C82930;stroke-width:1.0;" width="6" x="217.5" y="635.9141"/><text fill="#000000" font-family="sans-serif" font-size="14" lengthAdjust="spacing" textLength="204" x="229.5" y="643.1426">notificaciones: List&lt;Notificacion&gt;</text><rect fill="none" height="6" style="stroke:#C82930;stroke-width:1.0;" width="6" x="217.5" y="653.5234"/><text fill="#000000" font-family="sans-serif" font-size="14" lengthAdjust="spacing" textLength="99" x="229.5" y="660.752">silenciado: Bool</text><line style="stroke:#181818;stroke-width:0.5;" x1="210.5" x2="438.5" y1="667.8281" y2="667.8281"/><ellipse cx="220.5" cy="682.1328" fill="#84BE84" rx="3" ry="3" style="stroke:#038048;stroke-width:1.0;"/><text fill="#000000" font-family="sans-serif" font-size="14" lengthAdjust="spacing" textLength="158" x="229.5" y="686.3613">notificar(mensaje: String)</text></g><!--class Notificacion--><g id="elem_Notificacion"><rect codeLine="87" fill="#F1F1F1" height="100.8281" id="Notificacion" rx="2.5" ry="2.5" style="stroke:#181818;stroke-width:0.5;" width="140" x="254.5" y="771"/><ellipse cx="285.7" cy="787" fill="#ADD1B2" rx="11" ry="11" style="stroke:#181818;stroke-width:1.0;"/><path d="M288.4656,782.875 Q288.6219,782.6563 288.8094,782.5469 Q288.9969,782.4375 289.2156,782.4375 Q289.5906,782.4375 289.825,782.7031 Q290.0594,782.9531 290.0594,783.5625 L290.0594,785.0156 Q290.0594,785.625 289.825,785.8906 Q289.5906,786.1563 289.2156,786.1563 Q288.8719,786.1563 288.6688,785.9531 Q288.4656,785.7656 288.3563,785.25 Q288.3094,784.8906 288.1219,784.7031 Q287.7938,784.3281 287.1844,784.1094 Q286.575,783.8906 285.95,783.8906 Q285.1844,783.8906 284.5438,784.2188 Q283.9188,784.5469 283.4188,785.2969 Q282.9344,786.0469 282.9344,787.0781 L282.9344,788.1719 Q282.9344,789.4063 283.825,790.2344 Q284.7156,791.0469 286.3094,791.0469 Q287.2469,791.0469 287.9031,790.7969 Q288.2938,790.6406 288.7156,790.2031 Q288.9813,789.9375 289.1219,789.8594 Q289.2781,789.7813 289.4813,789.7813 Q289.8094,789.7813 290.0594,790.0469 Q290.325,790.2969 290.325,790.6406 Q290.325,790.9844 289.9813,791.3906 Q289.4813,791.9688 288.6844,792.2969 Q287.6063,792.75 286.3094,792.75 Q284.7938,792.75 283.5906,792.125 Q282.6063,791.625 281.9188,790.5625 Q281.2313,789.4844 281.2313,788.2031 L281.2313,787.0469 Q281.2313,785.7188 281.8406,784.5781 Q282.4656,783.4219 283.5594,782.8125 Q284.6531,782.1875 285.8875,782.1875 Q286.6219,782.1875 287.2625,782.3594 Q287.9188,782.5156 288.4656,782.875 Z " fill="#000000"/><text fill="#000000" font-family="sans-serif" font-size="14" lengthAdjust="spacing" textLength="72" x="303.3" y="792.7285">Notificacion</text><line style="stroke:#181818;stroke-width:0.5;" x1="255.5" x2="393.5" y1="803" y2="803"/><rect fill="none" height="6" style="stroke:#C82930;stroke-width:1.0;" width="6" x="262.5" y="814.3047"/><text fill="#000000" font-family="sans-serif" font-size="14" lengthAdjust="spacing" textLength="113" x="274.5" y="821.5332">persona: Persona</text><rect fill="none" height="6" style="stroke:#C82930;stroke-width:1.0;" width="6" x="262.5" y="831.9141"/><text fill="#000000" font-family="sans-serif" font-size="14" lengthAdjust="spacing" textLength="114" x="274.5" y="839.1426">mensaje: Mensaje</text><rect fill="none" height="6" style="stroke:#C82930;stroke-width:1.0;" width="6" x="262.5" y="849.5234"/><text fill="#000000" font-family="sans-serif" font-size="14" lengthAdjust="spacing" textLength="86" x="274.5" y="856.752">enviada: Bool</text><line style="stroke:#181818;stroke-width:0.5;" x1="255.5" x2="393.5" y1="863.8281" y2="863.8281"/></g><!--class alertarCuidadores--><g id="elem_alertarCuidadores"><rect codeLine="98" fill="#F1F1F1" height="65.6094" id="alertarCuidadores" rx="2.5" ry="2.5" style="stroke:#181818;stroke-width:0.5;" width="146" x="978.5" y="601"/><ellipse cx="993.5" cy="617" fill="#ADD1B2" rx="11" ry="11" style="stroke:#181818;stroke-width:1.0;"/><path d="M996.2656,612.875 Q996.4219,612.6563 996.6094,612.5469 Q996.7969,612.4375 997.0156,612.4375 Q997.3906,612.4375 997.625,612.7031 Q997.8594,612.9531 997.8594,613.5625 L997.8594,615.0156 Q997.8594,615.625 997.625,615.8906 Q997.3906,616.1563 997.0156,616.1563 Q996.6719,616.1563 996.4688,615.9531 Q996.2656,615.7656 996.1563,615.25 Q996.1094,614.8906 995.9219,614.7031 Q995.5938,614.3281 994.9844,614.1094 Q994.375,613.8906 993.75,613.8906 Q992.9844,613.8906 992.3438,614.2188 Q991.7188,614.5469 991.2188,615.2969 Q990.7344,616.0469 990.7344,617.0781 L990.7344,618.1719 Q990.7344,619.4063 991.625,620.2344 Q992.5156,621.0469 994.1094,621.0469 Q995.0469,621.0469 995.7031,620.7969 Q996.0938,620.6406 996.5156,620.2031 Q996.7813,619.9375 996.9219,619.8594 Q997.0781,619.7813 997.2813,619.7813 Q997.6094,619.7813 997.8594,620.0469 Q998.125,620.2969 998.125,620.6406 Q998.125,620.9844 997.7813,621.3906 Q997.2813,621.9688 996.4844,622.2969 Q995.4063,622.75 994.1094,622.75 Q992.5938,622.75 991.3906,622.125 Q990.4063,621.625 989.7188,620.5625 Q989.0313,619.4844 989.0313,618.2031 L989.0313,617.0469 Q989.0313,615.7188 989.6406,614.5781 Q990.2656,613.4219 991.3594,612.8125 Q992.4531,612.1875 993.6875,612.1875 Q994.4219,612.1875 995.0625,612.3594 Q995.7188,612.5156 996.2656,612.875 Z " fill="#000000"/><text fill="#000000" font-family="sans-serif" font-size="14" lengthAdjust="spacing" textLength="114" x="1007.5" y="622.7285">alertarCuidadores</text><line style="stroke:#181818;stroke-width:0.5;" x1="979.5" x2="1123.5" y1="633" y2="633"/><line style="stroke:#181818;stroke-width:0.5;" x1="979.5" x2="1123.5" y1="641" y2="641"/><rect fill="#F24D5C" height="6" style="stroke:#C82930;stroke-width:1.0;" width="6" x="986.5" y="652.3047"/><text fill="#000000" font-family="sans-serif" font-size="14" lengthAdjust="spacing" textLength="111" x="998.5" y="659.5332">reaccionar(): void</text></g><!--class llamarPolicia--><g id="elem_llamarPolicia"><rect codeLine="102" fill="#F1F1F1" height="65.6094" id="llamarPolicia" rx="2.5" ry="2.5" style="stroke:#181818;stroke-width:0.5;" width="137" x="1160" y="601"/><ellipse cx="1186.7" cy="617" fill="#ADD1B2" rx="11" ry="11" style="stroke:#181818;stroke-width:1.0;"/><path d="M1189.4656,612.875 Q1189.6219,612.6563 1189.8094,612.5469 Q1189.9969,612.4375 1190.2156,612.4375 Q1190.5906,612.4375 1190.825,612.7031 Q1191.0594,612.9531 1191.0594,613.5625 L1191.0594,615.0156 Q1191.0594,615.625 1190.825,615.8906 Q1190.5906,616.1563 1190.2156,616.1563 Q1189.8719,616.1563 1189.6688,615.9531 Q1189.4656,615.7656 1189.3563,615.25 Q1189.3094,614.8906 1189.1219,614.7031 Q1188.7938,614.3281 1188.1844,614.1094 Q1187.575,613.8906 1186.95,613.8906 Q1186.1844,613.8906 1185.5438,614.2188 Q1184.9188,614.5469 1184.4188,615.2969 Q1183.9344,616.0469 1183.9344,617.0781 L1183.9344,618.1719 Q1183.9344,619.4063 1184.825,620.2344 Q1185.7156,621.0469 1187.3094,621.0469 Q1188.2469,621.0469 1188.9031,620.7969 Q1189.2938,620.6406 1189.7156,620.2031 Q1189.9813,619.9375 1190.1219,619.8594 Q1190.2781,619.7813 1190.4813,619.7813 Q1190.8094,619.7813 1191.0594,620.0469 Q1191.325,620.2969 1191.325,620.6406 Q1191.325,620.9844 1190.9813,621.3906 Q1190.4813,621.9688 1189.6844,622.2969 Q1188.6063,622.75 1187.3094,622.75 Q1185.7938,622.75 1184.5906,622.125 Q1183.6063,621.625 1182.9188,620.5625 Q1182.2313,619.4844 1182.2313,618.2031 L1182.2313,617.0469 Q1182.2313,615.7188 1182.8406,614.5781 Q1183.4656,613.4219 1184.5594,612.8125 Q1185.6531,612.1875 1186.8875,612.1875 Q1187.6219,612.1875 1188.2625,612.3594 Q1188.9188,612.5156 1189.4656,612.875 Z " fill="#000000"/><text fill="#000000" font-family="sans-serif" font-size="14" lengthAdjust="spacing" textLength="79" x="1203.3" y="622.7285">llamarPolicia</text><line style="stroke:#181818;stroke-width:0.5;" x1="1161" x2="1296" y1="633" y2="633"/><line style="stroke:#181818;stroke-width:0.5;" x1="1161" x2="1296" y1="641" y2="641"/><rect fill="#F24D5C" height="6" style="stroke:#C82930;stroke-width:1.0;" width="6" x="1168" y="652.3047"/><text fill="#000000" font-family="sans-serif" font-size="14" lengthAdjust="spacing" textLength="111" x="1180" y="659.5332">reaccionar(): void</text></g><!--class llamarTranseunte--><g id="elem_llamarTranseunte"><rect codeLine="106" fill="#F1F1F1" height="65.6094" id="llamarTranseunte" rx="2.5" ry="2.5" style="stroke:#181818;stroke-width:0.5;" width="143" x="1332" y="601"/><ellipse cx="1347" cy="617" fill="#ADD1B2" rx="11" ry="11" style="stroke:#181818;stroke-width:1.0;"/><path d="M1349.7656,612.875 Q1349.9219,612.6563 1350.1094,612.5469 Q1350.2969,612.4375 1350.5156,612.4375 Q1350.8906,612.4375 1351.125,612.7031 Q1351.3594,612.9531 1351.3594,613.5625 L1351.3594,615.0156 Q1351.3594,615.625 1351.125,615.8906 Q1350.8906,616.1563 1350.5156,616.1563 Q1350.1719,616.1563 1349.9688,615.9531 Q1349.7656,615.7656 1349.6563,615.25 Q1349.6094,614.8906 1349.4219,614.7031 Q1349.0938,614.3281 1348.4844,614.1094 Q1347.875,613.8906 1347.25,613.8906 Q1346.4844,613.8906 1345.8438,614.2188 Q1345.2188,614.5469 1344.7188,615.2969 Q1344.2344,616.0469 1344.2344,617.0781 L1344.2344,618.1719 Q1344.2344,619.4063 1345.125,620.2344 Q1346.0156,621.0469 1347.6094,621.0469 Q1348.5469,621.0469 1349.2031,620.7969 Q1349.5938,620.6406 1350.0156,620.2031 Q1350.2813,619.9375 1350.4219,619.8594 Q1350.5781,619.7813 1350.7813,619.7813 Q1351.1094,619.7813 1351.3594,620.0469 Q1351.625,620.2969 1351.625,620.6406 Q1351.625,620.9844 1351.2813,621.3906 Q1350.7813,621.9688 1349.9844,622.2969 Q1348.9063,622.75 1347.6094,622.75 Q1346.0938,622.75 1344.8906,622.125 Q1343.9063,621.625 1343.2188,620.5625 Q1342.5313,619.4844 1342.5313,618.2031 L1342.5313,617.0469 Q1342.5313,615.7188 1343.1406,614.5781 Q1343.7656,613.4219 1344.8594,612.8125 Q1345.9531,612.1875 1347.1875,612.1875 Q1347.9219,612.1875 1348.5625,612.3594 Q1349.2188,612.5156 1349.7656,612.875 Z " fill="#000000"/><text fill="#000000" font-family="sans-serif" font-size="14" lengthAdjust="spacing" textLength="111" x="1361" y="622.7285">llamarTranseunte</text><line style="stroke:#181818;stroke-width:0.5;" x1="1333" x2="1474" y1="633" y2="633"/><line style="stroke:#181818;stroke-width:0.5;" x1="1333" x2="1474" y1="641" y2="641"/><rect fill="#F24D5C" height="6" style="stroke:#C82930;stroke-width:1.0;" width="6" x="1340" y="652.3047"/><text fill="#000000" font-family="sans-serif" font-size="14" lengthAdjust="spacing" textLength="111" x="1352" y="659.5332">reaccionar(): void</text></g><!--class prorroga--><g id="elem_prorroga"><rect codeLine="110" fill="#F1F1F1" height="83.2188" id="prorroga" rx="2.5" ry="2.5" style="stroke:#181818;stroke-width:0.5;" width="137" x="1510" y="592.5"/><ellipse cx="1547.5" cy="608.5" fill="#ADD1B2" rx="11" ry="11" style="stroke:#181818;stroke-width:1.0;"/><path d="M1550.2656,604.375 Q1550.4219,604.1563 1550.6094,604.0469 Q1550.7969,603.9375 1551.0156,603.9375 Q1551.3906,603.9375 1551.625,604.2031 Q1551.8594,604.4531 1551.8594,605.0625 L1551.8594,606.5156 Q1551.8594,607.125 1551.625,607.3906 Q1551.3906,607.6563 1551.0156,607.6563 Q1550.6719,607.6563 1550.4688,607.4531 Q1550.2656,607.2656 1550.1563,606.75 Q1550.1094,606.3906 1549.9219,606.2031 Q1549.5938,605.8281 1548.9844,605.6094 Q1548.375,605.3906 1547.75,605.3906 Q1546.9844,605.3906 1546.3438,605.7188 Q1545.7188,606.0469 1545.2188,606.7969 Q1544.7344,607.5469 1544.7344,608.5781 L1544.7344,609.6719 Q1544.7344,610.9063 1545.625,611.7344 Q1546.5156,612.5469 1548.1094,612.5469 Q1549.0469,612.5469 1549.7031,612.2969 Q1550.0938,612.1406 1550.5156,611.7031 Q1550.7813,611.4375 1550.9219,611.3594 Q1551.0781,611.2813 1551.2813,611.2813 Q1551.6094,611.2813 1551.8594,611.5469 Q1552.125,611.7969 1552.125,612.1406 Q1552.125,612.4844 1551.7813,612.8906 Q1551.2813,613.4688 1550.4844,613.7969 Q1549.4063,614.25 1548.1094,614.25 Q1546.5938,614.25 1545.3906,613.625 Q1544.4063,613.125 1543.7188,612.0625 Q1543.0313,610.9844 1543.0313,609.7031 L1543.0313,608.5469 Q1543.0313,607.2188 1543.6406,606.0781 Q1544.2656,604.9219 1545.3594,604.3125 Q1546.4531,603.6875 1547.6875,603.6875 Q1548.4219,603.6875 1549.0625,603.8594 Q1549.7188,604.0156 1550.2656,604.375 Z " fill="#000000"/><text fill="#000000" font-family="sans-serif" font-size="14" lengthAdjust="spacing" textLength="55" x="1566.5" y="614.2285">prorroga</text><line style="stroke:#181818;stroke-width:0.5;" x1="1511" x2="1646" y1="624.5" y2="624.5"/><ellipse cx="1521" cy="638.8047" fill="none" rx="3" ry="3" style="stroke:#038048;stroke-width:1.0;"/><text fill="#000000" font-family="sans-serif" font-size="14" lengthAdjust="spacing" textLength="72" x="1530" y="643.0332">minutos: Int</text><line style="stroke:#181818;stroke-width:0.5;" x1="1511" x2="1646" y1="650.1094" y2="650.1094"/><rect fill="#F24D5C" height="6" style="stroke:#C82930;stroke-width:1.0;" width="6" x="1518" y="661.4141"/><text fill="#000000" font-family="sans-serif" font-size="14" lengthAdjust="spacing" textLength="111" x="1530" y="668.6426">reaccionar(): void</text></g><!--link Persona to Direccion--><g id="link_Persona_Direccion"><path codeLine="14" d="M443.85,497.22 C459.64,517.32 472.0742,533.1412 486.8542,551.9612 " fill="none" id="Persona-to-Direccion" style="stroke:#181818;stroke-width:1.0;"/><polygon fill="#181818" points="490.56,556.68,488.1471,547.1313,487.4718,552.7477,481.8554,552.0724,490.56,556.68" style="stroke:#181818;stroke-width:1.0;"/></g><!--link Persona to Usuario--><g id="link_Persona_Usuario"><path codeLine="15" d="M247.16,487.53 C207.46,524.39 169.2671,559.8676 138.5271,588.4076 " fill="none" id="Persona-to-Usuario" style="stroke:#181818;stroke-width:1.0;"/><polygon fill="#181818" points="134.13,592.49,143.4472,589.2978,137.7942,589.088,138.004,583.4351,134.13,592.49" style="stroke:#181818;stroke-width:1.0;"/></g><!--link Sexo to Persona--><g id="link_Sexo_Persona"><path codeLine="22" d="M356.5,160.75 C356.5,192.13 356.5,221.94 356.5,260.9 " fill="none" id="Sexo-to-Persona" style="stroke:#181818;stroke-width:1.0;"/><polygon fill="#181818" points="356.5,272.9,360.5,266.9,356.5,260.9,352.5,266.9,356.5,272.9" style="stroke:#181818;stroke-width:1.0;"/></g><!--link TipoUsuario to Usuario--><g id="link_TipoUsuario_Usuario"><path codeLine="33" d="M90.5,426.51 C90.5,472.36 90.5,534.61 90.5,580.47 " fill="none" id="TipoUsuario-to-Usuario" style="stroke:#181818;stroke-width:1.0;"/><polygon fill="#181818" points="90.5,592.47,94.5,586.47,90.5,580.47,86.5,586.47,90.5,592.47" style="stroke:#181818;stroke-width:1.0;"/></g><!--link Trayecto to Direccion--><g id="link_Trayecto_Direccion"><path codeLine="55" d="M656.39,213.33 C646.82,232.75 637.69,253.2 630.5,273 C595.95,368.08 574.546,477.0083 562.476,550.9983 " fill="none" id="Trayecto-to-Direccion" style="stroke:#181818;stroke-width:1.0;"/><polygon fill="#181818" points="561.51,556.92,566.9068,548.6814,562.315,551.9852,559.0112,547.3934,561.51,556.92" style="stroke:#181818;stroke-width:1.0;"/></g><!--link Trayecto to Persona--><g id="link_Trayecto_Persona"><path codeLine="56" d="M580.68,213.04 C542.75,241.97 506.6908,269.4714 470.4108,297.1414 " fill="none" id="Trayecto-to-Persona" style="stroke:#181818;stroke-width:1.0;"/><polygon fill="#181818" points="465.64,300.78,475.2219,298.5026,469.6157,297.7478,470.3705,292.1416,465.64,300.78" style="stroke:#181818;stroke-width:1.0;"/></g><!--link Trayecto to ReaccionIncidente--><g id="link_Trayecto_ReaccionIncidente"><path codeLine="57" d="M871.51,194.39 C965.25,244.18 1074.7112,302.3152 1148.3712,341.4452 " fill="none" id="Trayecto-to-ReaccionIncidente" style="stroke:#181818;stroke-width:1.0;"/><polygon fill="#181818" points="1153.67,344.26,1147.5984,336.5053,1149.2544,341.9143,1143.8453,343.5703,1153.67,344.26" style="stroke:#181818;stroke-width:1.0;"/></g><!--link Trayecto to IEstimadorDemoras--><g id="link_Trayecto_IEstimadorDemoras"><path codeLine="58" d="M742.16,213.04 C755.5,262.26 769.0106,312.0889 778.2406,346.1489 " fill="none" id="Trayecto-to-IEstimadorDemoras" style="stroke:#181818;stroke-width:1.0;"/><polygon fill="#181818" points="779.81,351.94,781.3167,342.2071,778.5022,347.1141,773.5952,344.2995,779.81,351.94" style="stroke:#181818;stroke-width:1.0;"/></g><!--reverse link IEstimadorDemoras to DefaultEstimadorDemoras--><g id="link_IEstimadorDemoras_DefaultEstimadorDemoras"><path d="M791.3365,436.0113 C793.7065,477.9113 796.88,533.79 799.67,583.07 " fill="none" id="IEstimadorDemoras-backto-DefaultEstimadorDemoras" style="stroke:#181818;stroke-width:1.0;stroke-dasharray:7.0,7.0;"/><polygon fill="none" points="790.32,418.04,785.3461,436.3501,797.3269,435.6724,790.32,418.04" style="stroke:#181818;stroke-width:1.0;"/></g><!--link DefaultEstimadorDemoras to DistanceMatrixAPI--><g id="link_DefaultEstimadorDemoras_DistanceMatrixAPI"><path codeLine="71" d="M802.5,684.71 C802.5,717.66 802.5,753.91 802.5,782.47 " fill="none" id="DefaultEstimadorDemoras-to-DistanceMatrixAPI" style="stroke:#181818;stroke-width:1.0;stroke-dasharray:7.0,7.0;"/><polygon fill="#181818" points="802.5,788.47,806.5,779.47,802.5,783.47,798.5,779.47,802.5,788.47" style="stroke:#181818;stroke-width:1.0;"/></g><!--link Persona to Inbox--><g id="link_Persona_Inbox"><path codeLine="84" d="M342.09,497.22 C338.62,523.98 336.6026,539.6196 333.5926,562.8396 " fill="none" id="Persona-to-Inbox" style="stroke:#181818;stroke-width:1.0;"/><polygon fill="#181818" points="332.05,574.74,336.7881,569.304,333.5926,562.8396,328.8545,568.2756,332.05,574.74" style="stroke:#181818;stroke-width:1.0;"/></g><!--link Inbox to Notificacion--><g id="link_Inbox_Notificacion"><path codeLine="85" d="M324.5,693.18 C324.5,718.15 324.5,741.02 324.5,764.95 " fill="none" id="Inbox-to-Notificacion" style="stroke:#181818;stroke-width:1.0;"/><polygon fill="#181818" points="324.5,770.95,328.5,761.95,324.5,765.95,320.5,761.95,324.5,770.95" style="stroke:#181818;stroke-width:1.0;"/></g><!--reverse link ReaccionIncidente to alertarCuidadores--><g id="link_ReaccionIncidente_alertarCuidadores"><path d="M1188.9858,441.1416 C1154.0758,489.8616 1106.66,556.03 1074.62,600.74 " fill="none" id="ReaccionIncidente-backto-alertarCuidadores" style="stroke:#181818;stroke-width:1.0;stroke-dasharray:7.0,7.0;"/><polygon fill="none" points="1199.47,426.51,1184.1087,437.6468,1193.863,444.6363,1199.47,426.51" style="stroke:#181818;stroke-width:1.0;"/></g><!--reverse link ReaccionIncidente to llamarPolicia--><g id="link_ReaccionIncidente_llamarPolicia"><path d="M1228.5,444.51 C1228.5,493.23 1228.5,556.03 1228.5,600.74 " fill="none" id="ReaccionIncidente-backto-llamarPolicia" style="stroke:#181818;stroke-width:1.0;stroke-dasharray:7.0,7.0;"/><polygon fill="none" points="1228.5,426.51,1222.5,444.51,1234.5,444.51,1228.5,426.51" style="stroke:#181818;stroke-width:1.0;"/></g><!--reverse link ReaccionIncidente to llamarTranseunte--><g id="link_ReaccionIncidente_llamarTranseunte"><path d="M1267.6063,441.197 C1302.1263,489.917 1348.97,556.03 1380.65,600.74 " fill="none" id="ReaccionIncidente-backto-llamarTranseunte" style="stroke:#181818;stroke-width:1.0;stroke-dasharray:7.0,7.0;"/><polygon fill="none" points="1257.2,426.51,1262.7106,444.6658,1272.502,437.7282,1257.2,426.51" style="stroke:#181818;stroke-width:1.0;"/></g><!--reverse link ReaccionIncidente to prorroga--><g id="link_ReaccionIncidente_prorroga"><path d="M1312.4912,435.8897 C1366.9112,468.9697 1428.78,508.63 1492.5,557 C1506.78,567.84 1521.65,580.45 1534.93,592.25 " fill="none" id="ReaccionIncidente-backto-prorroga" style="stroke:#181818;stroke-width:1.0;stroke-dasharray:7.0,7.0;"/><polygon fill="none" points="1297.11,426.54,1309.3747,441.0168,1315.6078,430.7626,1297.11,426.54" style="stroke:#181818;stroke-width:1.0;"/></g><!--SRC=[hLJHRjem57tFLrZQmzgoz0EY2Ia39aKg19LqhvLnBiYJOoFRGTqc_dtNJcoIGZjDsqkmZysvvrwVUvcWnf0rQACa9R-I2P6gsMh8oCPgBlS8q0C8mMiLePJKN0DZNCcCpCCIOQXfdH4kBQuDlBX_u1SthMcfvhX_wXO8SRbLBnaft8-FQlcECwfl6f26Vey2RZDoLBp6AuOBa8nJxVzpSpwWpFBZQ_YKXAJIT3fGEKI3cWHastYjM85blfazFHIhClcwM2vMRb5MZoKI-WjfUXVAbIJCLw-d6LJlAUGRYsZv0RSLVaFGKnzsW253FgkARsMopZVkvvGCJrteABaB7VFomHaLOlHomhQQkY9Rt0c5vzm_KRnneDeEdnOHhOxSbNc0CLNplLehOwc8y2beg3Jz0Sns-LjDfO5MMjGHoZGXIlCzZCmo8JKOowKQWwnr0fK6av47RkpddcEAPngelmQcG7qr-1Z-qcD_4l6fyoWqIjC51cbe7Ol05Fhh9zhiR9yTbrYN8POIQjg6wyWtS5NCTcoh4HmI7u4N8iV7HQzKwRaNRfBa8-e-MD09TXJe7MLmUSiN7JpOGpTHrAUpljik_zEPTAOaqs1L7fm4EzeAUy7FcuC0h9arLuEdP5QkDjNpjyL3EIlc-VnvlSYhShNOT17Th43RE4Fbwy8zjj_1agABNX3wE_blgRo_drwXxfF5JsoNLrT2sx1Me82WT0bMA_EMabgrMm5d__kvuqjnwDxzxFmqphNEkBrVLmFGMJLCDjU8NvGIxyx3qMIxwmTefy7vQCWT50wnjuJ6CCjkuSQvF7BVEbuJvakt1lkRsKil8-i7r_lUpraS2KWIkdRGNh5oL82sLCzYqm_TTYt6-tH2KBJHMWcEjVmVL5KSPl_6XZDLQxN_ewO9QRXihJAXTwwI_WO0]--></g></svg>